<svg width="24" height="24" viewBox="0 0 24 24" fill="none" xmlns="http://www.w3.org/2000/svg">
<g clip-path="url(#clip0)">
<path d="M24 12C24 9.62663 23.2962 7.30655 21.9776 5.33316C20.6591 3.35977 18.7849 1.8217 16.5922 0.913451C14.3995 0.00519943 11.9867 -0.232441 9.65892 0.230582C7.33115 0.693605 5.19295 1.83649 3.51472 3.51472C1.83649 5.19295 0.693605 7.33115 0.230582 9.65892C-0.232441 11.9867 0.00519943 14.3995 0.913451 16.5922C1.8217 18.7849 3.35977 20.6591 5.33316 21.9776C7.30655 23.2962 9.62663 24 12 24C15.1815 23.9966 18.2318 22.7312 20.4815 20.4815C22.7312 18.2318 23.9966 15.1815 24 12ZM19.916 18.1C19.8943 18.1282 19.8668 18.1514 19.8354 18.1681C19.804 18.1848 19.7694 18.1946 19.7339 18.1969C19.6984 18.1992 19.6629 18.1939 19.6296 18.1813C19.5963 18.1687 19.5661 18.1492 19.541 18.124L15.8 14.384C15.7528 14.3375 15.6893 14.3114 15.623 14.3114C15.5568 14.3114 15.4932 14.3375 15.446 14.384L14.386 15.445C14.3393 15.4919 14.3131 15.5553 14.3131 15.6215C14.3131 15.6877 14.3393 15.7511 14.386 15.798L18.129 19.541C18.1542 19.5661 18.1737 19.5963 18.1863 19.6296C18.1989 19.6629 18.2042 19.6984 18.2019 19.7339C18.1996 19.7694 18.1898 19.804 18.1731 19.8354C18.1564 19.8668 18.1332 19.8943 18.105 19.916C16.1821 21.4018 13.7836 22.136 11.3585 21.9813C8.93335 21.8267 6.64764 20.7937 4.92902 19.0757C3.21039 17.3577 2.17661 15.0723 2.02107 12.6473C1.86554 10.2222 2.59892 7.82349 4.08401 5.90001C4.10571 5.87183 4.13318 5.84861 4.16458 5.8319C4.19598 5.81519 4.23058 5.80537 4.26607 5.8031C4.30157 5.80083 4.33714 5.80616 4.37041 5.81873C4.40368 5.8313 4.43388 5.85083 4.45901 5.87601L6.95901 8.37601C6.98702 8.40394 7.02126 8.42482 7.05892 8.43694C7.09657 8.44906 7.13657 8.45207 7.17562 8.44573C7.21466 8.43938 7.25165 8.42386 7.28353 8.40044C7.31541 8.37702 7.34128 8.34637 7.35901 8.31101L8.06601 6.89701C8.08932 6.85012 8.09732 6.79711 8.08889 6.74544C8.08045 6.69376 8.05601 6.64604 8.01901 6.60901L5.87301 4.45901C5.848 4.43368 5.82868 4.40331 5.81636 4.36992C5.80403 4.33653 5.79898 4.30089 5.80153 4.26539C5.80409 4.22989 5.8142 4.19534 5.83118 4.16406C5.84816 4.13278 5.87163 4.10549 5.90001 4.08401C7.82339 2.60269 10.2202 1.87212 12.6428 2.02874C15.0655 2.18536 17.3483 3.21846 19.0649 4.9351C20.7815 6.65174 21.8146 8.93454 21.9713 11.3572C22.1279 13.7798 21.3973 16.1766 19.916 18.1Z" fill="#000"/>
<path d="M16.4 9.5H13.9C13.8547 9.50004 13.8103 9.48777 13.7714 9.4645C13.7325 9.44123 13.7007 9.40783 13.6794 9.36788C13.658 9.32794 13.6479 9.28293 13.6501 9.23769C13.6524 9.19244 13.6669 9.14865 13.692 9.111L15.656 6.165C15.731 6.05213 15.774 5.92107 15.7805 5.78572C15.7869 5.65037 15.7566 5.51581 15.6927 5.39632C15.6288 5.27683 15.5337 5.17689 15.4176 5.10711C15.3014 5.03732 15.1685 5.00031 15.033 5H11.309C11.1233 4.99982 10.9412 5.05137 10.7831 5.14886C10.625 5.24636 10.4972 5.38595 10.414 5.552L7.23204 11.917C7.17553 12.031 7.14897 12.1576 7.15486 12.2847C7.16075 12.4119 7.1989 12.5354 7.26571 12.6437C7.33253 12.7521 7.42582 12.8416 7.53679 12.9039C7.64776 12.9663 7.77276 12.9993 7.90004 13H9.46004C9.49963 13 9.53865 13.0095 9.57388 13.0275C9.60912 13.0456 9.63956 13.0718 9.6627 13.1039C9.68584 13.136 9.70102 13.1732 9.70699 13.2123C9.71296 13.2514 9.70955 13.2914 9.69704 13.329L8.02504 18.342C7.98879 18.4491 7.98991 18.5653 8.02821 18.6717C8.06651 18.778 8.13972 18.8683 8.23591 18.9277C8.3321 18.9871 8.44558 19.0122 8.55784 18.9988C8.6701 18.9854 8.77451 18.9344 8.85404 18.854L16.928 10.78C17.0322 10.6751 17.1031 10.5417 17.1317 10.3966C17.1604 10.2516 17.1456 10.1013 17.0892 9.9646C17.0329 9.82792 16.9374 9.71091 16.8148 9.62826C16.6922 9.54561 16.5479 9.50099 16.4 9.5Z" fill="#000"/>
</g>
<defs>
<clipPath id="clip0">
<rect width="24" height="24" fill="white"/>
</clipPath>
</defs>
</svg>
