<svg width="24" height="24" viewBox="0 0 24 24" fill="none" xmlns="http://www.w3.org/2000/svg">
<g clip-path="url(#clip0)">
<path d="M11 15C11.0001 14.3338 11.1665 13.6782 11.4843 13.0927C11.802 12.5072 12.2609 12.0102 12.8194 11.6471C13.3778 11.2839 14.0182 11.066 14.6822 11.013C15.3463 10.9601 16.0131 11.0739 16.622 11.344C16.6734 11.3667 16.731 11.3715 16.7854 11.3576C16.8398 11.3436 16.888 11.3117 16.922 11.267C17.0267 11.1638 17.0983 11.0317 17.1277 10.8877C17.157 10.7436 17.1428 10.594 17.0868 10.4581C17.0308 10.3222 16.9355 10.206 16.8132 10.1244C16.6909 10.0428 16.5471 9.9995 16.4 10H13.9C13.8547 10 13.8103 9.98777 13.7714 9.9645C13.7325 9.94123 13.7007 9.90783 13.6794 9.86788C13.658 9.82794 13.6479 9.78293 13.6501 9.73769C13.6524 9.69244 13.6669 9.64865 13.692 9.611L15.656 6.665C15.731 6.55213 15.774 6.42107 15.7805 6.28572C15.7869 6.15037 15.7566 6.01581 15.6927 5.89632C15.6288 5.77683 15.5337 5.67689 15.4176 5.60711C15.3014 5.53732 15.1685 5.50031 15.033 5.5H11.309C11.1233 5.49982 10.9412 5.55137 10.7831 5.64886C10.625 5.74636 10.4972 5.88595 10.414 6.052L7.23204 12.417C7.17553 12.531 7.14897 12.6576 7.15486 12.7847C7.16075 12.9119 7.1989 13.0354 7.26571 13.1437C7.33253 13.2521 7.42582 13.3416 7.53679 13.4039C7.64776 13.4663 7.77276 13.4993 7.90004 13.5H9.46004C9.49963 13.5 9.53865 13.5095 9.57388 13.5275C9.60912 13.5456 9.63956 13.5718 9.6627 13.6039C9.68584 13.636 9.70102 13.6732 9.70699 13.7123C9.71296 13.7514 9.70955 13.7914 9.69704 13.829L8.02504 18.842C7.98879 18.9491 7.98991 19.0653 8.02821 19.1717C8.06651 19.278 8.13972 19.3683 8.23591 19.4277C8.3321 19.4871 8.44558 19.5122 8.55784 19.4988C8.6701 19.4854 8.77451 19.4344 8.85404 19.354L10.927 17.28C10.9506 17.2564 10.9693 17.2283 10.9818 17.1974C10.9944 17.1665 11.0006 17.1334 11 17.1V15Z" fill="#000"/>
<path d="M15 12.25C14.2708 12.2505 13.5717 12.5404 13.056 13.056C12.5404 13.5717 12.2505 14.2708 12.25 15V18.5C12.25 18.6989 12.329 18.8897 12.4697 19.0303C12.6103 19.171 12.8011 19.25 13 19.25C13.1989 19.25 13.3897 19.171 13.5303 19.0303C13.671 18.8897 13.75 18.6989 13.75 18.5V17.25C13.75 17.1837 13.7763 17.1201 13.8232 17.0732C13.8701 17.0263 13.9337 17 14 17H16C16.0663 17 16.1299 17.0263 16.1768 17.0732C16.2237 17.1201 16.25 17.1837 16.25 17.25V18.5C16.25 18.6989 16.329 18.8897 16.4697 19.0303C16.6103 19.171 16.8011 19.25 17 19.25C17.1989 19.25 17.3897 19.171 17.5303 19.0303C17.671 18.8897 17.75 18.6989 17.75 18.5V15C17.7495 14.2708 17.4596 13.5717 16.944 13.056C16.4283 12.5404 15.7292 12.2505 15 12.25ZM14 15.5C13.9337 15.5 13.8701 15.4737 13.8232 15.4268C13.7763 15.3799 13.75 15.3163 13.75 15.25V15C13.75 14.6685 13.8817 14.3505 14.1161 14.1161C14.3505 13.8817 14.6685 13.75 15 13.75C15.3315 13.75 15.6495 13.8817 15.8839 14.1161C16.1183 14.3505 16.25 14.6685 16.25 15V15.25C16.25 15.3163 16.2237 15.3799 16.1768 15.4268C16.1299 15.4737 16.0663 15.5 16 15.5H14Z" fill="#000"/>
<path d="M12 0C9.62663 0 7.30655 0.703788 5.33316 2.02236C3.35977 3.34094 1.8217 5.21509 0.913451 7.4078C0.00519943 9.60051 -0.232441 12.0133 0.230582 14.3411C0.693605 16.6689 1.83649 18.8071 3.51472 20.4853C5.19295 22.1635 7.33115 23.3064 9.65892 23.7694C11.9867 24.2324 14.3995 23.9948 16.5922 23.0866C18.7849 22.1783 20.6591 20.6402 21.9776 18.6668C23.2962 16.6935 24 14.3734 24 12C23.9966 8.81846 22.7312 5.76821 20.4815 3.51852C18.2318 1.26883 15.1815 0.00344108 12 0V0ZM18.838 19.29C18.3647 19.7344 17.8496 20.1323 17.3 20.478C15.1184 21.8444 12.4947 22.3191 9.97257 21.8038C7.45046 21.2885 5.22327 19.8227 3.75247 17.71C2.28168 15.5973 1.68004 12.9998 2.0722 10.4556C2.46437 7.91147 3.82028 5.61569 5.85899 4.04399C7.89771 2.47228 10.4629 1.74515 13.0232 2.01324C15.5834 2.28134 17.9423 3.52411 19.6112 5.48405C21.2801 7.444 22.131 9.97087 21.9876 12.5411C21.8442 15.1113 20.7176 17.5279 18.841 19.29H18.838Z" fill="#000"/>
</g>
<defs>
<clipPath id="clip0">
<rect width="24" height="24" fill="white"/>
</clipPath>
</defs>
</svg>
