<svg width="24" height="24" viewBox="0 0 24 24" fill="none" xmlns="http://www.w3.org/2000/svg">
<g clip-path="url(#clip0)">
<path d="M12 0C9.62663 0 7.30655 0.703788 5.33316 2.02236C3.35977 3.34094 1.8217 5.21509 0.913451 7.4078C0.00519943 9.60051 -0.232441 12.0133 0.230582 14.3411C0.693605 16.6689 1.83649 18.8071 3.51472 20.4853C5.19295 22.1635 7.33115 23.3064 9.65892 23.7694C11.9867 24.2324 14.3995 23.9948 16.5922 23.0866C18.7849 22.1783 20.6591 20.6402 21.9776 18.6668C23.2962 16.6935 24 14.3734 24 12C23.9966 8.81846 22.7312 5.76821 20.4815 3.51852C18.2318 1.26883 15.1815 0.00344108 12 0V0ZM12 22C10.0222 22 8.08879 21.4135 6.4443 20.3147C4.79981 19.2159 3.51809 17.6541 2.76121 15.8268C2.00433 13.9996 1.8063 11.9889 2.19215 10.0491C2.578 8.10929 3.53041 6.32746 4.92894 4.92893C6.32746 3.53041 8.10929 2.578 10.0491 2.19215C11.9889 1.8063 13.9996 2.00433 15.8268 2.7612C17.6541 3.51808 19.2159 4.79981 20.3147 6.4443C21.4135 8.08879 22 10.0222 22 12C21.9971 14.6513 20.9426 17.1931 19.0679 19.0679C17.1931 20.9426 14.6513 21.9971 12 22Z" fill="#000"/>
<path d="M16.4 10H13.9C13.8547 10 13.8103 9.98777 13.7714 9.9645C13.7325 9.94123 13.7007 9.90783 13.6794 9.86788C13.658 9.82794 13.6479 9.78293 13.6501 9.73769C13.6524 9.69244 13.6669 9.64865 13.692 9.611L15.656 6.665C15.731 6.55213 15.774 6.42107 15.7805 6.28572C15.7869 6.15037 15.7566 6.01581 15.6927 5.89632C15.6288 5.77683 15.5337 5.67689 15.4176 5.60711C15.3014 5.53732 15.1685 5.50031 15.033 5.5H11.309C11.1233 5.49982 10.9412 5.55137 10.7831 5.64886C10.625 5.74636 10.4972 5.88595 10.414 6.052L7.23204 12.417C7.17553 12.531 7.14897 12.6576 7.15486 12.7847C7.16075 12.9119 7.1989 13.0354 7.26571 13.1437C7.33253 13.2521 7.42582 13.3416 7.53679 13.4039C7.64776 13.4663 7.77276 13.4993 7.90004 13.5H9.46004C9.49963 13.5 9.53865 13.5095 9.57388 13.5275C9.60912 13.5456 9.63956 13.5718 9.6627 13.6039C9.68584 13.636 9.70102 13.6732 9.70699 13.7123C9.71296 13.7514 9.70955 13.7914 9.69704 13.829L8.02504 18.842C7.98879 18.9491 7.98991 19.0653 8.02821 19.1717C8.06651 19.278 8.13972 19.3683 8.23591 19.4277C8.3321 19.4871 8.44558 19.5122 8.55784 19.4988C8.6701 19.4854 8.77451 19.4344 8.85404 19.354L16.928 11.28C17.0322 11.1751 17.1031 11.0417 17.1317 10.8966C17.1604 10.7516 17.1456 10.6013 17.0892 10.4646C17.0329 10.3279 16.9374 10.2109 16.8148 10.1283C16.6922 10.0456 16.5479 10.001 16.4 10Z" fill="#000"/>
</g>
<defs>
<clipPath id="clip0">
<rect width="24" height="24" fill="white"/>
</clipPath>
</defs>
</svg>
