<svg width="16" height="16" viewBox="0 0 16 16" fill="none" xmlns="http://www.w3.org/2000/svg">
<path d="M14.3334 1.66666H1.66671C1.31309 1.66666 0.973947 1.80713 0.723898 2.05718C0.47385 2.30723 0.333374 2.64637 0.333374 2.99999V4.99999C0.333374 5.1768 0.403612 5.34637 0.528636 5.47139C0.65366 5.59642 0.82323 5.66666 1.00004 5.66666H15C15.1769 5.66666 15.3464 5.59642 15.4714 5.47139C15.5965 5.34637 15.6667 5.1768 15.6667 4.99999V2.99999C15.6667 2.64637 15.5262 2.30723 15.2762 2.05718C15.0261 1.80713 14.687 1.66666 14.3334 1.66666Z" fill="#000"/>
<path d="M14.3333 6.66666H1.66667C1.48986 6.66666 1.32029 6.73689 1.19526 6.86192C1.07024 6.98694 1 7.15651 1 7.33332V13C1 13.3536 1.14048 13.6927 1.39052 13.9428C1.64057 14.1928 1.97971 14.3333 2.33333 14.3333H13.6667C14.0203 14.3333 14.3594 14.1928 14.6095 13.9428C14.8595 13.6927 15 13.3536 15 13V7.33332C15 7.15651 14.9298 6.98694 14.8047 6.86192C14.6797 6.73689 14.5101 6.66666 14.3333 6.66666ZM10.1667 8.99999C10.1663 9.2209 10.0784 9.43265 9.9222 9.58886C9.766 9.74506 9.55424 9.83297 9.33333 9.83332H6.66667C6.44565 9.83332 6.23369 9.74553 6.07741 9.58925C5.92113 9.43297 5.83333 9.221 5.83333 8.99999C5.83333 8.77898 5.92113 8.56701 6.07741 8.41073C6.23369 8.25445 6.44565 8.16666 6.66667 8.16666H9.33333C9.55424 8.16701 9.766 8.25492 9.9222 8.41112C10.0784 8.56733 10.1663 8.77908 10.1667 8.99999Z" fill="#000"/>
</svg>
