<svg width="16" height="11" viewBox="0 0 16 11" fill="none" xmlns="http://www.w3.org/2000/svg">
<path d="M8.00021 1.17456e-06C8.21827 -0.000268712 8.43388 0.0459743 8.63264 0.135644C8.83141 0.225314 9.00877 0.356348 9.15288 0.520001L15.6935 7.95333C15.8048 8.07401 15.8907 8.2157 15.9464 8.37008C16.0021 8.52445 16.0264 8.6884 16.0178 8.85229C16.0092 9.01618 15.9679 9.17669 15.8964 9.32441C15.8249 9.47212 15.7246 9.60404 15.6014 9.71243C15.4781 9.82082 15.3345 9.90347 15.1788 9.95555C15.0232 10.0076 14.8587 10.0281 14.6951 10.0157C14.5315 10.0033 14.3719 9.95827 14.2259 9.88334C14.0799 9.80841 13.9504 9.70505 13.8449 9.57933L8.12554 3.07933C8.1099 3.06149 8.09063 3.04719 8.06901 3.03739C8.0474 3.0276 8.02394 3.02253 8.00021 3.02253C7.97648 3.02253 7.95302 3.0276 7.93141 3.03739C7.90979 3.04719 7.89052 3.06149 7.87488 3.07933L2.15554 9.58067C2.05005 9.70638 1.9205 9.80975 1.77449 9.88468C1.62848 9.95961 1.46897 10.0046 1.30533 10.017C1.14168 10.0294 0.977213 10.009 0.821582 9.95688C0.66595 9.90481 0.522299 9.82215 0.39907 9.71376C0.275842 9.60538 0.175523 9.47345 0.10401 9.32574C0.0324977 9.17803 -0.00876603 9.01751 -0.0173553 8.85362C-0.0259445 8.68974 -0.00168607 8.52579 0.0539943 8.37141C0.109675 8.21703 0.195653 8.07534 0.306877 7.95467L6.84554 0.522668C6.98991 0.35861 7.16753 0.227155 7.36661 0.137039C7.5657 0.0469227 7.78168 0.000208685 8.00021 1.17456e-06Z" fill="#000"/>
</svg>
