<svg width="16" height="16" viewBox="0 0 16 16" fill="none" xmlns="http://www.w3.org/2000/svg">
<path d="M13 8C13.0003 8.21806 12.954 8.43367 12.8644 8.63244C12.7747 8.8312 12.6437 9.00856 12.48 9.15267L5.04535 15.6933C4.79898 15.9001 4.48151 16.0022 4.16082 15.9779C3.84013 15.9536 3.54168 15.8048 3.32927 15.5633C3.11687 15.3218 3.00738 15.0068 3.02421 14.6856C3.04104 14.3645 3.18286 14.0626 3.41935 13.8447L9.92068 8.12533C9.93853 8.10969 9.95282 8.09042 9.96262 8.0688C9.97242 8.04719 9.97749 8.02373 9.97749 8C9.97749 7.97627 9.97242 7.95281 9.96262 7.9312C9.95282 7.90958 9.93853 7.89031 9.92068 7.87467L3.41935 2.15533C3.18286 1.93737 3.04104 1.63553 3.02421 1.31437C3.00738 0.993198 3.11687 0.678191 3.32927 0.436701C3.54168 0.195211 3.84013 0.0464074 4.16082 0.0221076C4.48151 -0.00219224 4.79898 0.0999409 5.04535 0.306668L12.4773 6.84533C12.6414 6.9897 12.7729 7.16732 12.863 7.36641C12.9531 7.56549 12.9998 7.78147 13 8Z" fill="#000"/>
</svg>
