<svg width="16" height="11" viewBox="0 0 16 11" fill="none" xmlns="http://www.w3.org/2000/svg">
<path d="M7.99997 11C7.78191 11.0003 7.56631 10.954 7.36754 10.8644C7.16877 10.7747 6.99141 10.6437 6.8473 10.48L0.306637 3.04534C0.0999104 2.79897 -0.00222275 2.4815 0.022077 2.16081C0.0463768 1.84012 0.195181 1.54167 0.436671 1.32926C0.67816 1.11686 0.993168 1.00737 1.31434 1.0242C1.6355 1.04103 1.93734 1.18285 2.1553 1.41934L7.87464 7.92067C7.89028 7.93852 7.90955 7.95282 7.93117 7.96261C7.95278 7.97241 7.97624 7.97748 7.99997 7.97748C8.0237 7.97748 8.04716 7.97241 8.06877 7.96261C8.09039 7.95282 8.10966 7.93852 8.1253 7.92067L13.8446 1.41934C13.9501 1.29362 14.0797 1.19026 14.2257 1.11533C14.3717 1.0404 14.5312 0.995412 14.6949 0.983012C14.8585 0.970612 15.023 0.99105 15.1786 1.04312C15.3342 1.0952 15.4779 1.17786 15.6011 1.28624C15.7243 1.39463 15.8247 1.52655 15.8962 1.67427C15.9677 1.82198 16.0089 1.98249 16.0175 2.14638C16.0261 2.31027 16.0019 2.47422 15.9462 2.6286C15.8905 2.78297 15.8045 2.92466 15.6933 3.04534L9.15464 10.4773C9.01028 10.6414 8.83265 10.7728 8.63357 10.863C8.43448 10.9531 8.2185 10.9998 7.99997 11Z" fill="#000"/>
</svg>
