<svg width="16" height="16" viewBox="0 0 16 16" fill="none" xmlns="http://www.w3.org/2000/svg">
<g clip-path="url(#clip0)">
<path d="M7.99994 0C6.76953 0.00141121 5.58991 0.490769 4.71982 1.36074C3.84972 2.23071 3.3602 3.41026 3.35861 4.64067V12.5807C3.35228 13.0336 3.43603 13.4832 3.60498 13.9035C3.77393 14.3238 4.02471 14.7063 4.34276 15.0288C4.66081 15.3514 5.03978 15.6075 5.45766 15.7823C5.87553 15.9571 6.32398 16.0471 6.77694 16.0471C7.22991 16.0471 7.67835 15.9571 8.09623 15.7823C8.5141 15.6075 8.89308 15.3514 9.21113 15.0288C9.52917 14.7063 9.77996 14.3238 9.94891 13.9035C10.1179 13.4832 10.2016 13.0336 10.1953 12.5807V6.47533C10.1953 5.89309 9.96398 5.3347 9.55228 4.923C9.14057 4.51129 8.58218 4.28 7.99994 4.28C7.4177 4.28 6.85931 4.51129 6.44761 4.923C6.0359 5.3347 5.80461 5.89309 5.80461 6.47533V11.6667C5.80461 11.8435 5.87485 12.013 5.99987 12.1381C6.1249 12.2631 6.29447 12.3333 6.47128 12.3333C6.64809 12.3333 6.81766 12.2631 6.94268 12.1381C7.06771 12.013 7.13794 11.8435 7.13794 11.6667V6.47533C7.13794 6.24672 7.22876 6.02746 7.39042 5.86581C7.55207 5.70415 7.77133 5.61333 7.99994 5.61333C8.22856 5.61333 8.44781 5.70415 8.60947 5.86581C8.77113 6.02746 8.86194 6.24672 8.86194 6.47533V12.5807C8.8669 12.8576 8.81663 13.1328 8.71407 13.3901C8.61151 13.6474 8.45872 13.8817 8.26462 14.0793C8.07052 14.2769 7.839 14.4338 7.58357 14.541C7.32814 14.6481 7.05393 14.7033 6.77694 14.7033C6.49996 14.7033 6.22574 14.6481 5.97032 14.541C5.71489 14.4338 5.48337 14.2769 5.28927 14.0793C5.09517 13.8817 4.94238 13.6474 4.83982 13.3901C4.73726 13.1328 4.68699 12.8576 4.69194 12.5807V4.64067C4.69194 3.76333 5.04046 2.92193 5.66083 2.30156C6.2812 1.68119 7.12261 1.33267 7.99994 1.33267C8.87728 1.33267 9.71868 1.68119 10.3391 2.30156C10.9594 2.92193 11.3079 3.76333 11.3079 4.64067V9.66667C11.3079 9.84348 11.3782 10.013 11.5032 10.1381C11.6282 10.2631 11.7978 10.3333 11.9746 10.3333C12.1514 10.3333 12.321 10.2631 12.446 10.1381C12.571 10.013 12.6413 9.84348 12.6413 9.66667V4.64067C12.6397 3.41026 12.1502 2.23071 11.2801 1.36074C10.41 0.490769 9.23035 0.00141121 7.99994 0V0Z" fill="#000"/>
</g>
<defs>
<clipPath id="clip0">
<rect width="16" height="16" fill="white"/>
</clipPath>
</defs>
</svg>
