<svg width="16" height="16" viewBox="0 0 16 16" fill="none" xmlns="http://www.w3.org/2000/svg">
<path d="M11.4286 0H4.57146C4.11681 0 3.68077 0.180612 3.35928 0.502103C3.03779 0.823594 2.85718 1.25963 2.85718 1.71429V15.4286C2.8572 15.5416 2.89077 15.6522 2.95363 15.7461C3.01649 15.8401 3.10583 15.9133 3.21032 15.9565C3.31481 15.9997 3.42977 16.011 3.54065 15.9888C3.65152 15.9666 3.75333 15.9121 3.83318 15.832L7.79775 11.8674C7.82429 11.8408 7.85582 11.8197 7.89053 11.8053C7.92524 11.7909 7.96245 11.7835 8.00003 11.7835C8.03762 11.7835 8.07483 11.7909 8.10954 11.8053C8.14425 11.8197 8.17578 11.8408 8.20232 11.8674L12.1669 15.832C12.2467 15.9121 12.3485 15.9666 12.4594 15.9888C12.5703 16.011 12.6853 15.9997 12.7898 15.9565C12.8942 15.9133 12.9836 15.8401 13.0464 15.7461C13.1093 15.6522 13.1429 15.5416 13.1429 15.4286V1.71429C13.1429 1.25963 12.9623 0.823594 12.6408 0.502103C12.3193 0.180612 11.8833 0 11.4286 0V0Z" fill="#000"/>
</svg>
