<svg width="24" height="13" viewBox="0 0 24 13" fill="none" xmlns="http://www.w3.org/2000/svg">
<path d="M0 2C0 0.89543 0.895431 0 2 0H13C14.1046 0 15 0.895431 15 2V11C15 12.1046 14.1046 13 13 13H2C0.89543 13 0 12.1046 0 11V2Z" fill="#000"/>
<path d="M23.263 0.575004C23.1904 0.530086 23.1076 0.504482 23.0224 0.500632C22.9371 0.496781 22.8523 0.51481 22.776 0.553004L16.776 3.553C16.6929 3.59465 16.6231 3.65862 16.5743 3.73776C16.5255 3.8169 16.4998 3.90806 16.5 4.001V9.001C16.5 9.09378 16.5258 9.18473 16.5746 9.26367C16.6233 9.34262 16.6931 9.40644 16.776 9.448L22.776 12.448C22.8522 12.4862 22.937 12.5043 23.0221 12.5005C23.1073 12.4967 23.1901 12.4712 23.2627 12.4264C23.3352 12.3816 23.3951 12.319 23.4367 12.2446C23.4782 12.1701 23.5 12.0863 23.5 12.001V1.001C23.5001 0.915675 23.4784 0.831731 23.4369 0.757164C23.3955 0.682597 23.3356 0.619888 23.263 0.575004Z" fill="#000"/>
</svg>
