<svg width="24" height="24" viewBox="0 0 24 24" fill="none" xmlns="http://www.w3.org/2000/svg">
<g clip-path="url(#clip0)">
<path d="M13.791 5.99001C13.8168 6.10719 13.8843 6.21098 13.981 6.28201C15.1452 7.0986 16.5382 7.52503 17.96 7.50001C18.271 7.49942 18.5815 7.47602 18.889 7.43001C18.9659 7.41852 19.0445 7.42514 19.1184 7.44934C19.1923 7.47354 19.2596 7.51466 19.3149 7.56942C19.3701 7.62418 19.4118 7.69107 19.4367 7.76478C19.4615 7.83849 19.4688 7.91698 19.458 7.99401C19.337 8.69225 18.9745 9.32577 18.4338 9.78385C17.8931 10.2419 17.2086 10.4954 16.5 10.5C16.1094 10.4997 15.7227 10.4221 15.3623 10.2716C15.0019 10.121 14.6748 9.90061 14.4 9.62301C14.3411 9.56372 14.2682 9.52016 14.1881 9.49631C14.1079 9.47246 14.0231 9.46909 13.9413 9.4865C13.8595 9.50391 13.7834 9.54154 13.72 9.59596C13.6565 9.65039 13.6077 9.71985 13.578 9.79801C13.4614 10.104 13.322 10.4009 13.161 10.686C13.1039 10.7872 13.0838 10.9052 13.1043 11.0197C13.1247 11.1341 13.1844 11.2378 13.273 11.313C14.0013 11.9319 14.8918 12.329 15.8389 12.4574C16.786 12.5858 17.75 12.4401 18.6168 12.0375C19.4836 11.6349 20.2169 10.9923 20.7297 10.1858C21.2426 9.37929 21.5136 8.4427 21.5106 7.48696C21.5075 6.53122 21.2307 5.59636 20.7127 4.79312C20.1948 3.98989 19.4575 3.35192 18.5881 2.9548C17.7188 2.55768 16.7538 2.41804 15.8076 2.55242C14.8613 2.68679 13.9734 3.08956 13.249 3.71301C13.1604 3.78921 13.1012 3.89406 13.0819 4.00934C13.0625 4.12461 13.0841 4.24303 13.143 4.34401C13.4535 4.8506 13.6729 5.40769 13.791 5.99001Z" fill="#000"/>
<path d="M16.4999 13.5C15.6915 13.5003 14.8885 13.633 14.1229 13.893C14.0427 13.9198 13.9705 13.9665 13.9132 14.0288C13.8559 14.0911 13.8154 14.167 13.7954 14.2492C13.7754 14.3314 13.7766 14.4174 13.7989 14.4991C13.8212 14.5807 13.8639 14.6553 13.9229 14.716C15.5736 16.3911 16.4992 18.6483 16.4999 21V21.024C16.499 21.0862 16.5105 21.1479 16.5336 21.2056C16.5568 21.2633 16.5912 21.3159 16.6348 21.3602C16.6784 21.4045 16.7305 21.4396 16.7878 21.4636C16.8452 21.4876 16.9068 21.5 16.9689 21.5H23.4999C23.6325 21.5 23.7597 21.4473 23.8535 21.3536C23.9473 21.2598 23.9999 21.1326 23.9999 21C23.9978 19.0115 23.207 17.1051 21.8009 15.699C20.3948 14.293 18.4884 13.5021 16.4999 13.5Z" fill="#000"/>
<path d="M12.5 7.5C12.5 6.5111 12.2068 5.5444 11.6573 4.72215C11.1079 3.89991 10.327 3.25904 9.41342 2.8806C8.49979 2.50217 7.49446 2.40315 6.52455 2.59608C5.55465 2.789 4.66373 3.26521 3.96447 3.96447C3.26521 4.66373 2.789 5.55465 2.59608 6.52455C2.40315 7.49446 2.50217 8.49979 2.8806 9.41342C3.25904 10.327 3.89991 11.1079 4.72215 11.6573C5.5444 12.2068 6.5111 12.5 7.5 12.5C8.8256 12.4984 10.0964 11.9711 11.0338 11.0338C11.9711 10.0964 12.4984 8.8256 12.5 7.5ZM4.6 6.757C4.61992 6.68206 4.65699 6.61278 4.70829 6.55464C4.7596 6.49649 4.82372 6.45107 4.89559 6.42197C4.96747 6.39287 5.04512 6.38089 5.12243 6.38697C5.19973 6.39305 5.27456 6.41703 5.341 6.457C6.42853 7.13071 7.68073 7.49159 8.96 7.5C9.27096 7.49941 9.58146 7.47602 9.889 7.43C9.96594 7.41851 10.0445 7.42513 10.1184 7.44933C10.1923 7.47353 10.2596 7.51465 10.3148 7.56941C10.3701 7.62417 10.4118 7.69106 10.4366 7.76477C10.4615 7.83848 10.4688 7.91697 10.458 7.994C10.3327 8.73515 9.93369 9.40224 9.34001 9.86327C8.74632 10.3243 8.0012 10.5457 7.25211 10.4835C6.50301 10.4214 5.80452 10.0804 5.29487 9.52787C4.78522 8.97536 4.50156 8.25167 4.5 7.5C4.50037 7.24901 4.53399 6.99916 4.6 6.757Z" fill="#000"/>
<path d="M15 21C15 19.0109 14.2098 17.1032 12.8033 15.6967C11.3968 14.2902 9.48912 13.5 7.5 13.5C5.51088 13.5 3.60322 14.2902 2.1967 15.6967C0.790176 17.1032 0 19.0109 0 21C0 21.1326 0.0526784 21.2598 0.146447 21.3536C0.240215 21.4473 0.367392 21.5 0.5 21.5H14.5C14.6326 21.5 14.7598 21.4473 14.8536 21.3536C14.9473 21.2598 15 21.1326 15 21Z" fill="#000"/>
</g>
<defs>
<clipPath id="clip0">
<rect width="24" height="24" fill="#f00"/>
</clipPath>
</defs>
</svg>
