<svg width="24" height="24" viewBox="0 0 24 24" fill="none" xmlns="http://www.w3.org/2000/svg">
<g clip-path="url(#clip0)">
<path d="M13.7501 7.75C13.7502 8.71872 13.5231 9.67397 13.0871 10.539C13.0405 10.6337 13.0251 10.7407 13.0431 10.8447C13.061 10.9487 13.1114 11.0444 13.1871 11.118C14.0651 11.9989 15.2564 12.4958 16.5001 12.5C17.7599 12.5 18.968 11.9996 19.8588 11.1088C20.7496 10.218 21.2501 9.00978 21.2501 7.75C21.2501 6.49022 20.7496 5.28204 19.8588 4.39124C18.968 3.50045 17.7599 3 16.5001 3C15.2547 3.00286 14.0613 3.49992 13.1821 4.382C13.1064 4.4556 13.056 4.55126 13.0381 4.65526C13.0201 4.75927 13.0355 4.86629 13.0821 4.961C13.5199 5.82561 13.7487 6.78088 13.7501 7.75Z" fill="#000"/>
<path d="M16.4999 13C15.6915 13.0003 14.8885 13.133 14.1229 13.393C14.0427 13.4198 13.9705 13.4665 13.9132 13.5288C13.8559 13.5911 13.8154 13.667 13.7954 13.7492C13.7754 13.8314 13.7766 13.9174 13.7989 13.9991C13.8212 14.0807 13.8639 14.1553 13.9229 14.216C15.5736 15.8911 16.4992 18.1483 16.4999 20.5C16.4999 20.6326 16.5526 20.7598 16.6464 20.8536C16.7401 20.9473 16.8673 21 16.9999 21H23.4999C23.6325 21 23.7597 20.9473 23.8535 20.8536C23.9473 20.7598 23.9999 20.6326 23.9999 20.5C23.9978 18.5115 23.207 16.6051 21.8009 15.199C20.3948 13.793 18.4884 13.0021 16.4999 13Z" fill="#000"/>
<path d="M2.75 7.75C2.75 9.00978 3.25045 10.218 4.14124 11.1088C5.03204 11.9996 6.24022 12.5 7.5 12.5C8.75978 12.5 9.96796 11.9996 10.8588 11.1088C11.7496 10.218 12.25 9.00978 12.25 7.75C12.25 6.49022 11.7496 5.28204 10.8588 4.39124C9.96796 3.50045 8.75978 3 7.5 3C6.24022 3 5.03204 3.50045 4.14124 4.39124C3.25045 5.28204 2.75 6.49022 2.75 7.75Z" fill="#000"/>
<path d="M15 20.5C15 18.5109 14.2098 16.6032 12.8033 15.1967C11.3968 13.7902 9.48912 13 7.5 13C5.51088 13 3.60322 13.7902 2.1967 15.1967C0.790176 16.6032 0 18.5109 0 20.5C0 20.6326 0.0526784 20.7598 0.146447 20.8536C0.240215 20.9473 0.367392 21 0.5 21H14.5C14.6326 21 14.7598 20.9473 14.8536 20.8536C14.9473 20.7598 15 20.6326 15 20.5Z" fill="#000"/>
</g>
<defs>
<clipPath id="clip0">
<rect width="24" height="24" fill="white"/>
</clipPath>
</defs>
</svg>
