<svg width="14" height="16" viewBox="0 0 14 16" fill="none" xmlns="http://www.w3.org/2000/svg">
<path d="M3.66675 8.476L3.66675 10.19C3.66675 10.3037 3.71191 10.4127 3.7923 10.4931C3.87269 10.5735 3.98173 10.6187 4.09541 10.6187H5.38141C5.46982 10.6187 5.5546 10.6538 5.61712 10.7163C5.67963 10.7788 5.71475 10.8636 5.71475 10.952V12.238C5.71466 12.2942 5.72567 12.3499 5.74715 12.4019C5.76863 12.4539 5.80015 12.5011 5.83991 12.5408C5.87967 12.5806 5.92689 12.6121 5.97886 12.6336C6.03082 12.6551 6.08652 12.6661 6.14275 12.666H7.85741C7.91368 12.6661 7.9694 12.6551 8.02141 12.6336C8.07341 12.6121 8.12067 12.5806 8.16049 12.5409C8.2003 12.5011 8.23189 12.4539 8.25344 12.4019C8.27499 12.35 8.28608 12.2943 8.28608 12.238V10.952C8.28608 10.8636 8.3212 10.7788 8.38371 10.7163C8.44622 10.6538 8.53101 10.6187 8.61941 10.6187H9.90475C10.0184 10.6187 10.1275 10.5735 10.2079 10.4931C10.2883 10.4127 10.3334 10.3037 10.3334 10.19V8.476C10.3334 8.41971 10.3223 8.36396 10.3008 8.31196C10.2792 8.25995 10.2477 8.21269 10.2079 8.17289C10.1681 8.13308 10.1208 8.10151 10.0688 8.07996C10.0168 8.05842 9.96104 8.04733 9.90475 8.04733H8.61941C8.53101 8.04733 8.44622 8.01221 8.38371 7.9497C8.3212 7.88719 8.28608 7.80241 8.28608 7.714V6.428C8.2859 6.31443 8.24066 6.20556 8.16029 6.12532C8.07992 6.04507 7.97099 6 7.85741 6H6.14275C6.08649 6 6.03078 6.01109 5.97881 6.03264C5.92683 6.05419 5.87962 6.08578 5.83987 6.12559C5.80012 6.16541 5.76861 6.21267 5.74714 6.26467C5.72567 6.31668 5.71466 6.3724 5.71475 6.42867V7.71467C5.71475 7.80307 5.67963 7.88786 5.61712 7.95037C5.5546 8.01288 5.46982 8.048 5.38141 8.048H4.09541C3.98184 8.048 3.87291 8.09307 3.79254 8.17332C3.71217 8.25356 3.66692 8.36243 3.66675 8.476Z" fill="#000"/>
<path d="M12.0001 2L10.1667 2C10.1225 2 10.0802 2.01756 10.0489 2.04882C10.0176 2.08007 10.0001 2.12246 10.0001 2.16667V3.16667C9.99999 3.18858 10.0042 3.21029 10.0126 3.23055C10.0209 3.25081 10.0332 3.26922 10.0487 3.28471C10.0642 3.30021 10.0826 3.31248 10.1029 3.32083C10.1231 3.32917 10.1448 3.33342 10.1667 3.33333H11.6667C11.7552 3.33333 11.8399 3.36845 11.9025 3.43096C11.965 3.49348 12.0001 3.57826 12.0001 3.66667L12.0001 14.3333C12.0001 14.4217 11.965 14.5065 11.9025 14.569C11.8399 14.6315 11.7552 14.6667 11.6667 14.6667L2.33341 14.6667C2.24501 14.6667 2.16022 14.6315 2.09771 14.569C2.0352 14.5065 2.00008 14.4217 2.00008 14.3333L2.00008 3.66667C2.00008 3.57826 2.0352 3.49348 2.09771 3.43096C2.16022 3.36845 2.24501 3.33333 2.33341 3.33333L3.83341 3.33333C3.85533 3.33342 3.87704 3.32917 3.8973 3.32083C3.91756 3.31248 3.93597 3.30021 3.95146 3.28471C3.96696 3.26922 3.97923 3.25081 3.98757 3.23055C3.99592 3.21029 4.00017 3.18858 4.00008 3.16667V2.16667C4.00008 2.12246 3.98252 2.08007 3.95127 2.04882C3.92001 2.01756 3.87762 2 3.83341 2L2.00008 2C1.64646 2 1.30732 2.14048 1.05727 2.39052C0.807224 2.64057 0.666748 2.97971 0.666748 3.33333L0.666748 14.6667C0.666748 15.0203 0.807224 15.3594 1.05727 15.6095C1.30732 15.8595 1.64646 16 2.00008 16L12.0001 16C12.3537 16 12.6928 15.8595 12.9429 15.6095C13.1929 15.3594 13.3334 15.0203 13.3334 14.6667L13.3334 3.33333C13.3334 2.97971 13.1929 2.64057 12.9429 2.39052C12.6928 2.14048 12.3537 2 12.0001 2Z" fill="#000"/>
<path d="M5.66677 4.33353L8.33343 4.33353C8.51024 4.33353 8.67981 4.26329 8.80484 4.13827C8.92986 4.01324 9.0001 3.84367 9.0001 3.66686V2.00019C8.99928 1.69177 8.92736 1.38769 8.78991 1.11158C8.65247 0.835469 8.45321 0.594772 8.20762 0.408192C7.96203 0.221613 7.67672 0.0941763 7.37387 0.035787C7.07102 -0.0226024 6.75879 -0.010372 6.46143 0.0715276C6.03359 0.196411 5.65872 0.458582 5.39463 0.817609C5.13054 1.17664 4.9919 1.61257 5.0001 2.05819L5.0001 3.66686C5.0001 3.84367 5.07034 4.01324 5.19536 4.13827C5.32039 4.26329 5.48996 4.33353 5.66677 4.33353ZM7.0001 1.33353C7.09899 1.33353 7.19566 1.36285 7.27788 1.41779C7.36011 1.47273 7.4242 1.55082 7.46204 1.64219C7.49988 1.73355 7.50978 1.83408 7.49049 1.93107C7.4712 2.02806 7.42358 2.11715 7.35365 2.18708C7.28373 2.25701 7.19464 2.30463 7.09764 2.32392C7.00065 2.34321 6.90012 2.33331 6.80876 2.29547C6.7174 2.25762 6.63931 2.19354 6.58436 2.11131C6.52942 2.02909 6.5001 1.93242 6.5001 1.83353C6.5001 1.70092 6.55278 1.57374 6.64655 1.47997C6.74031 1.38621 6.86749 1.33353 7.0001 1.33353Z" fill="#000"/>
</svg>
