<svg width="16" height="16" viewBox="0 0 16 16" fill="none" xmlns="http://www.w3.org/2000/svg">
<path d="M15.8487 10.8198L13.7087 7.1265C13.6181 6.98539 13.4936 6.86931 13.3464 6.78893C13.1993 6.70855 13.0343 6.66645 12.8667 6.6665H11.0133C10.9551 6.66649 10.8978 6.68174 10.8473 6.71075C10.7967 6.73976 10.7547 6.78151 10.7253 6.83184L9.49532 8.93984L9.24865 9.3665C9.0142 9.73837 8.66916 10.0275 8.26199 10.1932C8.03124 10.2869 7.78436 10.3344 7.53532 10.3332H5.95465C5.89614 10.3332 5.83866 10.3486 5.78799 10.3778C5.73732 10.4071 5.69524 10.4492 5.66599 10.4998L5.48865 10.8065C5.38796 10.9659 5.33396 11.1503 5.33278 11.3389C5.33161 11.5274 5.38329 11.7125 5.48199 11.8732L7.62199 15.5398C7.71184 15.6811 7.83598 15.7974 7.98284 15.8778C8.12971 15.9583 8.29454 16.0002 8.46199 15.9998H12.8667C13.0363 15.9993 13.2031 15.9555 13.3512 15.8727C13.4993 15.7899 13.6239 15.6708 13.7133 15.5265L15.84 11.8865C15.941 11.7273 15.9953 11.543 15.9969 11.3544C15.9984 11.1659 15.947 10.9807 15.8487 10.8198ZM10.662 9.33317C11.0575 9.33317 11.4442 9.45047 11.7731 9.67023C12.102 9.88999 12.3584 10.2024 12.5097 10.5678C12.6611 10.9333 12.7007 11.3354 12.6236 11.7234C12.5464 12.1113 12.3559 12.4677 12.0762 12.7474C11.7965 13.0271 11.4401 13.2176 11.0522 13.2947C10.6642 13.3719 10.2621 13.3323 9.89662 13.1809C9.53117 13.0296 9.21881 12.7732 8.99905 12.4443C8.77929 12.1154 8.66199 11.7287 8.66199 11.3332C8.66199 10.8027 8.8727 10.294 9.24777 9.91896C9.62285 9.54388 10.1316 9.33317 10.662 9.33317Z" fill="#0066FF"/>
<path d="M10.5181 4.15333L8.37809 0.46C8.28773 0.319173 8.16349 0.203268 8.01674 0.122902C7.86998 0.0425365 7.70541 0.000278738 7.53809 0L3.13342 0C2.96363 7.34693e-05 2.79668 0.0436102 2.64848 0.126464C2.50027 0.209319 2.37575 0.328732 2.28675 0.473333L0.158087 4.14C0.0573944 4.2994 0.00339535 4.48384 0.00221697 4.67238C0.0010386 4.86092 0.0527281 5.04602 0.151421 5.20667L2.29142 8.87333C2.38145 9.01492 2.50591 9.13137 2.65315 9.21182C2.8004 9.29226 2.96563 9.33407 3.13342 9.33333H7.54009C7.70978 9.33275 7.87654 9.289 8.02465 9.2062C8.17277 9.12339 8.29738 9.00425 8.38675 8.86L10.5134 5.22C10.6138 5.06041 10.6675 4.87587 10.6683 4.68733C10.6691 4.49879 10.6171 4.3138 10.5181 4.15333ZM5.33342 6.66667C4.93786 6.66667 4.55118 6.54937 4.22228 6.32961C3.89338 6.10984 3.63704 5.79749 3.48566 5.43203C3.33429 5.06658 3.29468 4.66445 3.37185 4.27649C3.44902 3.88852 3.6395 3.53216 3.91921 3.25245C4.19891 2.97275 4.55528 2.78227 4.94324 2.7051C5.3312 2.62793 5.73334 2.66753 6.09879 2.81891C6.46424 2.97028 6.7766 3.22663 6.99636 3.55553C7.21612 3.88442 7.33342 4.2711 7.33342 4.66667C7.33184 5.19661 7.12062 5.7044 6.74589 6.07913C6.37116 6.45386 5.86337 6.66508 5.33342 6.66667Z" fill="#0066FF"/>
</svg>
