<svg width="16" height="16" viewBox="0 0 16 16" fill="none" xmlns="http://www.w3.org/2000/svg">
<g clip-path="url(#clip0)">
<path d="M8 0C6.41775 0 4.87104 0.469192 3.55544 1.34824C2.23985 2.22729 1.21447 3.47672 0.608967 4.93853C0.00346629 6.40034 -0.15496 8.00887 0.153721 9.56072C0.462403 11.1126 1.22433 12.538 2.34315 13.6569C3.46197 14.7757 4.88743 15.5376 6.43928 15.8463C7.99113 16.155 9.59966 15.9965 11.0615 15.391C12.5233 14.7855 13.7727 13.7602 14.6518 12.4446C15.5308 11.129 16 9.58225 16 8C15.9977 5.87897 15.1541 3.84547 13.6543 2.34568C12.1545 0.845885 10.121 0.00229405 8 0V0ZM8 14.6667C6.68146 14.6667 5.39253 14.2757 4.2962 13.5431C3.19987 12.8106 2.34539 11.7694 1.84081 10.5512C1.33622 9.33305 1.2042 7.9926 1.46144 6.6994C1.71867 5.40619 2.35361 4.2183 3.28596 3.28595C4.21831 2.3536 5.4062 1.71867 6.6994 1.46143C7.99261 1.2042 9.33305 1.33622 10.5512 1.8408C11.7694 2.34539 12.8106 3.19987 13.5431 4.2962C14.2757 5.39253 14.6667 6.68146 14.6667 8C14.6647 9.76751 13.9617 11.4621 12.7119 12.7119C11.4621 13.9617 9.76752 14.6647 8 14.6667Z" fill="#000"/>
<path d="M6.05599 6.59999C6.1079 6.71892 6.19339 6.82013 6.30198 6.89118C6.41058 6.96223 6.53755 7.00005 6.66732 6.99999C6.75917 7.00041 6.85007 6.98132 6.93399 6.94399C7.09577 6.87307 7.2228 6.74085 7.28717 6.57635C7.35154 6.41186 7.348 6.22854 7.27732 6.06665C7.09575 5.65047 6.7967 5.2963 6.41681 5.04757C6.03693 4.79884 5.59272 4.66635 5.13865 4.66635C4.68459 4.66635 4.24038 4.79884 3.8605 5.04757C3.48061 5.2963 3.18156 5.65047 2.99999 6.06665C2.96177 6.14733 2.94014 6.23486 2.93638 6.32405C2.93263 6.41324 2.94682 6.50228 2.97813 6.58589C3.00944 6.66949 3.05722 6.74595 3.11863 6.81074C3.18005 6.87553 3.25385 6.92732 3.33566 6.96305C3.41748 6.99877 3.50563 7.0177 3.5949 7.01871C3.68416 7.01973 3.77272 7.0028 3.85532 6.96894C3.93793 6.93508 4.01288 6.88497 4.07576 6.82159C4.13863 6.75822 4.18813 6.68286 4.22132 6.59999C4.29902 6.42137 4.42719 6.26933 4.59009 6.16255C4.75299 6.05576 4.94354 5.99887 5.13832 5.99887C5.33311 5.99887 5.52365 6.05576 5.68655 6.16255C5.84945 6.26933 5.97762 6.42137 6.05532 6.59999H6.05599Z" fill="#000"/>
<path d="M13 6.06665C12.8184 5.65066 12.5193 5.29669 12.1395 5.0481C11.7597 4.79952 11.3156 4.66711 10.8617 4.66711C10.4078 4.66711 9.96371 4.79952 9.5839 5.0481C9.20409 5.29669 8.90504 5.65066 8.72338 6.06665C8.68515 6.14733 8.66352 6.23486 8.65977 6.32405C8.65601 6.41324 8.67021 6.50228 8.70152 6.58588C8.73283 6.66949 8.78061 6.74595 8.84202 6.81074C8.90344 6.87553 8.97724 6.92732 9.05905 6.96304C9.14087 6.99877 9.22902 7.0177 9.31828 7.01871C9.40755 7.01973 9.49611 7.0028 9.57871 6.96894C9.66131 6.93508 9.73627 6.88497 9.79914 6.82159C9.86201 6.75822 9.91151 6.68286 9.94471 6.59998C10.0224 6.42137 10.1506 6.26933 10.3135 6.16254C10.4764 6.05576 10.6669 5.99887 10.8617 5.99887C11.0565 5.99887 11.247 6.05576 11.4099 6.16254C11.5728 6.26933 11.701 6.42137 11.7787 6.59998C11.8306 6.71892 11.9161 6.82013 12.0247 6.89118C12.1333 6.96223 12.2603 7.00005 12.39 6.99998C12.4819 7.00041 12.5728 6.98132 12.6567 6.94399C12.8185 6.87307 12.9455 6.74085 13.0099 6.57635C13.0743 6.41186 13.0707 6.22854 13 6.06665Z" fill="#000"/>
<path d="M10.9947 9.42C10.8408 9.3331 10.6588 9.31083 10.4885 9.35808C10.3183 9.40534 10.1737 9.51824 10.0867 9.672C9.88899 10.0594 9.59124 10.3868 9.22432 10.6204C8.8574 10.8539 8.43468 10.985 8.00002 11C7.56535 10.985 7.14263 10.8539 6.77571 10.6204C6.40879 10.3868 6.11104 10.0594 5.91335 9.672C5.82334 9.52415 5.67935 9.4171 5.51183 9.3735C5.34432 9.32991 5.16641 9.35317 5.01574 9.43838C4.86507 9.52358 4.75345 9.66405 4.70448 9.83008C4.65551 9.9961 4.67304 10.1747 4.75335 10.328C5.06546 10.9223 5.53138 11.4219 6.10248 11.7746C6.67357 12.1274 7.32889 12.3203 8.00002 12.3333C8.67114 12.3203 9.32646 12.1274 9.89756 11.7746C10.4687 11.4219 10.9346 10.9223 11.2467 10.328C11.3336 10.1742 11.3559 9.9921 11.3086 9.82185C11.2613 9.65159 11.1484 9.50706 10.9947 9.42Z" fill="#000"/>
</g>
<defs>
<clipPath id="clip0">
<rect width="16" height="16" fill="white"/>
</clipPath>
</defs>
</svg>
