<svg width="16" height="16" viewBox="0 0 16 16" fill="none" xmlns="http://www.w3.org/2000/svg">
<g clip-path="url(#clip0)">
<path d="M1.00002 8.99999L6.66669 8.99999L6.66669 11.4667C6.66677 11.5922 6.70231 11.7152 6.76921 11.8215C6.83612 11.9277 6.93167 12.0129 7.04487 12.0673C7.15807 12.1216 7.28431 12.1428 7.40906 12.1286C7.53381 12.1143 7.652 12.0651 7.75002 11.9867L12.0834 8.51999C12.1613 8.45752 12.2243 8.37833 12.2675 8.28827C12.3108 8.1982 12.3333 8.09957 12.3333 7.99965C12.3333 7.89974 12.3108 7.8011 12.2675 7.71104C12.2243 7.62097 12.1613 7.54178 12.0834 7.47932L7.75002 4.01265C7.65123 3.93568 7.53312 3.88743 7.40869 3.87319C7.28426 3.85896 7.15831 3.87931 7.04469 3.93199C6.93141 3.9864 6.83582 4.07173 6.76894 4.17812C6.70206 4.28452 6.66661 4.40765 6.66669 4.53332L6.66669 6.99999L1.00002 6.99999C0.734807 6.99999 0.480453 7.10534 0.292917 7.29288C0.10538 7.48042 2.32727e-05 7.73477 2.32495e-05 7.99999C2.32263e-05 8.2652 0.10538 8.51956 0.292917 8.70709C0.480453 8.89463 0.734806 8.99999 1.00002 8.99999Z" fill="#000"/>
<path d="M1.03338 5.60865C1.19447 5.68122 1.37778 5.68687 1.54303 5.62437C1.70828 5.56187 1.84197 5.43632 1.91472 5.27532C2.53818 3.884 3.61971 2.74842 4.97898 2.05788C6.33826 1.36734 7.89316 1.16357 9.38447 1.48054C10.8758 1.7975 12.2134 2.61606 13.1743 3.79974C14.1352 4.98342 14.6614 6.46071 14.6651 7.98533C14.6688 9.50995 14.1498 10.9898 13.1947 12.1781C12.2395 13.3665 10.9059 14.1915 9.41617 14.5157C7.92642 14.8399 6.37055 14.6437 5.00793 13.9598C3.64531 13.2759 2.55828 12.1456 1.92805 10.7573C1.8923 10.6768 1.84095 10.6042 1.77698 10.5437C1.713 10.4831 1.63766 10.4359 1.55531 10.4046C1.47296 10.3734 1.38524 10.3587 1.2972 10.3616C1.20917 10.3644 1.12257 10.3847 1.04242 10.4212C0.962263 10.4577 0.890136 10.5098 0.830206 10.5743C0.770277 10.6389 0.723732 10.7146 0.693262 10.7973C0.662791 10.8799 0.648997 10.9678 0.65268 11.0558C0.656362 11.1438 0.677447 11.2302 0.714715 11.31C1.47154 12.9755 2.77636 14.3314 4.41167 15.1515C6.04698 15.9717 7.91398 16.2065 9.70147 15.817C11.489 15.4275 13.0889 14.437 14.2347 13.0108C15.3805 11.5846 16.0028 9.80881 15.998 7.97938C15.9932 6.14994 15.3615 4.37742 14.2082 2.95728C13.055 1.53713 11.4498 0.555154 9.66027 0.175038C7.87075 -0.205079 6.00501 0.0396262 4.37405 0.868363C2.74308 1.6971 1.44542 3.0598 0.697382 4.72932C0.625616 4.89052 0.620685 5.07359 0.683667 5.23842C0.746649 5.40325 0.872408 5.53639 1.03338 5.60865Z" fill="#000"/>
</g>
<defs>
<clipPath id="clip0">
<rect width="16" height="16" fill="white" transform="translate(16 16) rotate(-180)"/>
</clipPath>
</defs>
</svg>
