<svg width="16" height="14" viewBox="0 0 16 14" fill="none" xmlns="http://www.w3.org/2000/svg">
<path d="M16 3.2C16 3.02928 15.9664 2.86023 15.901 2.70251C15.8357 2.54479 15.74 2.40148 15.6192 2.28076C15.4985 2.16005 15.3552 2.06429 15.1975 1.99896C15.0398 1.93363 14.8707 1.9 14.7 1.9L8 1.9C7.93808 1.89994 7.8774 1.88262 7.82476 1.85001C7.77213 1.81739 7.72962 1.77076 7.702 1.71533L7.204 0.719334C7.09615 0.503127 6.93015 0.321274 6.72465 0.194205C6.51914 0.0671352 6.28228 -0.000117935 6.04067 1.55248e-07L1.3 1.55248e-07C0.955219 1.55248e-07 0.624559 0.136964 0.380761 0.380761C0.136964 0.624559 0 0.955219 0 1.3L0 12.7C0 13.0448 0.136964 13.3754 0.380761 13.6192C0.624559 13.863 0.955219 14 1.3 14L14.7 14C15.0448 14 15.3754 13.863 15.6192 13.6192C15.863 13.3754 16 13.0448 16 12.7L16 3.2ZM14.6987 12.3333C14.6987 12.4217 14.6635 12.5065 14.601 12.569C14.5385 12.6315 14.4537 12.6667 14.3653 12.6667L1.66667 12.6993C1.57826 12.6993 1.49348 12.6642 1.43096 12.6017C1.36845 12.5392 1.33333 12.4544 1.33333 12.366L1.30133 1.66667C1.30133 1.57826 1.33645 1.49348 1.39896 1.43096C1.46148 1.36845 1.54626 1.33333 1.63467 1.33333L5.80533 1.31667C5.86748 1.31648 5.92844 1.33368 5.98134 1.36631C6.03423 1.39894 6.07695 1.44571 6.10467 1.50133L6.612 2.51667C6.71958 2.73246 6.88532 2.91391 7.09051 3.04054C7.29571 3.16717 7.53221 3.23394 7.77333 3.23333L14.3333 3.2C14.4217 3.2 14.5065 3.23512 14.569 3.29763C14.6315 3.36014 14.6667 3.44493 14.6667 3.53333L14.6987 12.3333Z" fill="#54C1FB"/>
<path d="M4.53271 4.99984C4.53271 5.17493 4.5672 5.34831 4.63421 5.51008C4.70122 5.67185 4.79943 5.81883 4.92324 5.94265C5.04705 6.06646 5.19404 6.16467 5.3558 6.23168C5.51757 6.29868 5.69095 6.33317 5.86605 6.33317C6.04114 6.33317 6.21453 6.29868 6.37629 6.23168C6.53806 6.16467 6.68505 6.06646 6.80886 5.94265C6.93267 5.81883 7.03088 5.67185 7.09789 5.51008C7.16489 5.34831 7.19938 5.17493 7.19938 4.99984C7.19938 4.82474 7.16489 4.65136 7.09789 4.48959C7.03088 4.32783 6.93267 4.18084 6.80886 4.05703C6.68505 3.93322 6.53806 3.835 6.37629 3.768C6.21453 3.70099 6.04114 3.6665 5.86605 3.6665C5.69095 3.6665 5.51757 3.70099 5.3558 3.768C5.19404 3.835 5.04705 3.93322 4.92324 4.05703C4.79943 4.18084 4.70122 4.32783 4.63421 4.48959C4.5672 4.65136 4.53271 4.82474 4.53271 4.99984Z" fill="#54C1FB"/>
<path d="M9.48196 6.78557C9.452 6.73763 9.41034 6.6981 9.36089 6.67069C9.31144 6.64329 9.25583 6.62891 9.1993 6.62891C9.14276 6.62891 9.08716 6.64329 9.03771 6.67069C8.98826 6.6981 8.94659 6.73763 8.91663 6.78557L7.3333 9.66691C7.3182 9.69073 7.29733 9.71034 7.27262 9.72394C7.24791 9.73753 7.22017 9.74466 7.19196 9.74466C7.16376 9.74466 7.13602 9.73753 7.11131 9.72394C7.0866 9.71034 7.06573 9.69073 7.05063 9.66691L6.44063 8.45224C6.41067 8.4043 6.369 8.36477 6.31956 8.33736C6.27011 8.30995 6.2145 8.29557 6.15797 8.29557C6.10143 8.29557 6.04582 8.30995 5.99637 8.33736C5.94693 8.36477 5.90526 8.4043 5.8753 8.45224L4.0253 11.4116C4.00944 11.4368 4.00065 11.4658 3.99982 11.4956C3.99899 11.5254 4.00617 11.5549 4.0206 11.581C4.03504 11.607 4.0562 11.6288 4.08188 11.6439C4.10756 11.659 4.13683 11.6669 4.16663 11.6669H12.2333C12.2631 11.6669 12.2924 11.659 12.318 11.6439C12.3437 11.6288 12.3649 11.607 12.3793 11.581C12.3938 11.5549 12.4009 11.5254 12.4001 11.4956C12.3993 11.4658 12.3905 11.4368 12.3746 11.4116L9.48196 6.78557Z" fill="#54C1FB"/>
</svg>
