<svg width="16" height="16" viewBox="0 0 16 16" fill="none" xmlns="http://www.w3.org/2000/svg">
<g clip-path="url(#clip0)">
<path d="M10.5778 6.97257C10.6301 6.94999 10.6757 6.9144 10.7103 6.86919C10.7449 6.82398 10.7674 6.77065 10.7755 6.7143C10.7837 6.65795 10.7773 6.60044 10.7569 6.54727C10.7365 6.4941 10.7029 6.44704 10.6591 6.41057C10.3667 6.16683 10.0418 5.9649 9.6938 5.81057C9.66617 5.79864 9.64231 5.77942 9.62476 5.75497C9.60721 5.73052 9.59664 5.70177 9.59417 5.67177C9.59171 5.64178 9.59744 5.61168 9.61076 5.58469C9.62408 5.55771 9.64449 5.53485 9.6698 5.51857C10.2145 5.16495 10.6303 4.64469 10.8552 4.03541C11.0801 3.42613 11.1019 2.76048 10.9175 2.13776C10.7331 1.51503 10.3523 0.968616 9.83199 0.580012C9.31163 0.191408 8.67958 -0.0185547 8.03013 -0.0185547C7.38068 -0.0185547 6.74863 0.191408 6.22828 0.580012C5.70792 0.968616 5.32714 1.51503 5.14273 2.13776C4.95833 2.76048 4.98019 3.42613 5.20506 4.03541C5.42992 4.64469 5.84573 5.16495 6.39047 5.51857C6.4156 5.53494 6.43585 5.55779 6.44909 5.5847C6.46232 5.61162 6.46804 5.64161 6.46566 5.67151C6.46327 5.70141 6.45285 5.73011 6.43551 5.75459C6.41817 5.77906 6.39455 5.7984 6.36713 5.81057C6.01067 5.96802 5.67844 6.17543 5.38047 6.42657C5.33732 6.46303 5.30414 6.50985 5.28405 6.56264C5.26397 6.61543 5.25762 6.67247 5.26562 6.72838C5.27362 6.7843 5.29569 6.83727 5.32978 6.88231C5.36386 6.92736 5.40883 6.963 5.46047 6.9859C6.07698 7.26153 6.61433 7.6877 7.02313 8.22524C7.05418 8.26664 7.09444 8.30024 7.14073 8.32338C7.18701 8.34652 7.23805 8.35857 7.2898 8.35857H8.71247C8.76421 8.35857 8.81525 8.34652 8.86154 8.32338C8.90782 8.30024 8.94808 8.26664 8.97913 8.22524C9.39628 7.67798 9.94666 7.24672 10.5778 6.97257ZM6.44913 2.46657C6.45763 2.44287 6.47138 2.4214 6.48936 2.40378C6.50734 2.38615 6.52908 2.37283 6.55294 2.36481C6.57681 2.35679 6.60218 2.35429 6.62715 2.35748C6.65212 2.36067 6.67605 2.36947 6.69713 2.38324C7.32601 2.7937 8.06082 3.01215 8.8118 3.0119C9.04357 3.01079 9.27476 2.98848 9.50247 2.94524C9.52718 2.94068 9.5526 2.94178 9.57683 2.94844C9.60106 2.9551 9.62347 2.96715 9.64238 2.98369C9.6613 3.00023 9.67623 3.02084 9.68605 3.04396C9.69588 3.06709 9.70035 3.09214 9.69913 3.11724C9.67473 3.55381 9.48055 3.96353 9.15808 4.25884C8.83561 4.55414 8.41043 4.71162 7.97339 4.6976C7.53636 4.68358 7.12214 4.49919 6.81926 4.18383C6.51637 3.86847 6.34884 3.44715 6.35247 3.0099C6.35311 2.82457 6.38581 2.64075 6.44913 2.46657Z" fill="#000"/>
<path d="M6.84457 10.6518C6.84734 10.1292 6.71405 9.61485 6.4578 9.15936C6.20155 8.70386 5.83116 8.3229 5.38306 8.05392C4.93495 7.78495 4.42456 7.63724 3.90207 7.6253C3.37957 7.61336 2.86297 7.73761 2.40304 7.98583C1.94312 8.23406 1.55572 8.5977 1.27893 9.04102C1.00214 9.48434 0.845499 9.99206 0.824399 10.5143C0.803298 11.0365 0.918469 11.5552 1.15859 12.0194C1.39871 12.4836 1.75551 12.8773 2.1939 13.1618C2.21884 13.1783 2.23891 13.2012 2.252 13.2281C2.2651 13.255 2.27075 13.2849 2.26837 13.3147C2.26599 13.3445 2.25566 13.3732 2.23846 13.3976C2.22126 13.4221 2.19781 13.4415 2.17057 13.4538C1.91537 13.5664 1.67251 13.7052 1.4459 13.8678C0.931942 14.2327 0.509183 14.7114 0.210568 15.2665C0.170221 15.3425 0.150225 15.4277 0.152521 15.5138C0.154818 15.5999 0.179329 15.6839 0.223674 15.7577C0.268019 15.8315 0.330693 15.8926 0.405609 15.935C0.480525 15.9774 0.565138 15.9997 0.651234 15.9998L7.01523 15.9998C7.10133 15.9997 7.18594 15.9774 7.26086 15.935C7.33578 15.8926 7.39845 15.8315 7.44279 15.7577C7.48714 15.6839 7.51165 15.5999 7.51395 15.5138C7.51624 15.4277 7.49625 15.3425 7.4559 15.2665C7.15745 14.7109 6.73468 14.2318 6.22057 13.8665C5.99396 13.7038 5.7511 13.5651 5.4959 13.4525C5.46849 13.4403 5.44486 13.421 5.42752 13.3965C5.41018 13.372 5.39977 13.3433 5.39738 13.3134C5.39499 13.2835 5.40071 13.2535 5.41395 13.2266C5.42718 13.1997 5.44743 13.1769 5.47257 13.1605C5.89234 12.8899 6.23776 12.5187 6.4774 12.0805C6.71703 11.6424 6.84325 11.1512 6.84457 10.6518ZM2.2519 10.1065C2.26039 10.0828 2.27415 10.0613 2.29213 10.0437C2.31011 10.0261 2.33184 10.0128 2.35571 10.0047C2.37957 9.99672 2.40495 9.99421 2.42992 9.9974C2.45489 10.0006 2.47882 10.0094 2.4999 10.0232C3.12878 10.4336 3.86359 10.6521 4.61457 10.6518C4.84634 10.6507 5.07753 10.6284 5.30523 10.5852C5.32998 10.5809 5.35536 10.5821 5.37957 10.5888C5.40378 10.5955 5.4262 10.6074 5.44523 10.6238C5.46411 10.6404 5.479 10.6609 5.48881 10.684C5.49862 10.7071 5.5031 10.7321 5.5019 10.7572C5.4775 11.1937 5.28332 11.6035 4.96085 11.8988C4.63838 12.1941 4.21319 12.3515 3.77616 12.3375C3.33913 12.3235 2.92491 12.1391 2.62202 11.8238C2.31914 11.5084 2.15161 11.0871 2.15523 10.6498C2.15588 10.4645 2.18858 10.2807 2.2519 10.1065Z" fill="#000"/>
<path d="M14.5538 13.8664C14.3272 13.7037 14.0844 13.565 13.8292 13.4524C13.8017 13.4402 13.7781 13.4209 13.7608 13.3964C13.7434 13.3719 13.733 13.3432 13.7306 13.3133C13.7282 13.2834 13.734 13.2534 13.7472 13.2265C13.7604 13.1996 13.7807 13.1768 13.8058 13.1604C14.3506 12.8068 14.7665 12.2866 14.9915 11.6773C15.2164 11.068 15.2383 10.4023 15.0539 9.77955C14.8696 9.15678 14.4888 8.61031 13.9684 8.22167C13.448 7.83303 12.816 7.62305 12.1665 7.62305C11.517 7.62305 10.8849 7.83303 10.3646 8.22167C9.84418 8.61031 9.4634 9.15678 9.27903 9.77955C9.09466 10.4023 9.11658 11.068 9.34151 11.6773C9.56645 12.2866 9.98234 12.8068 10.5272 13.1604C10.5521 13.1769 10.5722 13.1998 10.5853 13.2267C10.5984 13.2536 10.604 13.2835 10.6016 13.3133C10.5992 13.3431 10.5889 13.3717 10.5717 13.3962C10.5545 13.4206 10.5311 13.4401 10.5038 13.4524C10.2486 13.565 10.0058 13.7037 9.77915 13.8664C9.26504 14.2317 8.84227 14.7108 8.54382 15.2664C8.50347 15.3424 8.48348 15.4276 8.48577 15.5137C8.48807 15.5998 8.51258 15.6838 8.55693 15.7576C8.60127 15.8314 8.66394 15.8925 8.73886 15.9349C8.81378 15.9773 8.89839 15.9996 8.98449 15.9997L15.3485 15.9997C15.4346 15.9996 15.5192 15.9773 15.5941 15.9349C15.669 15.8925 15.7317 15.8314 15.776 15.7576C15.8204 15.6838 15.8449 15.5998 15.8472 15.5137C15.8495 15.4276 15.8295 15.3424 15.7892 15.2664C15.4907 14.7108 15.0679 14.2317 14.5538 13.8664ZM10.5852 10.1064C10.5936 10.0827 10.6074 10.0612 10.6254 10.0436C10.6434 10.026 10.6651 10.0126 10.689 10.0046C10.7128 9.99661 10.7382 9.9941 10.7632 9.99729C10.7881 10.0005 10.8121 10.0093 10.8332 10.0231C11.462 10.4335 12.1968 10.652 12.9478 10.6517C13.1796 10.6506 13.4108 10.6283 13.6385 10.5851C13.6632 10.5808 13.6886 10.582 13.7128 10.5887C13.737 10.5954 13.7595 10.6073 13.7785 10.6237C13.7974 10.6402 13.8123 10.6608 13.8221 10.6839C13.8319 10.707 13.8363 10.732 13.8352 10.7571C13.8108 11.1936 13.6166 11.6033 13.2941 11.8987C12.9716 12.194 12.5464 12.3514 12.1094 12.3374C11.6724 12.3234 11.2582 12.139 10.9553 11.8236C10.6524 11.5083 10.4849 11.087 10.4885 10.6497C10.4891 10.4644 10.5218 10.2806 10.5852 10.1064Z" fill="#000"/>
</g>
<defs>
<clipPath id="clip0">
<rect width="16" height="16" fill="white"/>
</clipPath>
</defs>
</svg>
