<svg width="16" height="16" viewBox="0 0 16 16" fill="none" xmlns="http://www.w3.org/2000/svg">
<path d="M14.2854 6.57086C14.0896 6.26764 13.9283 5.94339 13.8048 5.60419C13.8048 2.09686 10.5634 0.000193822 7.42878 0.000193822C6.54788 -0.00654862 5.67449 0.162684 4.85986 0.497965C4.04522 0.833246 3.30574 1.32782 2.68478 1.95269C2.06383 2.57756 1.5739 3.32013 1.24374 4.13686C0.913587 4.95358 0.749842 5.82801 0.762117 6.70886C0.762117 9.04219 1.60945 10.7915 3.28145 11.9175C3.32681 11.948 3.36397 11.9892 3.38967 12.0375C3.41536 12.0857 3.42879 12.1395 3.42878 12.1942V15.6669C3.42878 15.7553 3.4639 15.84 3.52641 15.9026C3.58893 15.9651 3.67371 16.0002 3.76212 16.0002H10.4288C10.5172 16.0002 10.602 15.9651 10.6645 15.9026C10.727 15.84 10.7621 15.7553 10.7621 15.6669V13.6669C10.7621 13.5785 10.7972 13.4937 10.8597 13.4312C10.9223 13.3686 11.007 13.3335 11.0954 13.3335H12.0954C12.5375 13.3335 12.9614 13.1579 13.274 12.8454C13.5865 12.5328 13.7621 12.1089 13.7621 11.6669V10.3442C13.7621 10.2558 13.7972 10.171 13.8597 10.1085C13.9223 10.046 14.007 10.0109 14.0954 10.0109C14.2201 10.0109 14.3474 10.0109 14.4634 10.0042C14.5898 9.99913 14.7133 9.96527 14.8246 9.90519C14.9358 9.84511 15.0319 9.7604 15.1054 9.65753C15.1997 9.51029 15.2441 9.33662 15.2321 9.16219V9.07019C15.2874 8.32619 14.7554 7.39419 14.2854 6.57086ZM7.50012 10.0082C7.35973 10.0074 7.22273 9.96505 7.10639 9.88649C6.99005 9.80792 6.89958 9.69665 6.84641 9.56673C6.79323 9.4368 6.77973 9.29404 6.8076 9.15645C6.83547 9.01886 6.90347 8.8926 7.00301 8.79361C7.10256 8.69462 7.22919 8.62734 7.36694 8.60024C7.50468 8.57314 7.64737 8.58744 7.77699 8.64135C7.90662 8.69525 8.01737 8.78634 8.09529 8.90312C8.1732 9.0199 8.21478 9.15714 8.21478 9.29753C8.21408 9.48648 8.13843 9.66744 8.00444 9.80068C7.87045 9.93392 7.68907 10.0085 7.50012 10.0082ZM7.88145 6.01219C7.88053 5.87062 7.92167 5.73197 7.99966 5.61381C8.07766 5.49566 8.18899 5.40333 8.31953 5.34855C8.45007 5.29376 8.59395 5.27898 8.7329 5.30608C8.87186 5.33318 8.99964 5.40094 9.10003 5.50076C9.20041 5.60059 9.26889 5.72798 9.29677 5.86679C9.32465 6.00559 9.31068 6.14954 9.25663 6.28039C9.20257 6.41124 9.11087 6.52309 8.99316 6.60174C8.87545 6.6804 8.73702 6.72232 8.59545 6.72219C8.40672 6.72237 8.22562 6.64775 8.09179 6.51468C7.95797 6.3816 7.88233 6.20092 7.88145 6.01219ZM9.69145 11.8335C9.55101 11.8329 9.41391 11.7906 9.29747 11.7121C9.18102 11.6336 9.09046 11.5223 9.0372 11.3924C8.98394 11.2624 8.97038 11.1196 8.99823 10.9819C9.02608 10.8443 9.09409 10.718 9.19368 10.6189C9.29327 10.5199 9.41996 10.4526 9.55777 10.4255C9.69558 10.3985 9.83832 10.4128 9.96797 10.4668C10.0976 10.5208 10.2084 10.612 10.2862 10.7289C10.3641 10.8458 10.4056 10.9831 10.4054 11.1235C10.4046 11.3123 10.3289 11.4929 10.1951 11.626C10.0613 11.7591 9.88018 11.8337 9.69145 11.8335ZM9.69145 8.91286C9.55112 8.9122 9.41413 8.87001 9.29774 8.79161C9.18136 8.71321 9.09079 8.60211 9.03745 8.47231C8.98412 8.34251 8.9704 8.19983 8.99804 8.06225C9.02567 7.92467 9.09342 7.79835 9.19274 7.69921C9.29206 7.60008 9.41851 7.53257 9.55614 7.50519C9.69377 7.47781 9.83643 7.4918 9.96613 7.54537C10.0958 7.59895 10.2068 7.68973 10.2849 7.80626C10.3631 7.92279 10.4051 8.05986 10.4054 8.20019C10.4054 8.29389 10.387 8.38668 10.3511 8.47323C10.3152 8.55978 10.2626 8.6384 10.1962 8.7046C10.1299 8.77079 10.0512 8.82326 9.96459 8.85899C9.87797 8.89473 9.78515 8.91304 9.69145 8.91286ZM10.4368 4.54353C10.4361 4.40204 10.4775 4.26354 10.5556 4.14558C10.6337 4.02761 10.7451 3.93549 10.8756 3.88089C11.0062 3.82629 11.15 3.81166 11.2888 3.83886C11.4277 3.86605 11.5553 3.93385 11.6556 4.03367C11.7559 4.13348 11.8243 4.26082 11.8521 4.39954C11.88 4.53826 11.866 4.68213 11.812 4.81291C11.758 4.94369 11.6664 5.05551 11.5488 5.13418C11.4312 5.21286 11.2929 5.25486 11.1514 5.25486C10.9624 5.25521 10.7809 5.18049 10.6469 5.04711C10.5129 4.91373 10.4373 4.7326 10.4368 4.54353ZM10.8021 7.09953C10.8013 6.95798 10.8426 6.81939 10.9207 6.70133C10.9987 6.58326 11.1101 6.49104 11.2407 6.43635C11.3712 6.38167 11.5151 6.36698 11.654 6.39416C11.7929 6.42133 11.9206 6.48915 12.0209 6.589C12.1213 6.68885 12.1897 6.81625 12.2175 6.95503C12.2453 7.09382 12.2313 7.23774 12.1772 7.36855C12.1232 7.49936 12.0315 7.61117 11.9138 7.68979C11.7961 7.76842 11.6577 7.81032 11.5161 7.81019C11.4224 7.81054 11.3296 7.79244 11.2429 7.75692C11.1563 7.72139 11.0774 7.66914 11.0109 7.60315C10.9444 7.53716 10.8916 7.45872 10.8554 7.37231C10.8193 7.28589 10.8005 7.1932 10.8001 7.09953H10.8021ZM11.8814 10.7335C11.741 10.7329 11.604 10.6906 11.4875 10.6121C11.3711 10.5337 11.2805 10.4224 11.2273 10.2925C11.174 10.1626 11.1604 10.0198 11.1882 9.88218C11.216 9.74455 11.2839 9.61823 11.3834 9.51918C11.483 9.42012 11.6096 9.35277 11.7474 9.32561C11.8851 9.29846 12.0278 9.31273 12.1575 9.36661C12.2872 9.4205 12.398 9.51159 12.4759 9.62838C12.5539 9.74518 12.5954 9.88245 12.5954 10.0229C12.5947 10.2117 12.5192 10.3926 12.3853 10.5258C12.2515 10.659 12.0703 10.7337 11.8814 10.7335Z" fill="#0066FF"/>
</svg>
