<svg width="24" height="24" viewBox="0 0 24 24" fill="none" xmlns="http://www.w3.org/2000/svg">
<path d="M12.707 0.293C12.5195 0.105529 12.2652 0.000213623 12 0.000213623C11.7349 0.000213623 11.4806 0.105529 11.293 0.293L0.293031 11.293C0.153222 11.4329 0.0580152 11.611 0.0194476 11.805C-0.0191199 11.9989 0.000683047 12.2 0.0763531 12.3827C0.152023 12.5654 0.280163 12.7215 0.444573 12.8314C0.608982 12.9413 0.802281 13 1.00003 13H2.25003C2.31634 13 2.37992 13.0263 2.42681 13.0732C2.47369 13.1201 2.50003 13.1837 2.50003 13.25V23C2.50003 23.2652 2.60539 23.5196 2.79292 23.7071C2.98046 23.8946 3.23481 24 3.50003 24H9.00003C9.26525 24 9.5196 23.8946 9.70714 23.7071C9.89467 23.5196 10 23.2652 10 23V18C10 17.4696 10.2107 16.9609 10.5858 16.5858C10.9609 16.2107 11.4696 16 12 16C12.5305 16 13.0392 16.2107 13.4142 16.5858C13.7893 16.9609 14 17.4696 14 18V23C14 23.2652 14.1054 23.5196 14.2929 23.7071C14.4805 23.8946 14.7348 24 15 24H20.5C20.7652 24 21.0196 23.8946 21.2071 23.7071C21.3947 23.5196 21.5 23.2652 21.5 23V13.25C21.5 13.1837 21.5264 13.1201 21.5733 13.0732C21.6201 13.0263 21.6837 13 21.75 13H23C23.1978 13 23.3911 12.9413 23.5555 12.8314C23.7199 12.7215 23.848 12.5654 23.9237 12.3827C23.9994 12.2 24.0192 11.9989 23.9806 11.805C23.942 11.611 23.8468 11.4329 23.707 11.293L12.707 0.293ZM20.245 10.659C20.2748 10.6888 20.2966 10.7256 20.3083 10.766C20.3201 10.8064 20.3214 10.8492 20.3123 10.8903C20.3031 10.9314 20.2837 10.9695 20.2558 11.0011C20.228 11.0327 20.1926 11.0567 20.153 11.071C19.9605 11.1379 19.7939 11.2635 19.6768 11.4302C19.5596 11.5969 19.4978 11.7962 19.5 12V21.75C19.5 21.8163 19.4737 21.8799 19.4268 21.9268C19.3799 21.9737 19.3163 22 19.25 22H16.25C16.1837 22 16.1201 21.9737 16.0733 21.9268C16.0264 21.8799 16 21.8163 16 21.75V18C16 16.9391 15.5786 15.9217 14.8285 15.1716C14.0783 14.4214 13.0609 14 12 14C10.9392 14 9.92175 14.4214 9.1716 15.1716C8.42146 15.9217 8.00003 16.9391 8.00003 18V21.75C8.00003 21.8163 7.97369 21.8799 7.92681 21.9268C7.87992 21.9737 7.81634 22 7.75003 22H4.75003C4.68373 22 4.62014 21.9737 4.57325 21.9268C4.52637 21.8799 4.50003 21.8163 4.50003 21.75V12C4.5026 11.7962 4.4409 11.5967 4.32368 11.43C4.20646 11.2632 4.03968 11.1376 3.84703 11.071C3.80742 11.0567 3.77205 11.0327 3.74421 11.0011C3.71637 10.9695 3.69697 10.9314 3.68779 10.8903C3.67861 10.8492 3.67997 10.8064 3.69172 10.766C3.70348 10.7256 3.72525 10.6888 3.75503 10.659L11.823 2.591C11.8463 2.56772 11.8738 2.54925 11.9042 2.53664C11.9346 2.52404 11.9671 2.51755 12 2.51755C12.0329 2.51755 12.0655 2.52404 12.0958 2.53664C12.1262 2.54925 12.1538 2.56772 12.177 2.591L20.245 10.659Z" fill="#000"/>
</svg>
