<svg width="16" height="16" viewBox="0 0 16 16" fill="none" xmlns="http://www.w3.org/2000/svg">
<g clip-path="url(#clip0)">
<path d="M9 11.6667C8.82319 11.6667 8.65362 11.7369 8.5286 11.8619C8.40357 11.987 8.33333 12.1565 8.33333 12.3333V14C8.33333 14.0884 8.29821 14.1732 8.2357 14.2357C8.17319 14.2982 8.08841 14.3333 8 14.3333H1.66667C1.57826 14.3333 1.49348 14.2982 1.43096 14.2357C1.36845 14.1732 1.33333 14.0884 1.33333 14V2.00001C1.33333 1.9116 1.36845 1.82682 1.43096 1.76431C1.49348 1.7018 1.57826 1.66668 1.66667 1.66668H8C8.08841 1.66668 8.17319 1.7018 8.2357 1.76431C8.29821 1.82682 8.33333 1.9116 8.33333 2.00001V3.66668C8.33333 3.84349 8.40357 4.01306 8.5286 4.13808C8.65362 4.26311 8.82319 4.33334 9 4.33334C9.17681 4.33334 9.34638 4.26311 9.47141 4.13808C9.59643 4.01306 9.66667 3.84349 9.66667 3.66668V1.66668C9.66667 1.31305 9.52619 0.973916 9.27614 0.723868C9.02609 0.473819 8.68696 0.333344 8.33333 0.333344H1.33333C0.979711 0.333344 0.640573 0.473819 0.390524 0.723868C0.140476 0.973916 0 1.31305 0 1.66668L0 14.3333C0 14.687 0.140476 15.0261 0.390524 15.2762C0.640573 15.5262 0.979711 15.6667 1.33333 15.6667H8.33333C8.68696 15.6667 9.02609 15.5262 9.27614 15.2762C9.52619 15.0261 9.66667 14.687 9.66667 14.3333V12.3333C9.66667 12.1565 9.59643 11.987 9.47141 11.8619C9.34638 11.7369 9.17681 11.6667 9 11.6667Z" fill="#000"/>
<path d="M15.7033 7.77935L11.7033 5.11268C11.6029 5.04573 11.4863 5.00726 11.3658 5.00137C11.2453 4.99549 11.1255 5.02241 11.0191 5.07927C10.9127 5.13613 10.8237 5.2208 10.7616 5.32425C10.6996 5.42769 10.6667 5.54604 10.6666 5.66668V7.33335H4.66663C4.5353 7.33335 4.40527 7.35921 4.28394 7.40947C4.16262 7.45972 4.05238 7.53338 3.95952 7.62624C3.86666 7.7191 3.793 7.82934 3.74275 7.95066C3.69249 8.07199 3.66663 8.20202 3.66663 8.33335C3.66663 8.46467 3.69249 8.5947 3.74275 8.71603C3.793 8.83736 3.86666 8.94759 3.95952 9.04045C4.05238 9.13331 4.16262 9.20697 4.28394 9.25723C4.40527 9.30748 4.5353 9.33335 4.66663 9.33335H10.6666V11C10.669 11.1761 10.7401 11.3442 10.8646 11.4687C10.9891 11.5933 11.1572 11.6643 11.3333 11.6667C11.465 11.6667 11.5937 11.6277 11.7033 11.5547L15.7033 8.88801C15.7946 8.82713 15.8695 8.74465 15.9212 8.64789C15.973 8.55113 16.0001 8.44309 16.0001 8.33335C16.0001 8.2236 15.973 8.11556 15.9212 8.0188C15.8695 7.92204 15.7946 7.83956 15.7033 7.77868V7.77935Z" fill="#000"/>
</g>
<defs>
<clipPath id="clip0">
<rect width="16" height="16" fill="white"/>
</clipPath>
</defs>
</svg>
