<svg width="16" height="16" viewBox="0 0 16 16" fill="none" xmlns="http://www.w3.org/2000/svg">
<g clip-path="url(#clip0)">
<path d="M16 4.2C16 4.02928 15.9664 3.86023 15.901 3.70251C15.8357 3.54479 15.74 3.40148 15.6192 3.28076C15.4985 3.16005 15.3552 3.06429 15.1975 2.99896C15.0398 2.93363 14.8707 2.9 14.7 2.9H8C7.93808 2.89994 7.8774 2.88262 7.82476 2.85001C7.77213 2.81739 7.72962 2.77076 7.702 2.71533L7.204 1.71933C7.09615 1.50313 6.93015 1.32127 6.72465 1.1942C6.51914 1.06714 6.28228 0.999882 6.04067 1H1.3C0.955219 1 0.624559 1.13696 0.380761 1.38076C0.136964 1.62456 0 1.95522 0 2.3L0 13.7C0 14.0448 0.136964 14.3754 0.380761 14.6192C0.624559 14.863 0.955219 15 1.3 15H14.7C15.0448 15 15.3754 14.863 15.6192 14.6192C15.863 14.3754 16 14.0448 16 13.7V4.2ZM14.6987 13.3333C14.6987 13.4217 14.6635 13.5065 14.601 13.569C14.5385 13.6315 14.4537 13.6667 14.3653 13.6667L1.66667 13.6993C1.57826 13.6993 1.49348 13.6642 1.43096 13.6017C1.36845 13.5392 1.33333 13.4544 1.33333 13.366L1.30133 2.66667C1.30133 2.57826 1.33645 2.49348 1.39896 2.43096C1.46148 2.36845 1.54626 2.33333 1.63467 2.33333L5.80533 2.31667C5.86748 2.31648 5.92844 2.33368 5.98134 2.36631C6.03423 2.39894 6.07695 2.44571 6.10467 2.50133L6.612 3.51667C6.71958 3.73246 6.88532 3.91391 7.09051 4.04054C7.29571 4.16717 7.53221 4.23394 7.77333 4.23333L14.3333 4.2C14.4217 4.2 14.5065 4.23512 14.569 4.29763C14.6315 4.36014 14.6667 4.44493 14.6667 4.53333L14.6987 13.3333Z" fill="#000"/>
<path d="M4.53265 5.99999C4.53265 6.17509 4.56714 6.34847 4.63415 6.51023C4.70115 6.672 4.79937 6.81899 4.92318 6.9428C5.04699 7.06661 5.19398 7.16482 5.35574 7.23183C5.51751 7.29884 5.69089 7.33332 5.86599 7.33332C6.04108 7.33332 6.21446 7.29884 6.37623 7.23183C6.538 7.16482 6.68499 7.06661 6.8088 6.9428C6.93261 6.81899 7.03082 6.672 7.09783 6.51023C7.16483 6.34847 7.19932 6.17509 7.19932 5.99999C7.19932 5.82489 7.16483 5.65151 7.09783 5.48975C7.03082 5.32798 6.93261 5.18099 6.8088 5.05718C6.68499 4.93337 6.538 4.83516 6.37623 4.76815C6.21446 4.70114 6.04108 4.66666 5.86599 4.66666C5.69089 4.66666 5.51751 4.70114 5.35574 4.76815C5.19398 4.83516 5.04699 4.93337 4.92318 5.05718C4.79937 5.18099 4.70115 5.32798 4.63415 5.48975C4.56714 5.65151 4.53265 5.82489 4.53265 5.99999Z" fill="#000"/>
<path d="M9.48203 7.78533C9.45206 7.73739 9.4104 7.69785 9.36095 7.67045C9.3115 7.64304 9.25589 7.62866 9.19936 7.62866C9.14282 7.62866 9.08722 7.64304 9.03777 7.67045C8.98832 7.69785 8.94666 7.73739 8.91669 7.78533L7.33336 10.6667C7.31826 10.6905 7.29739 10.7101 7.27268 10.7237C7.24797 10.7373 7.22023 10.7444 7.19203 10.7444C7.16383 10.7444 7.13608 10.7373 7.11137 10.7237C7.08666 10.7101 7.06579 10.6905 7.05069 10.6667L6.44069 9.452C6.41073 9.40406 6.36906 9.36452 6.31962 9.33712C6.27017 9.30971 6.21456 9.29533 6.15803 9.29533C6.10149 9.29533 6.04588 9.30971 5.99644 9.33712C5.94699 9.36452 5.90532 9.40406 5.87536 9.452L4.02536 12.4113C4.0095 12.4366 4.00071 12.4656 3.99988 12.4954C3.99906 12.5252 4.00623 12.5546 4.02066 12.5807C4.0351 12.6068 4.05626 12.6285 4.08194 12.6436C4.10762 12.6587 4.13689 12.6667 4.16669 12.6667H12.2334C12.2632 12.6667 12.2924 12.6587 12.3181 12.6436C12.3438 12.6285 12.365 12.6068 12.3794 12.5807C12.3938 12.5546 12.401 12.5252 12.4002 12.4954C12.3993 12.4656 12.3905 12.4366 12.3747 12.4113L9.48203 7.78533Z" fill="#000"/>
</g>
<defs>
<clipPath id="clip0">
<rect width="16" height="16" fill="white"/>
</clipPath>
</defs>
</svg>
