<svg width="24" height="24" viewBox="0 0 24 24" fill="none" xmlns="http://www.w3.org/2000/svg">
<g clip-path="url(#clip0)">
<path d="M21.89 2.11299C20.5367 0.761731 18.7025 0.0027771 16.79 0.0027771C14.8776 0.0027771 13.0434 0.761731 11.69 2.11299L2.12005 11.687C1.10565 12.6927 0.413332 13.9774 0.131149 15.3777C-0.151035 16.778 -0.0103247 18.2305 0.535379 19.5506C1.08108 20.8707 2.00712 21.9987 3.19568 22.791C4.38424 23.5833 5.78162 24.0041 7.21005 24C8.1563 24.0034 9.09383 23.8191 9.96838 23.4578C10.8429 23.0965 11.6371 22.5653 12.305 21.895L21.886 12.314C23.2341 10.959 23.9909 9.12536 23.9909 7.21399C23.9909 5.30261 23.2341 3.46898 21.886 2.11399L21.89 2.11299ZM20.476 10.9L16.75 14.622C16.6563 14.7157 16.5291 14.7684 16.3965 14.7684C16.264 14.7684 16.1368 14.7157 16.043 14.622L9.38205 7.96099C9.28831 7.86722 9.23565 7.74007 9.23565 7.60749C9.23565 7.4749 9.28831 7.34775 9.38205 7.25399L13.108 3.52699C13.8358 2.79606 14.7644 2.29806 15.7759 2.09629C16.7874 1.89453 17.836 1.99812 18.7885 2.3939C19.7409 2.78967 20.5542 3.45975 21.1248 4.31893C21.6954 5.17812 21.9976 6.18758 21.993 7.21899C21.9966 7.90245 21.8644 8.57981 21.6039 9.21172C21.3435 9.84363 20.9601 10.4175 20.476 10.9Z" fill="#000"/>
<path d="M16.634 3.15898C16.0934 3.1576 15.5578 3.26338 15.0584 3.47021C14.5589 3.67704 14.1053 3.98082 13.724 4.36398C13.5873 4.50537 13.5116 4.69479 13.5132 4.89144C13.5148 5.08809 13.5936 5.27623 13.7326 5.41535C13.8716 5.55448 14.0597 5.63344 14.2563 5.63524C14.453 5.63704 14.6425 5.56154 14.784 5.42498C15.2822 4.94892 15.9448 4.68326 16.634 4.68326C17.3231 4.68326 17.9857 4.94892 18.484 5.42498C18.5536 5.49465 18.6363 5.54991 18.7274 5.58762C18.8184 5.62532 18.9159 5.64472 19.0145 5.64472C19.113 5.64472 19.2105 5.62532 19.3016 5.58762C19.3926 5.54991 19.4753 5.49465 19.545 5.42498C19.6146 5.35532 19.6699 5.27261 19.7076 5.18159C19.7453 5.09056 19.7647 4.99301 19.7647 4.89448C19.7647 4.79596 19.7453 4.6984 19.7076 4.60738C19.6699 4.51636 19.6146 4.43365 19.545 4.36398C19.1635 3.98065 18.7098 3.67678 18.2101 3.46994C17.7105 3.26311 17.1748 3.15741 16.634 3.15898Z" fill="#000"/>
</g>
<defs>
<clipPath id="clip0">
<rect width="24" height="24" fill="white"/>
</clipPath>
</defs>
</svg>
