<svg width="16" height="16" viewBox="0 0 16 16" fill="none" xmlns="http://www.w3.org/2000/svg">
<path d="M8 10.6667C8.79538 10.6658 9.55793 10.3494 10.1203 9.78701C10.6828 9.2246 10.9991 8.46205 11 7.66667V3C11 2.20435 10.6839 1.44129 10.1213 0.87868C9.55871 0.316071 8.79565 0 8 0C7.20435 0 6.44129 0.316071 5.87868 0.87868C5.31607 1.44129 5 2.20435 5 3V7.66667C5.00088 8.46205 5.31724 9.2246 5.87965 9.78701C6.44207 10.3494 7.20462 10.6658 8 10.6667Z" fill="#000"/>
<path d="M12.6666 5.33334C12.4898 5.33334 12.3202 5.40358 12.1952 5.52861C12.0702 5.65363 12 5.8232 12 6.00001V7.66668C12 8.72754 11.5785 9.74496 10.8284 10.4951C10.0782 11.2452 9.06083 11.6667 7.99996 11.6667C6.93909 11.6667 5.92168 11.2452 5.17153 10.4951C4.42139 9.74496 3.99996 8.72754 3.99996 7.66668V6.00001C3.99996 5.8232 3.92972 5.65363 3.8047 5.52861C3.67967 5.40358 3.5101 5.33334 3.33329 5.33334C3.15648 5.33334 2.98691 5.40358 2.86189 5.52861C2.73686 5.65363 2.66663 5.8232 2.66663 6.00001V7.66668C2.66834 8.94069 3.12533 10.1721 3.95513 11.1389C4.78494 12.1056 5.93292 12.7439 7.19196 12.9387C7.2313 12.9447 7.26717 12.9647 7.2931 12.9949C7.31902 13.0251 7.33328 13.0635 7.33329 13.1033V15.3333C7.33329 15.5102 7.40353 15.6797 7.52855 15.8047C7.65358 15.9298 7.82315 16 7.99996 16C8.17677 16 8.34634 15.9298 8.47136 15.8047C8.59639 15.6797 8.66663 15.5102 8.66663 15.3333V13.1033C8.66664 13.0635 8.6809 13.0251 8.70682 12.9949C8.73275 12.9647 8.76862 12.9447 8.80796 12.9387C10.067 12.7439 11.215 12.1056 12.0448 11.1389C12.8746 10.1721 13.3316 8.94069 13.3333 7.66668V6.00001C13.3333 5.8232 13.2631 5.65363 13.138 5.52861C13.013 5.40358 12.8434 5.33334 12.6666 5.33334Z" fill="#000"/>
</svg>
