<svg width="24" height="24" viewBox="0 0 24 24" fill="none" xmlns="http://www.w3.org/2000/svg">
<path d="M24 1.5C24 1.10218 23.842 0.720644 23.5607 0.43934C23.2794 0.158035 22.8978 0 22.5 0L1.5 0C1.10218 0 0.720644 0.158035 0.43934 0.43934C0.158035 0.720644 0 1.10218 0 1.5L0 17.5C0 17.8978 0.158035 18.2794 0.43934 18.5607C0.720644 18.842 1.10218 19 1.5 19H22.5C22.8978 19 23.2794 18.842 23.5607 18.5607C23.842 18.2794 24 17.8978 24 17.5V1.5ZM2 2.5C2 2.36739 2.05268 2.24021 2.14645 2.14645C2.24021 2.05268 2.36739 2 2.5 2H21.5C21.6326 2 21.7598 2.05268 21.8536 2.14645C21.9473 2.24021 22 2.36739 22 2.5V7.822C22 7.95461 21.9473 8.08179 21.8536 8.17555C21.7598 8.26932 21.6326 8.322 21.5 8.322H18.671C18.5681 8.32216 18.4676 8.29056 18.3833 8.23149C18.299 8.17243 18.235 8.0888 18.2 7.992L16.924 4.466C16.8208 4.16171 16.6234 3.89815 16.3605 3.71346C16.0975 3.52876 15.7827 3.43252 15.4614 3.43864C15.1401 3.44476 14.8291 3.55294 14.5734 3.74752C14.3177 3.9421 14.1306 4.21299 14.039 4.521L12.51 9.845C12.4958 9.89482 12.4664 9.939 12.426 9.97142C12.3856 10.0038 12.3361 10.0229 12.2844 10.026C12.2327 10.0291 12.1813 10.016 12.1373 9.98858C12.0934 9.96117 12.059 9.92079 12.039 9.873L10.444 6.067C10.3432 5.79917 10.169 5.5652 9.9412 5.39197C9.71344 5.21874 9.44143 5.11327 9.15642 5.08768C8.87141 5.0621 8.58497 5.11743 8.32999 5.24732C8.07502 5.37722 7.86186 5.5764 7.715 5.822L6.126 8.108C6.07994 8.17405 6.01861 8.228 5.94723 8.26525C5.87585 8.30251 5.79652 8.32198 5.716 8.322H2.5C2.36739 8.322 2.24021 8.26932 2.14645 8.17555C2.05268 8.08179 2 7.95461 2 7.822V2.5ZM22 14.5C22 14.6326 21.9473 14.7598 21.8536 14.8536C21.7598 14.9473 21.6326 15 21.5 15H2.5C2.36739 15 2.24021 14.9473 2.14645 14.8536C2.05268 14.7598 2 14.6326 2 14.5V10.822C2 10.6894 2.05268 10.5622 2.14645 10.4684C2.24021 10.3747 2.36739 10.322 2.5 10.322H6.5C6.6613 10.322 6.82021 10.283 6.96317 10.2083C7.10613 10.1336 7.2289 10.0254 7.321 9.893L8.658 7.969C8.68379 7.9324 8.7189 7.90336 8.7597 7.88489C8.80049 7.86643 8.84548 7.85922 8.89 7.864C8.93385 7.86923 8.97551 7.88608 9.01067 7.9128C9.04583 7.93953 9.07322 7.97515 9.09 8.016L10.975 12.516C11.0817 12.8072 11.276 13.0582 11.5312 13.2344C11.7864 13.4106 12.0899 13.5034 12.4 13.5H12.472C12.7878 13.4918 13.0927 13.3824 13.3415 13.1877C13.5904 12.9931 13.77 12.7236 13.854 12.419L15.33 7.266C15.3447 7.21525 15.375 7.17044 15.4167 7.13794C15.4584 7.10544 15.5092 7.08691 15.562 7.085C15.6148 7.08303 15.6668 7.09798 15.7106 7.12766C15.7543 7.15734 15.7874 7.2002 15.805 7.25L16.547 9.3C16.6457 9.60124 16.838 9.86307 17.096 10.0473C17.354 10.2315 17.664 10.3284 17.981 10.324H21.5C21.6326 10.324 21.7598 10.3767 21.8536 10.4704C21.9473 10.5642 22 10.6914 22 10.824V14.5Z" fill="#000"/>
<path d="M14.35 20.681C14.3031 20.6244 14.2443 20.5788 14.1778 20.5475C14.1112 20.5162 14.0386 20.5 13.965 20.5H10.035C9.96151 20.5 9.88888 20.5162 9.82234 20.5475C9.75579 20.5788 9.69696 20.6244 9.65005 20.681L7.55005 23.213C7.4975 23.288 7.46654 23.3759 7.46055 23.4672C7.45455 23.5586 7.47375 23.6498 7.51604 23.731C7.55833 23.8122 7.6221 23.8802 7.7004 23.9276C7.77869 23.9751 7.8685 24.0001 7.96005 24H16.039C16.1306 24.0001 16.2204 23.9751 16.2987 23.9276C16.377 23.8802 16.4408 23.8122 16.4831 23.731C16.5253 23.6498 16.5445 23.5586 16.5385 23.4672C16.5325 23.3759 16.5016 23.288 16.449 23.213L14.35 20.681Z" fill="#000"/>
</svg>
