<svg width="16" height="16" viewBox="0 0 16 16" fill="none" xmlns="http://www.w3.org/2000/svg">
<path d="M12.3334 7.00016C12.3334 6.82335 12.2632 6.65378 12.1382 6.52876C12.0131 6.40373 11.8436 6.3335 11.6667 6.3335L4.33341 6.3335C4.1566 6.3335 3.98703 6.40373 3.86201 6.52876C3.73699 6.65378 3.66675 6.82335 3.66675 7.00016C3.66675 7.17697 3.73699 7.34654 3.86201 7.47157C3.98703 7.59659 4.1566 7.66683 4.33341 7.66683L11.6667 7.66683C11.8436 7.66683 12.0131 7.59659 12.1382 7.47157C12.2632 7.34654 12.3334 7.17697 12.3334 7.00016Z" fill="#000"/>
<path d="M12.3334 9.66667C12.3334 9.48986 12.2632 9.32029 12.1382 9.19526C12.0131 9.07024 11.8436 9 11.6667 9L4.33341 9C4.1566 9 3.98703 9.07024 3.86201 9.19526C3.73699 9.32029 3.66675 9.48986 3.66675 9.66667C3.66675 9.84348 3.73699 10.013 3.86201 10.1381C3.98703 10.2631 4.1566 10.3333 4.33341 10.3333L11.6667 10.3333C11.8436 10.3333 12.0131 10.2631 12.1382 10.1381C12.2632 10.013 12.3334 9.84348 12.3334 9.66667Z" fill="#000"/>
<path d="M9.66675 11.6665L4.33341 11.6665C4.1566 11.6665 3.98703 11.7367 3.86201 11.8618C3.73699 11.9868 3.66675 12.1564 3.66675 12.3332C3.66675 12.51 3.73699 12.6796 3.86201 12.8046C3.98703 12.9296 4.1566 12.9998 4.33341 12.9998H9.66675C9.84356 12.9998 10.0131 12.9296 10.1382 12.8046C10.2632 12.6796 10.3334 12.51 10.3334 12.3332C10.3334 12.1564 10.2632 11.9868 10.1382 11.8618C10.0131 11.7367 9.84356 11.6665 9.66675 11.6665Z" fill="#000"/>
<path d="M15.3334 3C15.3334 2.64638 15.1929 2.30724 14.9429 2.05719C14.6928 1.80714 14.3537 1.66667 14.0001 1.66667L12.8334 1.66667C12.7892 1.66667 12.7468 1.64911 12.7156 1.61785C12.6843 1.5866 12.6667 1.5442 12.6667 1.5V0.666667C12.6667 0.489856 12.5965 0.320286 12.4715 0.195262C12.3465 0.0702379 12.1769 0 12.0001 0C11.8233 0 11.6537 0.0702379 11.5287 0.195262C11.4037 0.320286 11.3334 0.489856 11.3334 0.666667V1.5C11.3334 1.5442 11.3159 1.5866 11.2846 1.61785C11.2533 1.64911 11.2109 1.66667 11.1667 1.66667L8.83341 1.66667C8.78921 1.66667 8.74682 1.64911 8.71556 1.61785C8.68431 1.5866 8.66675 1.5442 8.66675 1.5V0.666667C8.66675 0.489856 8.59651 0.320286 8.47149 0.195262C8.34646 0.0702379 8.17689 0 8.00008 0C7.82327 0 7.6537 0.0702379 7.52868 0.195262C7.40365 0.320286 7.33341 0.489856 7.33341 0.666667V1.5C7.33341 1.5442 7.31586 1.5866 7.2846 1.61785C7.25334 1.64911 7.21095 1.66667 7.16675 1.66667L4.83341 1.66667C4.78921 1.66667 4.74682 1.64911 4.71556 1.61785C4.68431 1.5866 4.66675 1.5442 4.66675 1.5V0.666667C4.66675 0.489856 4.59651 0.320286 4.47149 0.195262C4.34646 0.0702379 4.17689 0 4.00008 0C3.82327 0 3.6537 0.0702379 3.52868 0.195262C3.40365 0.320286 3.33341 0.489856 3.33341 0.666667L3.33341 1.5C3.33341 1.5442 3.31586 1.5866 3.2846 1.61785C3.25334 1.64911 3.21095 1.66667 3.16675 1.66667L2.00008 1.66667C1.64646 1.66667 1.30732 1.80714 1.05727 2.05719C0.807224 2.30724 0.666748 2.64638 0.666748 3L0.666748 14.6667C0.666748 15.0203 0.807224 15.3594 1.05727 15.6095C1.30732 15.8595 1.64646 16 2.00008 16L14.0001 16C14.3537 16 14.6928 15.8595 14.9429 15.6095C15.1929 15.3594 15.3334 15.0203 15.3334 14.6667L15.3334 3ZM14.0001 14.5C14.0001 14.5442 13.9825 14.5866 13.9513 14.6179C13.92 14.6491 13.8776 14.6667 13.8334 14.6667L2.16675 14.6667C2.12255 14.6667 2.08015 14.6491 2.0489 14.6179C2.01764 14.5866 2.00008 14.5442 2.00008 14.5L2.00008 3.16667C2.00008 3.12246 2.01764 3.08007 2.0489 3.04882C2.08015 3.01756 2.12255 3 2.16675 3H3.16675C3.21095 3 3.25334 3.01756 3.2846 3.04882C3.31586 3.08007 3.33341 3.12246 3.33341 3.16667V3.66667C3.33341 3.84348 3.40365 4.01305 3.52868 4.13807C3.6537 4.2631 3.82327 4.33333 4.00008 4.33333C4.17689 4.33333 4.34646 4.2631 4.47149 4.13807C4.59651 4.01305 4.66675 3.84348 4.66675 3.66667V3.166C4.66675 3.12197 4.68424 3.07975 4.71537 3.04862C4.7465 3.01749 4.78872 3 4.83275 3H7.16608C7.21028 3 7.25268 3.01756 7.28393 3.04882C7.31519 3.08007 7.33275 3.12246 7.33275 3.16667V3.66667C7.33275 3.84348 7.40299 4.01305 7.52801 4.13807C7.65303 4.2631 7.8226 4.33333 7.99941 4.33333C8.17623 4.33333 8.34579 4.2631 8.47082 4.13807C8.59584 4.01305 8.66608 3.84348 8.66608 3.66667V3.16533C8.66608 3.12148 8.6835 3.07943 8.71451 3.04843C8.74551 3.01742 8.78757 3 8.83141 3L11.1647 3C11.209 3 11.2513 3.01756 11.2826 3.04882C11.3139 3.08007 11.3314 3.12246 11.3314 3.16667V3.66667C11.3314 3.84348 11.4017 4.01305 11.5267 4.13807C11.6517 4.2631 11.8213 4.33333 11.9981 4.33333C12.1749 4.33333 12.3445 4.2631 12.4695 4.13807C12.5945 4.01305 12.6647 3.84348 12.6647 3.66667V3.166C12.6647 3.12197 12.6822 3.07975 12.7134 3.04862C12.7445 3.01749 12.7867 3 12.8307 3L13.8307 3C13.875 3 13.9173 3.01756 13.9486 3.04882C13.9799 3.08007 13.9974 3.12246 13.9974 3.16667L14.0001 14.5Z" fill="#000"/>
</svg>
