<svg width="16" height="16" viewBox="0 0 16 16" fill="none" xmlns="http://www.w3.org/2000/svg">
<g clip-path="url(#clip0)">
<path d="M8.8 16H7.2C6.88174 16 6.57652 15.8736 6.35147 15.6485C6.12643 15.4235 6 15.1183 6 14.8C6 14.4817 6.12643 14.1765 6.35147 13.9515C6.57652 13.7264 6.88174 13.6 7.2 13.6H8.8C9.11826 13.6 9.42348 13.7264 9.64853 13.9515C9.87357 14.1765 10 14.4817 10 14.8C10 15.1183 9.87357 15.4235 9.64853 15.6485C9.42348 15.8736 9.11826 16 8.8 16Z" fill="#000"/>
<path d="M14 9.6C13.894 9.6 13.7922 9.55786 13.7172 9.48284C13.6422 9.40783 13.6 9.30609 13.6 9.2V5.6C13.6 4.11479 13.01 2.69041 11.9598 1.6402C10.9096 0.589998 9.48526 0 8.00005 0C6.51484 0 5.09045 0.589998 4.04025 1.6402C2.99005 2.69041 2.40005 4.11479 2.40005 5.6V9.1984C2.40026 9.25106 2.39007 9.30325 2.37006 9.35196C2.35005 9.40068 2.32062 9.44496 2.28346 9.48228C2.24629 9.51959 2.20213 9.5492 2.15349 9.5694C2.10486 9.5896 2.05271 9.6 2.00005 9.6C1.68179 9.6 1.37656 9.72643 1.15152 9.95147C0.926477 10.1765 0.800049 10.4817 0.800049 10.8C0.800049 11.1183 0.926477 11.4235 1.15152 11.6485C1.37656 11.8736 1.68179 12 2.00005 12H14C14.3183 12 14.6235 11.8736 14.8486 11.6485C15.0736 11.4235 15.2 11.1183 15.2 10.8C15.2 10.4817 15.0736 10.1765 14.8486 9.95147C14.6235 9.72643 14.3183 9.6 14 9.6Z" fill="#000"/>
</g>
<defs>
<clipPath id="clip0">
<rect width="16" height="16" fill="white"/>
</clipPath>
</defs>
</svg>
