<svg width="16" height="16" viewBox="0 0 16 16" fill="none" xmlns="http://www.w3.org/2000/svg">
<g clip-path="url(#clip0)">
<path d="M11.6667 4.00001H14.2667C14.2998 4.00007 14.332 3.99033 14.3595 3.97202C14.387 3.95371 14.4084 3.92765 14.421 3.89716C14.4336 3.86667 14.4369 3.83312 14.4305 3.80075C14.424 3.76838 14.4081 3.73865 14.3847 3.71534L10.9514 0.283343C10.9282 0.260053 10.8986 0.244158 10.8663 0.23766C10.8341 0.231161 10.8006 0.23435 10.7702 0.246824C10.7398 0.259298 10.7137 0.2805 10.6953 0.307759C10.6769 0.335019 10.667 0.367116 10.6667 0.40001V3.00001C10.6667 3.26523 10.7721 3.51958 10.9596 3.70712C11.1472 3.89465 11.4015 4.00001 11.6667 4.00001Z" fill="#000"/>
<path d="M7.96733 9.21465C7.89733 9.18399 7.75 9.18265 7.75 9.32399V11.9753C7.75098 12.0007 7.75809 12.0255 7.77071 12.0476C7.78334 12.0697 7.8011 12.0884 7.8225 12.1022C7.8439 12.1159 7.86831 12.1243 7.89364 12.1266C7.91897 12.1289 7.94448 12.125 7.968 12.1153C8.25012 11.9921 8.49018 11.7892 8.65876 11.5316C8.82734 11.274 8.91713 10.9729 8.91713 10.665C8.91713 10.3571 8.82734 10.0559 8.65876 9.79834C8.49018 9.54073 8.25012 9.33789 7.968 9.21465H7.96733Z" fill="#000"/>
<path d="M5.00008 9.082H4.58475C4.54019 9.082 4.49746 9.0997 4.46595 9.13121C4.43445 9.16271 4.41675 9.20544 4.41675 9.25V10.0807C4.41675 10.1252 4.43445 10.168 4.46595 10.1995C4.49746 10.231 4.54019 10.2487 4.58475 10.2487H5.00008C5.15479 10.2487 5.30316 10.1872 5.41256 10.0778C5.52196 9.96842 5.58341 9.82004 5.58341 9.66533C5.58341 9.51062 5.52196 9.36225 5.41256 9.25286C5.30316 9.14346 5.15479 9.082 5.00008 9.082Z" fill="#000"/>
<path d="M14.5 4.66667H11.6667C11.2247 4.66667 10.8008 4.49107 10.4882 4.17851C10.1756 3.86595 10 3.44203 10 3V0.165333C9.99969 0.121362 9.98197 0.0793115 9.95076 0.0483432C9.91954 0.0173749 9.87735 -1.40706e-06 9.83337 0L2.66671 0C2.31309 0 1.97395 0.140476 1.7239 0.390524C1.47385 0.640573 1.33337 0.979711 1.33337 1.33333V14.6667C1.33337 15.0203 1.47385 15.3594 1.7239 15.6095C1.97395 15.8595 2.31309 16 2.66671 16H13.3334C13.687 16 14.0261 15.8595 14.2762 15.6095C14.5262 15.3594 14.6667 15.0203 14.6667 14.6667V4.832C14.6664 4.78803 14.6486 4.74598 14.6174 4.71501C14.5862 4.68404 14.544 4.66667 14.5 4.66667ZM5.00004 11.082H4.58471C4.54015 11.082 4.49742 11.0997 4.46591 11.1312C4.43441 11.1627 4.41671 11.2054 4.41671 11.25V12.6667C4.41671 12.7772 4.37281 12.8832 4.29467 12.9613C4.21653 13.0394 4.11055 13.0833 4.00004 13.0833C3.88953 13.0833 3.78355 13.0394 3.70541 12.9613C3.62727 12.8832 3.58337 12.7772 3.58337 12.6667V8.66667C3.5832 8.61184 3.59385 8.55751 3.61471 8.50681C3.63557 8.4561 3.66623 8.41001 3.70494 8.37118C3.74365 8.33234 3.78964 8.30153 3.84028 8.28051C3.89092 8.25949 3.94521 8.24867 4.00004 8.24867H5.00004C5.37576 8.24867 5.7361 8.39792 6.00177 8.6636C6.26745 8.92928 6.41671 9.28961 6.41671 9.66533C6.41671 10.0411 6.26745 10.4014 6.00177 10.6671C5.7361 10.9327 5.37576 11.082 5.00004 11.082ZM7.33337 13.082C7.2231 13.082 7.11732 13.0383 7.03922 12.9604C6.96111 12.8826 6.91706 12.7769 6.91671 12.6667V8.66667C6.91653 8.61184 6.92718 8.55751 6.94804 8.50681C6.9689 8.4561 6.99956 8.41001 7.03827 8.37118C7.07698 8.33234 7.12297 8.30153 7.17361 8.28051C7.22425 8.25949 7.27854 8.24867 7.33337 8.24867C7.97431 8.24867 8.589 8.50328 9.04221 8.95649C9.49543 9.40971 9.75004 10.0244 9.75004 10.6653C9.75004 11.3063 9.49543 11.921 9.04221 12.3742C8.589 12.8274 7.97431 13.082 7.33337 13.082ZM12.6667 9.082H11.3334C11.2671 9.082 11.2035 9.10834 11.1566 9.15522C11.1097 9.20211 11.0834 9.2657 11.0834 9.332V10.0807C11.0834 10.1252 11.1011 10.168 11.1326 10.1995C11.1641 10.231 11.2068 10.2487 11.2514 10.2487H12C12.1105 10.2487 12.2165 10.2926 12.2947 10.3707C12.3728 10.4488 12.4167 10.5548 12.4167 10.6653C12.4167 10.7758 12.3728 10.8818 12.2947 10.96C12.2165 11.0381 12.1105 11.082 12 11.082H11.2514C11.2068 11.082 11.1641 11.0997 11.1326 11.1312C11.1011 11.1627 11.0834 11.2054 11.0834 11.25V12.6667C11.0834 12.7772 11.0395 12.8832 10.9613 12.9613C10.8832 13.0394 10.7772 13.0833 10.6667 13.0833C10.5562 13.0833 10.4502 13.0394 10.3721 12.9613C10.2939 12.8832 10.25 12.7772 10.25 12.6667V9.33333C10.25 9.04589 10.3641 8.77021 10.5673 8.56683C10.7704 8.36345 11.0459 8.24902 11.3334 8.24867H12.6667C12.7772 8.24867 12.8832 8.29257 12.9613 8.37071C13.0395 8.44885 13.0834 8.55483 13.0834 8.66533C13.0834 8.77584 13.0395 8.88182 12.9613 8.95996C12.8832 9.0381 12.7772 9.082 12.6667 9.082Z" fill="#000"/>
</g>
<defs>
<clipPath id="clip0">
<rect width="16" height="16" fill="white"/>
</clipPath>
</defs>
</svg>
