<svg width="24" height="24" viewBox="0 0 24 24" fill="none" xmlns="http://www.w3.org/2000/svg">
<path d="M22.6731 17.009L20.2211 14.556C19.96 14.2944 19.6499 14.0869 19.3085 13.9453C18.9671 13.8037 18.6012 13.7309 18.2316 13.7309C17.862 13.7309 17.4961 13.8037 17.1547 13.9453C16.8133 14.0869 16.5032 14.2944 16.2421 14.556L15.7421 15.056C13.2778 12.9913 11.0016 10.712 8.94008 8.245L9.44008 7.745C9.96659 7.21695 10.2622 6.50169 10.2622 5.756C10.2622 5.01032 9.96659 4.29505 9.44008 3.767L6.98308 1.317C6.44669 0.804567 5.73341 0.518616 4.99158 0.518616C4.24976 0.518616 3.53648 0.804567 3.00009 1.317L1.66009 2.663C1.01617 3.31155 0.615007 4.16191 0.523961 5.07128C0.432914 5.98065 0.657528 6.89366 1.16009 7.657C5.15518 13.6768 10.314 18.8367 16.3331 22.833C17.099 23.331 18.0119 23.5528 18.921 23.4619C19.83 23.371 20.6809 22.9728 21.3331 22.333L22.6781 20.987C22.9396 20.7261 23.1471 20.4161 23.2886 20.0749C23.4302 19.7337 23.5031 19.3679 23.5031 18.9985C23.5031 18.6291 23.4302 18.2633 23.2886 17.9221C23.1471 17.5809 22.9396 17.2709 22.6781 17.01L22.6731 17.009Z" fill="#000"/>
</svg>
