<svg width="16" height="16" viewBox="0 0 16 16" fill="none" xmlns="http://www.w3.org/2000/svg">
<g clip-path="url(#clip0)">
<path d="M7.33325 8.75C7.33325 9.41304 7.59664 10.0489 8.06549 10.5178C8.53433 10.9866 9.17021 11.25 9.83325 11.25C10.4963 11.25 11.1322 10.9866 11.601 10.5178C12.0699 10.0489 12.3333 9.41304 12.3333 8.75C12.3333 8.08696 12.0699 7.45107 11.601 6.98223C11.1322 6.51339 10.4963 6.25 9.83325 6.25C9.17021 6.25 8.53433 6.51339 8.06549 6.98223C7.59664 7.45107 7.33325 8.08696 7.33325 8.75Z" fill="#000"/>
<path d="M14.2959 4.08331H13.4186C13.3484 4.08082 13.2804 4.05758 13.2233 4.01653C13.1663 3.97548 13.1226 3.91846 13.0979 3.85265C12.6859 2.98331 12.2599 2.08331 11.3333 2.08331H7.99994C7.28594 2.08331 6.90928 2.60198 6.22728 3.54398C5.97128 3.89531 5.88728 4.08331 5.66461 4.08331H1.66461C0.289278 4.08331 -5.58374e-05 4.88931 -5.58374e-05 5.56531V12.4906C-0.0155253 12.7135 0.0189036 12.9371 0.100725 13.145C0.182545 13.3529 0.309699 13.5399 0.472928 13.6925C0.636156 13.8451 0.831352 13.9593 1.0443 14.0269C1.25726 14.0945 1.48261 14.1138 1.70394 14.0833H14.2959C14.5173 14.1138 14.7426 14.0945 14.9556 14.0269C15.1685 13.9593 15.3637 13.8451 15.527 13.6925C15.6902 13.5399 15.8173 13.3529 15.8992 13.145C15.981 12.9371 16.0154 12.7135 15.9999 12.4906V5.56531C15.9999 4.88931 15.7046 4.08331 14.2959 4.08331ZM13.6666 8.74998C13.6666 9.50814 13.4418 10.2493 13.0206 10.8797C12.5994 11.5101 12.0007 12.0014 11.3002 12.2915C10.5998 12.5817 9.82902 12.6576 9.08543 12.5097C8.34184 12.3617 7.6588 11.9967 7.1227 11.4606C6.5866 10.9245 6.22151 10.2414 6.0736 9.49783C5.92569 8.75423 6.0016 7.98348 6.29174 7.28303C6.58187 6.58258 7.0732 5.98389 7.70359 5.56268C8.33398 5.14147 9.07512 4.91665 9.83328 4.91665C10.8496 4.91771 11.824 5.32191 12.5427 6.04057C13.2613 6.75923 13.6656 7.73364 13.6666 8.74998ZM3.33328 6.58331C3.33328 6.74813 3.2844 6.90925 3.19284 7.04629C3.10127 7.18333 2.97112 7.29014 2.81885 7.35321C2.66658 7.41629 2.49902 7.43279 2.33737 7.40063C2.17572 7.36848 2.02723 7.28911 1.91069 7.17257C1.79414 7.05603 1.71478 6.90754 1.68262 6.74589C1.65047 6.58424 1.66697 6.41668 1.73004 6.26441C1.79312 6.11214 1.89993 5.98199 2.03697 5.89042C2.17401 5.79885 2.33513 5.74998 2.49994 5.74998C2.72096 5.74998 2.93292 5.83778 3.0892 5.99406C3.24548 6.15034 3.33328 6.3623 3.33328 6.58331Z" fill="#000"/>
<path d="M1.66659 3.40599L3.66659 3.41666C3.75499 3.41666 3.83978 3.38154 3.90229 3.31903C3.9648 3.25651 3.99992 3.17173 3.99992 3.08332V2.91666C3.99992 2.65144 3.89456 2.39709 3.70703 2.20955C3.51949 2.02201 3.26514 1.91666 2.99992 1.91666H2.33325C2.06804 1.91666 1.81368 2.02201 1.62615 2.20955C1.43861 2.39709 1.33325 2.65144 1.33325 2.91666V3.07266C1.33325 3.16106 1.36837 3.24585 1.43088 3.30836C1.4934 3.37087 1.57818 3.40599 1.66659 3.40599Z" fill="#000"/>
</g>
<defs>
<clipPath id="clip0">
<rect width="16" height="16" fill="white"/>
</clipPath>
</defs>
</svg>
