<svg width="16" height="16" viewBox="0 0 16 16" fill="none" xmlns="http://www.w3.org/2000/svg">
<path d="M15.52 4L12 0.479998C11.8274 0.307893 11.6184 0.176639 11.3884 0.0958763C11.1584 0.0151138 10.9133 -0.0131058 10.671 0.0132899C10.4286 0.0396857 10.1953 0.120026 9.98811 0.248411C9.78091 0.376796 9.6051 0.549965 9.47359 0.755198L7.30719 4.16L2.93279 5.0336C2.64362 5.09185 2.37564 5.22738 2.15736 5.42578C1.93907 5.62418 1.77864 5.87804 1.69313 6.16035C1.60762 6.44266 1.60022 6.74287 1.67172 7.02905C1.74322 7.31523 1.89094 7.57668 2.09919 7.7856L8.21119 13.896C8.41988 14.1048 8.68133 14.253 8.96766 14.3248C9.25398 14.3966 9.55444 14.3893 9.83695 14.3038C10.1195 14.2182 10.3735 14.0575 10.5718 13.8389C10.7702 13.6203 10.9054 13.3519 10.9632 13.0624L11.84 8.6928L15.248 6.5264C15.453 6.39462 15.6259 6.21861 15.754 6.01127C15.8821 5.80394 15.9621 5.57055 15.9882 5.32825C16.0143 5.08594 15.9857 4.84087 15.9047 4.61102C15.8237 4.38118 15.6922 4.17239 15.52 4Z" fill="#000"/>
<path d="M3.43357 11.4336C3.3586 11.3589 3.25704 11.3169 3.15117 11.3169C3.0453 11.3169 2.94375 11.3589 2.86877 11.4336L0.351974 13.952C0.140006 14.1795 0.024609 14.4804 0.0300942 14.7912C0.0355793 15.1021 0.161518 15.3987 0.381379 15.6186C0.60124 15.8385 0.897856 15.9644 1.20874 15.9699C1.51962 15.9754 1.82049 15.86 2.04797 15.648L4.56477 13.1312C4.60202 13.0941 4.63158 13.0499 4.65174 13.0013C4.67191 12.9527 4.68229 12.9006 4.68229 12.848C4.68229 12.7954 4.67191 12.7433 4.65174 12.6947C4.63158 12.6461 4.60202 12.602 4.56477 12.5648L3.43357 11.4336Z" fill="#000"/>
</svg>
