<svg width="13" height="16" viewBox="0 0 13 16" fill="none" xmlns="http://www.w3.org/2000/svg">
<path d="M12.6667 12.8967L9.7587 7.97467C9.69822 7.87183 9.66645 7.75464 9.6667 7.63533L9.6667 1.66667C9.6667 1.57826 9.70181 1.49348 9.76433 1.43096C9.82684 1.36845 9.91162 1.33333 10 1.33333H11C11.1768 1.33333 11.3464 1.2631 11.4714 1.13807C11.5965 1.01305 11.6667 0.843478 11.6667 0.666667C11.6667 0.489856 11.5965 0.320286 11.4714 0.195262C11.3464 0.0702379 11.1768 0 11 0L3.00003 0C2.82322 0 2.65365 0.0702379 2.52863 0.195262C2.4036 0.320286 2.33336 0.489856 2.33336 0.666667C2.33336 0.843478 2.4036 1.01305 2.52863 1.13807C2.65365 1.2631 2.82322 1.33333 3.00003 1.33333L4.00003 1.33333C4.08844 1.33333 4.17322 1.36845 4.23573 1.43096C4.29824 1.49348 4.33336 1.57826 4.33336 1.66667L4.33336 7.636C4.33329 7.75514 4.30129 7.87209 4.2407 7.97467L1.3587 12.854C1.14933 13.1535 1.026 13.5045 1.00209 13.8691C0.978181 14.2337 1.05461 14.5979 1.22308 14.9222C1.39155 15.2464 1.64562 15.5183 1.95771 15.7083C2.2698 15.8983 2.62798 15.9992 2.99336 16L11.004 16C11.3649 15.999 11.7189 15.9004 12.0283 15.7146C12.3377 15.5287 12.591 15.2627 12.7615 14.9445C12.9319 14.6264 13.0131 14.2681 12.9964 13.9075C12.9797 13.547 12.8658 13.1977 12.6667 12.8967ZM4.78203 10.6667C4.72329 10.6666 4.66562 10.651 4.61485 10.6215C4.56409 10.5919 4.52202 10.5495 4.49293 10.4985C4.46383 10.4474 4.44873 10.3896 4.44916 10.3309C4.44959 10.2722 4.46553 10.2146 4.49536 10.164L5.57336 8.33933C5.63392 8.23646 5.66612 8.11937 5.6667 8L5.6667 1.66667C5.6667 1.57826 5.70182 1.49348 5.76433 1.43096C5.82684 1.36845 5.91162 1.33333 6.00003 1.33333L8.00003 1.33333C8.08844 1.33333 8.17322 1.36845 8.23573 1.43096C8.29824 1.49348 8.33336 1.57826 8.33336 1.66667V3.5C8.33336 3.58841 8.29824 3.67319 8.23573 3.7357C8.17322 3.79821 8.08844 3.83333 8.00003 3.83333L7.12003 3.83333C6.98742 3.83333 6.86024 3.88601 6.76648 3.97978C6.67271 4.07355 6.62003 4.20073 6.62003 4.33333C6.62003 4.46594 6.67271 4.59312 6.76648 4.68689C6.86024 4.78065 6.98742 4.83333 7.12003 4.83333H8.00003C8.08844 4.83333 8.17322 4.86845 8.23573 4.93096C8.29824 4.99348 8.33336 5.07826 8.33336 5.16667V5.83333C8.33336 5.92174 8.29824 6.00652 8.23573 6.06904C8.17322 6.13155 8.08844 6.16667 8.00003 6.16667H7.12003C6.98742 6.16667 6.86024 6.21935 6.76648 6.31311C6.67271 6.40688 6.62003 6.53406 6.62003 6.66667C6.62003 6.79927 6.67271 6.92645 6.76648 7.02022C6.86024 7.11399 6.98742 7.16667 7.12003 7.16667H8.00003C8.08844 7.16667 8.17322 7.20179 8.23573 7.2643C8.29824 7.32681 8.33336 7.41159 8.33336 7.5V8C8.33332 8.11937 8.36532 8.23656 8.42603 8.33933L9.5047 10.164C9.53453 10.2146 9.55047 10.2722 9.5509 10.3309C9.55133 10.3896 9.53623 10.4474 9.50713 10.4985C9.47804 10.5495 9.43597 10.5919 9.38521 10.6215C9.33444 10.651 9.27676 10.6666 9.21803 10.6667L4.78203 10.6667ZM5.32403 14.548C5.12625 14.548 4.93291 14.4894 4.76846 14.3795C4.60401 14.2696 4.47584 14.1134 4.40015 13.9307C4.32446 13.748 4.30466 13.5469 4.34324 13.3529C4.38183 13.1589 4.47707 12.9807 4.61692 12.8409C4.75678 12.701 4.93496 12.6058 5.12894 12.5672C5.32292 12.5286 5.52399 12.5484 5.70671 12.6241C5.88944 12.6998 6.04562 12.828 6.1555 12.9924C6.26538 13.1569 6.32403 13.3502 6.32403 13.548C6.32403 13.8132 6.21867 14.0676 6.03114 14.2551C5.8436 14.4426 5.58925 14.548 5.32403 14.548ZM8.1367 12.5367C8.00484 12.5367 7.87595 12.4976 7.76632 12.4243C7.65668 12.3511 7.57123 12.2469 7.52078 12.1251C7.47032 12.0033 7.45712 11.8693 7.48284 11.7399C7.50856 11.6106 7.57206 11.4918 7.66529 11.3986C7.75853 11.3054 7.87732 11.2419 8.00664 11.2161C8.13596 11.1904 8.27 11.2036 8.39182 11.2541C8.51364 11.3045 8.61775 11.39 8.69101 11.4996C8.76426 11.6093 8.80336 11.7381 8.80336 11.87C8.80336 11.9575 8.78612 12.0442 8.75262 12.1251C8.71911 12.206 8.67001 12.2795 8.6081 12.3414C8.54619 12.4033 8.4727 12.4524 8.39182 12.4859C8.31094 12.5194 8.22424 12.5367 8.1367 12.5367ZM9.80336 14.5913C9.67151 14.5913 9.54261 14.5522 9.43298 14.479C9.32335 14.4057 9.2379 14.3016 9.18744 14.1798C9.13698 14.058 9.12378 13.9239 9.14951 13.7946C9.17523 13.6653 9.23872 13.5465 9.33196 13.4533C9.42519 13.36 9.54398 13.2965 9.6733 13.2708C9.80262 13.2451 9.93667 13.2583 10.0585 13.3087C10.1803 13.3592 10.2844 13.4447 10.3577 13.5543C10.4309 13.6639 10.47 13.7928 10.47 13.9247C10.47 14.0125 10.4527 14.0995 10.419 14.1806C10.3853 14.2617 10.3358 14.3353 10.2736 14.3973C10.2113 14.4592 10.1374 14.5082 10.0562 14.5415C9.97491 14.5749 9.88786 14.5918 9.80003 14.5913H9.80336Z" fill="#000"/>
</svg>
