<svg width="16" height="16" viewBox="0 0 16 16" fill="none" xmlns="http://www.w3.org/2000/svg">
<g clip-path="url(#clip0)">
<path d="M15.0011 6.4057L2.56115 0.186273C2.29271 0.0517394 1.99432 -0.0118803 1.69435 0.00146476C1.39438 0.0148098 1.10282 0.104676 0.847391 0.262515C0.591962 0.420355 0.381161 0.640919 0.235039 0.903227C0.0889175 1.16554 0.0123342 1.46087 0.0125738 1.76113V14.2388C0.0123342 14.5391 0.0889175 14.8344 0.235039 15.0967C0.381161 15.3591 0.591962 15.5796 0.847391 15.7375C1.10282 15.8953 1.39438 15.9852 1.69435 15.9985C1.99432 16.0119 2.29271 15.9482 2.56115 15.8137L15.0011 9.59999C15.2975 9.45215 15.5467 9.22466 15.7209 8.94304C15.8951 8.66143 15.9874 8.33684 15.9874 8.0057C15.9874 7.67456 15.8951 7.34997 15.7209 7.06836C15.5467 6.78675 15.2975 6.55926 15.0011 6.41142V6.4057Z" fill="#000"/>
</g>
<defs>
<clipPath id="clip0">
<rect width="16" height="16" fill="white"/>
</clipPath>
</defs>
</svg>
