<svg width="16" height="16" viewBox="0 0 16 16" fill="none" xmlns="http://www.w3.org/2000/svg">
<g clip-path="url(#clip0)">
<path d="M12.5714 0.571442H3.42857C2.51926 0.571442 1.64719 0.932665 1.00421 1.57565C0.361223 2.21863 0 3.0907 0 4.00001C0 4.90933 0.361223 5.7814 1.00421 6.42438C1.64719 7.06736 2.51926 7.42858 3.42857 7.42859H12.5714C13.4807 7.42858 14.3528 7.06736 14.9958 6.42438C15.6388 5.7814 16 4.90933 16 4.00001C16 3.0907 15.6388 2.21863 14.9958 1.57565C14.3528 0.932665 13.4807 0.571442 12.5714 0.571442ZM12 5.7143C11.6609 5.7143 11.3295 5.61376 11.0476 5.42539C10.7657 5.23702 10.546 4.96929 10.4162 4.65604C10.2865 4.3428 10.2525 3.99811 10.3187 3.66557C10.3848 3.33303 10.5481 3.02758 10.7878 2.78783C11.0276 2.54808 11.333 2.38481 11.6656 2.31867C11.9981 2.25252 12.3428 2.28647 12.656 2.41622C12.9693 2.54597 13.237 2.76569 13.4254 3.04761C13.6137 3.32952 13.7143 3.66096 13.7143 4.00001C13.7143 4.45467 13.5337 4.89071 13.2122 5.2122C12.8907 5.53369 12.4547 5.7143 12 5.7143Z" fill="#000"/>
<path d="M12.5714 8.57144H3.42857C2.51926 8.57144 1.64719 8.93266 1.00421 9.57565C0.361223 10.2186 0 11.0907 0 12C0 12.9093 0.361223 13.7814 1.00421 14.4244C1.64719 15.0674 2.51926 15.4286 3.42857 15.4286H12.5714C13.4807 15.4286 14.3528 15.0674 14.9958 14.4244C15.6388 13.7814 16 12.9093 16 12C16 11.0907 15.6388 10.2186 14.9958 9.57565C14.3528 8.93266 13.4807 8.57144 12.5714 8.57144ZM4 13.7143C3.66095 13.7143 3.32951 13.6138 3.04759 13.4254C2.76568 13.237 2.54596 12.9693 2.41621 12.656C2.28646 12.3428 2.25251 11.9981 2.31865 11.6656C2.3848 11.333 2.54807 11.0276 2.78782 10.7878C3.02756 10.5481 3.33302 10.3848 3.66556 10.3187C3.9981 10.2525 4.34278 10.2865 4.65603 10.4162C4.96927 10.546 5.23701 10.7657 5.42538 11.0476C5.61374 11.3295 5.71429 11.661 5.71429 12C5.71429 12.4547 5.53367 12.8907 5.21218 13.2122C4.89069 13.5337 4.45466 13.7143 4 13.7143Z" fill="#000"/>
</g>
<defs>
<clipPath id="clip0">
<rect width="16" height="16" fill="white"/>
</clipPath>
</defs>
</svg>
