<svg width="16" height="16" viewBox="0 0 16 16" fill="none" xmlns="http://www.w3.org/2000/svg">
<g clip-path="url(#clip0)">
<path d="M4.66675 8.476V10.19C4.66675 10.3037 4.71191 10.4127 4.7923 10.4931C4.87269 10.5735 4.98173 10.6187 5.09541 10.6187H6.38141C6.46982 10.6187 6.5546 10.6538 6.61712 10.7163C6.67963 10.7788 6.71475 10.8636 6.71475 10.952V12.238C6.71466 12.2942 6.72567 12.3499 6.74715 12.4019C6.76863 12.4539 6.80015 12.5011 6.83991 12.5408C6.87967 12.5806 6.92689 12.6121 6.97886 12.6336C7.03082 12.6551 7.08652 12.6661 7.14275 12.666H8.85741C8.91368 12.6661 8.9694 12.6551 9.02141 12.6336C9.07341 12.6121 9.12067 12.5806 9.16049 12.5409C9.2003 12.5011 9.23189 12.4539 9.25344 12.4019C9.27499 12.35 9.28608 12.2943 9.28608 12.238V10.952C9.28608 10.8636 9.3212 10.7788 9.38371 10.7163C9.44622 10.6538 9.53101 10.6187 9.61941 10.6187H10.9047C11.0184 10.6187 11.1275 10.5735 11.2079 10.4931C11.2883 10.4127 11.3334 10.3037 11.3334 10.19V8.476C11.3334 8.41971 11.3223 8.36396 11.3008 8.31196C11.2792 8.25995 11.2477 8.21269 11.2079 8.17289C11.1681 8.13308 11.1208 8.10151 11.0688 8.07996C11.0168 8.05842 10.961 8.04733 10.9047 8.04733H9.61941C9.53101 8.04733 9.44622 8.01221 9.38371 7.9497C9.3212 7.88719 9.28608 7.80241 9.28608 7.714V6.428C9.2859 6.31443 9.24066 6.20556 9.16029 6.12532C9.07992 6.04507 8.97099 6 8.85741 6H7.14275C7.08649 6 7.03078 6.01109 6.97881 6.03264C6.92683 6.05419 6.87962 6.08578 6.83987 6.12559C6.80012 6.16541 6.76861 6.21267 6.74714 6.26467C6.72567 6.31668 6.71466 6.3724 6.71475 6.42867V7.71467C6.71475 7.80307 6.67963 7.88786 6.61712 7.95037C6.5546 8.01288 6.46982 8.048 6.38141 8.048H5.09541C4.98184 8.048 4.87291 8.09307 4.79254 8.17332C4.71217 8.25356 4.66692 8.36243 4.66675 8.476Z" fill="#000"/>
<path d="M13.0001 2H11.1667C11.1225 2 11.0802 2.01756 11.0489 2.04882C11.0176 2.08007 11.0001 2.12246 11.0001 2.16667V3.16667C11 3.18858 11.0042 3.21029 11.0126 3.23055C11.0209 3.25081 11.0332 3.26922 11.0487 3.28471C11.0642 3.30021 11.0826 3.31248 11.1029 3.32083C11.1231 3.32917 11.1448 3.33342 11.1667 3.33333H12.6667C12.7552 3.33333 12.8399 3.36845 12.9025 3.43096C12.965 3.49348 13.0001 3.57826 13.0001 3.66667V14.3333C13.0001 14.4217 12.965 14.5065 12.9025 14.569C12.8399 14.6315 12.7552 14.6667 12.6667 14.6667H3.33341C3.24501 14.6667 3.16022 14.6315 3.09771 14.569C3.0352 14.5065 3.00008 14.4217 3.00008 14.3333V3.66667C3.00008 3.57826 3.0352 3.49348 3.09771 3.43096C3.16022 3.36845 3.24501 3.33333 3.33341 3.33333H4.83341C4.85533 3.33342 4.87704 3.32917 4.8973 3.32083C4.91756 3.31248 4.93597 3.30021 4.95146 3.28471C4.96696 3.26922 4.97923 3.25081 4.98757 3.23055C4.99592 3.21029 5.00017 3.18858 5.00008 3.16667V2.16667C5.00008 2.12246 4.98252 2.08007 4.95127 2.04882C4.92001 2.01756 4.87762 2 4.83341 2H3.00008C2.64646 2 2.30732 2.14048 2.05727 2.39052C1.80722 2.64057 1.66675 2.97971 1.66675 3.33333V14.6667C1.66675 15.0203 1.80722 15.3594 2.05727 15.6095C2.30732 15.8595 2.64646 16 3.00008 16H13.0001C13.3537 16 13.6928 15.8595 13.9429 15.6095C14.1929 15.3594 14.3334 15.0203 14.3334 14.6667V3.33333C14.3334 2.97971 14.1929 2.64057 13.9429 2.39052C13.6928 2.14048 13.3537 2 13.0001 2Z" fill="#000"/>
<path d="M6.66677 4.33334H9.33343C9.51024 4.33334 9.67981 4.26311 9.80484 4.13808C9.92986 4.01306 10.0001 3.84349 10.0001 3.66668V2.00001C9.99928 1.69159 9.92736 1.3875 9.78991 1.11139C9.65247 0.835286 9.45321 0.594589 9.20762 0.408009C8.96203 0.22143 8.67672 0.0939932 8.37387 0.0356039C8.07102 -0.0227855 7.75879 -0.0105551 7.46143 0.0713445C7.03359 0.196228 6.65872 0.458399 6.39463 0.817426C6.13054 1.17645 5.9919 1.61239 6.0001 2.05801V3.66668C6.0001 3.84349 6.07034 4.01306 6.19536 4.13808C6.32039 4.26311 6.48996 4.33334 6.66677 4.33334ZM8.0001 1.33334C8.09899 1.33334 8.19566 1.36267 8.27788 1.41761C8.36011 1.47255 8.4242 1.55064 8.46204 1.642C8.49988 1.73337 8.50978 1.8339 8.49049 1.93089C8.4712 2.02788 8.42358 2.11697 8.35365 2.1869C8.28373 2.25682 8.19464 2.30444 8.09764 2.32374C8.00065 2.34303 7.90012 2.33313 7.80876 2.29528C7.7174 2.25744 7.63931 2.19335 7.58436 2.11113C7.52942 2.02891 7.5001 1.93224 7.5001 1.83334C7.5001 1.70074 7.55278 1.57356 7.64655 1.47979C7.74031 1.38602 7.86749 1.33334 8.0001 1.33334Z" fill="#000"/>
</g>
<defs>
<clipPath id="clip0">
<rect width="16" height="16" fill="white"/>
</clipPath>
</defs>
</svg>
