<svg width="24" height="24" viewBox="0 0 24 24" fill="none" xmlns="http://www.w3.org/2000/svg">
<circle cx="12" cy="12" r="12" fill="#000"/>
<path d="M12.378 4.83867C10.9439 4.89585 9.55953 5.37944 8.40178 6.22759C7.24403 7.07575 6.36554 8.24993 5.87865 9.6C5.86567 9.63616 5.8406 9.66673 5.80768 9.68653C5.77476 9.70633 5.73601 9.71415 5.69798 9.70867L4.57198 9.53933C4.51027 9.53142 4.44758 9.54046 4.39062 9.56548C4.33365 9.59049 4.28458 9.63054 4.24865 9.68133C4.21341 9.73299 4.19341 9.79351 4.19094 9.85599C4.18846 9.91847 4.20361 9.98039 4.23465 10.0347L6.02065 13.168C6.04602 13.2124 6.08126 13.2503 6.12364 13.2789C6.16602 13.3075 6.21441 13.3259 6.26506 13.3328C6.31572 13.3397 6.36728 13.3349 6.41576 13.3187C6.46424 13.3025 6.50834 13.2753 6.54465 13.2393L9.05798 10.742C9.10199 10.6984 9.13299 10.6435 9.14751 10.5833C9.16203 10.5231 9.15949 10.46 9.14018 10.4012C9.12086 10.3423 9.08554 10.29 9.03817 10.2501C8.9908 10.2103 8.93325 10.1843 8.87198 10.1753L7.72865 10.0047C7.70312 10.001 7.6788 9.99137 7.6576 9.97666C7.63641 9.96195 7.61892 9.94252 7.60651 9.9199C7.5941 9.89728 7.58711 9.87208 7.5861 9.8463C7.58508 9.82053 7.59006 9.79486 7.60065 9.77133C7.99775 8.87228 8.62826 8.0959 9.42673 7.52281C10.2252 6.94972 11.1625 6.6008 12.1414 6.51228C13.1202 6.42377 14.1049 6.59888 14.9933 7.01944C15.8816 7.44 16.6411 8.09068 17.1931 8.90392C17.745 9.71716 18.0692 10.6633 18.132 11.6442C18.1948 12.625 17.9939 13.6048 17.5502 14.4817C17.1064 15.3587 16.436 16.1009 15.6086 16.6313C14.7811 17.1617 13.8268 17.461 12.8447 17.498C12.6236 17.502 12.4133 17.5936 12.2598 17.7527C12.1063 17.9118 12.0223 18.1253 12.0263 18.3463C12.0303 18.5673 12.1219 18.7777 12.281 18.9312C12.4401 19.0847 12.6536 19.1686 12.8747 19.1647H12.906C13.8505 19.1357 14.7799 18.9202 15.6408 18.5307C16.5018 18.1411 17.2771 17.5852 17.9224 16.8948C18.5676 16.2045 19.07 15.3933 19.4006 14.5081C19.7311 13.6229 19.8834 12.681 19.8486 11.7367C19.8138 10.7924 19.5926 9.8643 19.1978 9.0058C18.8029 8.14731 18.2422 7.37536 17.5479 6.73439C16.8536 6.09341 16.0394 5.59606 15.1521 5.27094C14.2648 4.94583 13.3221 4.79937 12.378 4.84V4.83867Z" fill="white"/>
</svg>
