<svg width="16" height="16" viewBox="0 0 16 16" fill="none" xmlns="http://www.w3.org/2000/svg">
<path d="M8.37798 0.838669C6.94394 0.895853 5.55953 1.37944 4.40178 2.22759C3.24403 3.07575 2.36554 4.24993 1.87865 5.6C1.86567 5.63616 1.8406 5.66673 1.80768 5.68653C1.77476 5.70633 1.73601 5.71415 1.69798 5.70867L0.571983 5.53933C0.510275 5.53142 0.447577 5.54046 0.390615 5.56548C0.333653 5.59049 0.284577 5.63054 0.24865 5.68133C0.213411 5.73299 0.193411 5.79351 0.190935 5.85599C0.18846 5.91847 0.203608 5.98039 0.23465 6.03467L2.02065 9.168C2.04602 9.21238 2.08126 9.25033 2.12364 9.27891C2.16602 9.3075 2.21441 9.32595 2.26506 9.33284C2.31572 9.33974 2.36728 9.33489 2.41576 9.31868C2.46424 9.30246 2.50834 9.27532 2.54465 9.23934L5.05798 6.742C5.10199 6.69843 5.13299 6.64346 5.14751 6.58326C5.16203 6.52306 5.15949 6.46 5.14018 6.40116C5.12086 6.34232 5.08554 6.29003 5.03817 6.25014C4.9908 6.21025 4.93325 6.18435 4.87198 6.17533L3.72865 6.00467C3.70312 6.00096 3.6788 5.99137 3.6576 5.97666C3.63641 5.96195 3.61892 5.94252 3.60651 5.9199C3.5941 5.89728 3.58711 5.87208 3.5861 5.8463C3.58508 5.82053 3.59006 5.79486 3.60065 5.77133C3.99775 4.87228 4.62826 4.0959 5.42673 3.52281C6.2252 2.94972 7.16252 2.6008 8.14138 2.51228C9.12023 2.42377 10.1049 2.59888 10.9933 3.01944C11.8816 3.44 12.6411 4.09068 13.1931 4.90392C13.745 5.71716 14.0692 6.66331 14.132 7.64415C14.1948 8.62499 13.9939 9.60476 13.5502 10.4817C13.1064 11.3587 12.436 12.1009 11.6086 12.6313C10.7811 13.1617 9.8268 13.461 8.84465 13.498C8.62364 13.502 8.41325 13.5936 8.25979 13.7527C8.10632 13.9118 8.02234 14.1253 8.02632 14.3463C8.03029 14.5673 8.12191 14.7777 8.281 14.9312C8.44009 15.0847 8.65364 15.1686 8.87465 15.1647H8.90598C9.85048 15.1357 10.7799 14.9202 11.6408 14.5307C12.5018 14.1411 13.2771 13.5852 13.9224 12.8948C14.5676 12.2045 15.07 11.3933 15.4006 10.5081C15.7311 9.62287 15.8834 8.68101 15.8486 7.7367C15.8138 6.7924 15.5926 5.8643 15.1978 5.0058C14.8029 4.14731 14.2422 3.37536 13.5479 2.73439C12.8536 2.09341 12.0394 1.59606 11.1521 1.27094C10.2648 0.945831 9.32205 0.799374 8.37798 0.840002V0.838669Z" fill="#000"/>
</svg>
