<svg width="16" height="16" viewBox="0 0 16 16" fill="none" xmlns="http://www.w3.org/2000/svg">
<path d="M14.6666 2.51666C14.6681 2.31995 14.613 2.12697 14.5078 1.96076C14.4026 1.79454 14.2517 1.66213 14.0733 1.57933C12.1599 0.738767 10.0898 0.314069 7.99995 0.33333C5.91013 0.314069 3.84004 0.738767 1.92662 1.57933C1.74818 1.66213 1.59734 1.79454 1.49213 1.96076C1.38692 2.12697 1.33177 2.31995 1.33328 2.51666V7.608C1.33059 9.26 1.82755 10.8742 2.75892 12.2387C3.69028 13.6031 5.01249 14.654 6.55195 15.2533L7.26328 15.5293C7.73728 15.7127 8.26262 15.7127 8.73662 15.5293L9.44795 15.2533C10.9874 14.654 12.3096 13.6031 13.241 12.2387C14.1723 10.8742 14.6693 9.26 14.6666 7.608V2.51666ZM12.3386 5.49266L8.31528 10.9807C8.24424 11.0774 8.15314 11.1577 8.0482 11.2161C7.94327 11.2744 7.82698 11.3094 7.70728 11.3187C7.68528 11.3187 7.66395 11.3187 7.64062 11.3187C7.53112 11.3187 7.42269 11.2971 7.32156 11.2551C7.22043 11.2131 7.12858 11.1516 7.05128 11.074L3.99995 8.024C3.84819 7.86679 3.76426 7.65626 3.76622 7.43776C3.76818 7.21926 3.85588 7.01028 4.01043 6.85582C4.16498 6.70135 4.37402 6.61377 4.59251 6.61193C4.81101 6.6101 5.02149 6.69415 5.17862 6.846L7.40595 9.074C7.42295 9.09106 7.44344 9.10423 7.46602 9.11262C7.4886 9.121 7.51272 9.12439 7.53674 9.12255C7.56075 9.12071 7.58408 9.11369 7.60512 9.10197C7.62616 9.09025 7.64441 9.07411 7.65862 9.05466L10.9919 4.50733C11.056 4.41735 11.1372 4.341 11.231 4.2827C11.3248 4.2244 11.4293 4.18533 11.5383 4.16775C11.6473 4.15017 11.7587 4.15443 11.8661 4.18029C11.9735 4.20615 12.0746 4.25309 12.1637 4.31839C12.2527 4.38368 12.3279 4.46602 12.3849 4.56063C12.4418 4.65524 12.4794 4.76022 12.4955 4.86948C12.5115 4.97874 12.5056 5.0901 12.4783 5.19708C12.4509 5.30407 12.4025 5.40454 12.3359 5.49266H12.3386Z" fill="#000"/>
</svg>
