<svg width="17" height="15" viewBox="0 0 17 15" fill="none" xmlns="http://www.w3.org/2000/svg">
<path d="M15.8797 0.0774403C15.833 0.0384356 15.7765 0.0129689 15.7163 0.00380219C15.6561 -0.00536452 15.5946 0.00211868 15.5384 0.0254403L0.205031 6.35877C0.143744 6.38433 0.0914876 6.42761 0.0549611 6.48307C0.0184347 6.53852 -0.000696878 6.60362 1.94016e-05 6.67002C0.000735681 6.73642 0.0212671 6.80109 0.0589814 6.85574C0.0966957 6.9104 0.149874 6.95254 0.211698 6.97677L4.43303 8.61611C4.4841 8.63601 4.53929 8.64302 4.59371 8.63651C4.64813 8.63 4.7001 8.61017 4.74503 8.57877L10.345 4.59611C10.4136 4.54655 10.4984 4.52491 10.5823 4.53555C10.6662 4.54619 10.7429 4.58833 10.7969 4.65343C10.8509 4.71853 10.8781 4.80172 10.8731 4.88614C10.868 4.97056 10.8311 5.04991 10.7697 5.10811L6.10303 9.60477C6.07077 9.63587 6.04511 9.67315 6.02759 9.71438C6.01006 9.75562 6.00103 9.79997 6.00103 9.84477V14.3334C6.00124 14.4065 6.02546 14.4775 6.06995 14.5354C6.11444 14.5934 6.17674 14.6351 6.24727 14.6542C6.3178 14.6733 6.39265 14.6687 6.4603 14.6411C6.52795 14.6135 6.58466 14.5644 6.6217 14.5014L8.73303 10.8848C8.75507 10.8473 8.79085 10.8198 8.8328 10.8082C8.87474 10.7967 8.91954 10.8019 8.9577 10.8228L12.8417 12.9561C12.8872 12.9812 12.9379 12.9953 12.9898 12.9973C13.0417 12.9993 13.0933 12.9891 13.1406 12.9676C13.1879 12.9461 13.2295 12.9139 13.2621 12.8734C13.2947 12.833 13.3174 12.7855 13.3284 12.7348L15.995 0.40144C16.0065 0.342056 16.0018 0.280688 15.9816 0.223711C15.9613 0.166734 15.9261 0.116228 15.8797 0.0774403Z" fill="#000"/>
</svg>
