<svg width="24" height="24" viewBox="0 0 24 24" fill="none" xmlns="http://www.w3.org/2000/svg">
<g clip-path="url(#clip0)">
<path d="M22.4211 9.763L21.1551 9.314C20.9738 9.24955 20.8081 9.14776 20.6687 9.0152C20.5292 8.88264 20.4192 8.72227 20.3456 8.54448C20.2721 8.36669 20.2367 8.17544 20.2418 7.98311C20.2469 7.79078 20.2923 7.60166 20.3751 7.428L20.9511 6.215C21.1612 5.77204 21.2292 5.27493 21.1456 4.79184C21.0621 4.30875 20.8311 3.86333 20.4844 3.51667C20.1378 3.17 19.6924 2.93906 19.2093 2.85551C18.7262 2.77196 18.2291 2.83989 17.7861 3.05L16.5731 3.627C16.3993 3.70943 16.2102 3.75449 16.0179 3.75927C15.8257 3.76405 15.6345 3.72844 15.4569 3.65474C15.2792 3.58105 15.119 3.4709 14.9866 3.33142C14.8542 3.19194 14.7525 3.02623 14.6881 2.845L14.2381 1.58C14.0735 1.11821 13.77 0.718657 13.3693 0.436135C12.9686 0.153613 12.4904 0.00195313 12.0001 0.00195312C11.5098 0.00195312 11.0316 0.153613 10.6309 0.436135C10.2302 0.718657 9.92676 1.11821 9.76211 1.58L9.31211 2.846C9.24762 3.02714 9.14586 3.19275 9.01339 3.33212C8.88092 3.47149 8.7207 3.58153 8.54306 3.65513C8.36542 3.72873 8.17432 3.76425 7.9821 3.75941C7.78988 3.75456 7.60081 3.70945 7.42711 3.627L6.21411 3.05C5.77115 2.83989 5.27404 2.77196 4.79095 2.85551C4.30786 2.93906 3.86244 3.17 3.51578 3.51667C3.16911 3.86333 2.93817 4.30875 2.85462 4.79184C2.77107 5.27493 2.83901 5.77204 3.04911 6.215L3.62511 7.428C3.70776 7.60169 3.75304 7.79078 3.75804 7.98307C3.76304 8.17535 3.72764 8.36654 3.65413 8.54429C3.58061 8.72204 3.47063 8.88239 3.33127 9.01497C3.19192 9.14755 3.0263 9.24942 2.84511 9.314L1.57911 9.764C1.11721 9.9284 0.717511 10.2317 0.434867 10.6323C0.152223 11.0329 0.000488281 11.5112 0.000488281 12.0015C0.000488281 12.4918 0.152223 12.9701 0.434867 13.3707C0.717511 13.7713 1.11721 14.0746 1.57911 14.239L2.84511 14.689C3.02626 14.7535 3.19187 14.8552 3.33122 14.9877C3.47057 15.1202 3.58056 15.2805 3.65408 15.4581C3.72759 15.6358 3.763 15.8269 3.75801 16.0191C3.75302 16.2114 3.70775 16.4004 3.62511 16.574L3.04911 17.787C2.83901 18.23 2.77107 18.7271 2.85462 19.2102C2.93817 19.6932 3.16911 20.1387 3.51578 20.4853C3.86244 20.832 4.30786 21.0629 4.79095 21.1465C5.27404 21.23 5.77115 21.1621 6.21411 20.952L7.42711 20.376C7.60077 20.2932 7.78988 20.2479 7.98219 20.2429C8.1745 20.2379 8.36571 20.2733 8.54344 20.347C8.72116 20.4206 8.88143 20.5308 9.01385 20.6703C9.14627 20.8098 9.24788 20.9757 9.31211 21.157L9.76211 22.422C9.92676 22.8838 10.2302 23.2833 10.6309 23.5659C11.0316 23.8484 11.5098 24 12.0001 24C12.4904 24 12.9686 23.8484 13.3693 23.5659C13.77 23.2833 14.0735 22.8838 14.2381 22.422L14.6881 21.156C14.7526 20.9748 14.8543 20.8092 14.9868 20.6699C15.1193 20.5305 15.2796 20.4205 15.4572 20.347C15.6349 20.2735 15.826 20.2381 16.0183 20.2431C16.2105 20.2481 16.3995 20.2934 16.5731 20.376L17.7861 20.952C18.2291 21.1621 18.7262 21.23 19.2093 21.1465C19.6924 21.0629 20.1378 20.832 20.4844 20.4853C20.8311 20.1387 21.0621 19.6932 21.1456 19.2102C21.2292 18.7271 21.1612 18.23 20.9511 17.787L20.3751 16.574C20.2925 16.4004 20.2472 16.2114 20.2422 16.0191C20.2372 15.8269 20.2726 15.6358 20.3461 15.4581C20.4197 15.2805 20.5297 15.1202 20.669 14.9877C20.8084 14.8552 20.974 14.7535 21.1551 14.689L22.4211 14.238C22.883 14.0736 23.2827 13.7703 23.5654 13.3697C23.848 12.9691 23.9997 12.4908 23.9997 12.0005C23.9997 11.5102 23.848 11.0319 23.5654 10.6313C23.2827 10.2307 22.883 9.9274 22.4211 9.763ZM12.0001 16.785C11.0556 16.7713 10.1349 16.4865 9.34764 15.9646C8.56033 15.4427 7.93953 14.7056 7.55911 13.841C7.07268 12.6631 7.07323 11.3405 7.56063 10.163C8.04804 8.98555 8.98251 8.04945 10.1591 7.56C11.3383 7.08841 12.6551 7.09633 13.8286 7.58208C15.0021 8.06783 15.9392 8.99293 16.4401 10.16C16.9265 11.3379 16.926 12.6605 16.4386 13.838C15.9512 15.0155 15.0167 15.9515 13.8401 16.441C13.2569 16.6809 12.6306 16.798 12.0001 16.785Z" fill="#000"/>
</g>
<defs>
<clipPath id="clip0">
<rect width="24" height="24" fill="white"/>
</clipPath>
</defs>
</svg>
