<svg width="16" height="16" viewBox="0 0 16 16" fill="none" xmlns="http://www.w3.org/2000/svg">
<g clip-path="url(#clip0)">
<path d="M13.6667 6C13.6667 5.64637 13.5262 5.30723 13.2762 5.05719C13.0261 4.80714 12.687 4.66666 12.3334 4.66666H10.1667C10.1225 4.66666 10.0801 4.68422 10.0489 4.71548C10.0176 4.74673 10 4.78913 10 4.83333V5.83333C10 5.87753 10.0176 5.91992 10.0489 5.95118C10.0801 5.98244 10.1225 6 10.1667 6H12C12.0884 6 12.1732 6.03511 12.2357 6.09763C12.2983 6.16014 12.3334 6.24492 12.3334 6.33333V14.3333C12.3334 14.4217 12.2983 14.5065 12.2357 14.569C12.1732 14.6315 12.0884 14.6667 12 14.6667H4.00004C3.91164 14.6667 3.82685 14.6315 3.76434 14.569C3.70183 14.5065 3.66671 14.4217 3.66671 14.3333V6.33333C3.66671 6.24492 3.70183 6.16014 3.76434 6.09763C3.82685 6.03511 3.91164 6 4.00004 6H5.83337C5.85532 6 5.87704 5.99566 5.89731 5.98725C5.91757 5.97883 5.93598 5.96649 5.95146 5.95094C5.96695 5.9354 5.97921 5.91695 5.98755 5.89665C5.99588 5.87635 6.00013 5.8546 6.00004 5.83266V4.83266C5.99995 4.81072 5.99553 4.78901 5.98704 4.76878C5.97854 4.74855 5.96613 4.73019 5.95052 4.71477C5.93491 4.69935 5.91641 4.68716 5.89608 4.6789C5.87575 4.67065 5.85398 4.66649 5.83204 4.66666H3.66671C3.31309 4.66666 2.97395 4.80714 2.7239 5.05719C2.47385 5.30723 2.33337 5.64637 2.33337 6V14.6667C2.33337 15.0203 2.47385 15.3594 2.7239 15.6095C2.97395 15.8595 3.31309 16 3.66671 16H12.3334C12.687 16 13.0261 15.8595 13.2762 15.6095C13.5262 15.3594 13.6667 15.0203 13.6667 14.6667V6Z" fill="#000"/>
<path d="M7.00009 7.33334C7.00009 7.59856 7.10544 7.85291 7.29298 8.04045C7.48052 8.22798 7.73487 8.33334 8.00009 8.33334C8.2653 8.33334 8.51966 8.22798 8.70719 8.04045C8.89473 7.85291 9.00009 7.59856 9.00009 7.33334V3.83267C9.00009 3.78847 9.01764 3.74608 9.0489 3.71482C9.08016 3.68356 9.12255 3.66601 9.16675 3.66601H10.3334C10.4649 3.66506 10.5931 3.62528 10.702 3.55167C10.8109 3.47807 10.8956 3.37391 10.9454 3.2523C10.9953 3.13069 11.0081 2.99705 10.9823 2.86818C10.9564 2.73931 10.893 2.62096 10.8001 2.52801L8.46675 0.194672C8.34173 0.0696915 8.17219 -0.000518799 7.99542 -0.000518799C7.81864 -0.000518799 7.6491 0.0696915 7.52409 0.194672L5.19075 2.52801C5.09703 2.62148 5.03325 2.74075 5.00756 2.8706C4.98186 3.00046 4.9954 3.13502 5.04645 3.25715C5.09751 3.37928 5.18377 3.48345 5.29423 3.55638C5.4047 3.62931 5.53438 3.66771 5.66675 3.66667H6.83342C6.87762 3.66667 6.92001 3.68423 6.95127 3.71549C6.98253 3.74674 7.00009 3.78914 7.00009 3.83334V7.33334Z" fill="#000"/>
</g>
<defs>
<clipPath id="clip0">
<rect width="16" height="16" fill="white"/>
</clipPath>
</defs>
</svg>
