<svg width="16" height="16" viewBox="0 0 16 16" fill="none" xmlns="http://www.w3.org/2000/svg">
<g clip-path="url(#clip0)">
<path d="M15.7664 3.6352L12.5664 0.435195C12.4546 0.323121 12.3121 0.246731 12.1569 0.215694C12.0016 0.184656 11.8407 0.200366 11.6944 0.260836C11.5481 0.321305 11.423 0.423816 11.335 0.555393C11.247 0.68697 11.2 0.841699 11.2 0.999995V3H6.4C4.70261 3 3.07475 3.67428 1.87452 4.87451C0.674284 6.07475 0 7.70261 0 9.4C0 11.0974 0.674284 12.7252 1.87452 13.9255C3.07475 15.1257 4.70261 15.8 6.4 15.8H10.4C10.7183 15.8 11.0235 15.6736 11.2485 15.4485C11.4736 15.2235 11.6 14.9183 11.6 14.6C11.6 14.2817 11.4736 13.9765 11.2485 13.7515C11.0235 13.5264 10.7183 13.4 10.4 13.4H6.4C5.33913 13.4 4.32172 12.9786 3.57157 12.2284C2.82143 11.4783 2.4 10.4609 2.4 9.4C2.4 8.33913 2.82143 7.32171 3.57157 6.57157C4.32172 5.82142 5.33913 5.4 6.4 5.4H11.2V7.4C11.2 7.5583 11.247 7.71304 11.335 7.84462C11.423 7.97621 11.5481 8.07872 11.6944 8.1392C11.7912 8.17958 11.8951 8.20025 12 8.2C12.1051 8.20018 12.2093 8.17965 12.3064 8.13957C12.4036 8.09948 12.492 8.04064 12.5664 7.9664L15.7664 4.7664C15.9164 4.61637 16.0006 4.41293 16.0006 4.2008C16.0006 3.98866 15.9164 3.78522 15.7664 3.6352Z" fill="#000"/>
</g>
<defs>
<clipPath id="clip0">
<rect width="16" height="16" fill="white"/>
</clipPath>
</defs>
</svg>
