<svg width="16" height="16" viewBox="0 0 16 16" fill="none" xmlns="http://www.w3.org/2000/svg">
<g clip-path="url(#clip0)">
<path d="M10.6121 5.06134C10.4924 5.05084 10.3788 5.00435 10.2861 4.92801L9.44138 4.08134C9.22639 3.88158 8.94668 3.76586 8.65338 3.75534H7.34672C7.05343 3.76586 6.77372 3.88158 6.55872 4.08134L5.71405 4.92601C5.62134 5.00235 5.50769 5.04884 5.38805 5.05934H4.40805C4.06144 5.05969 3.72916 5.19768 3.48425 5.44296C3.23935 5.68824 3.10187 6.02073 3.10205 6.36734V9.63401C3.1024 9.98027 3.24011 10.3123 3.48496 10.5571C3.72981 10.8019 4.06179 10.9397 4.40805 10.94H11.5921C11.9383 10.9397 12.2703 10.8019 12.5151 10.5571C12.76 10.3123 12.8977 9.98027 12.8981 9.63401V6.36734C12.8977 6.02108 12.76 5.6891 12.5151 5.44425C12.2703 5.1994 11.9383 5.06169 11.5921 5.06134H10.6121ZM9.63272 8.00001C9.63272 8.32292 9.53696 8.63858 9.35756 8.90707C9.17816 9.17556 8.92318 9.38482 8.62485 9.5084C8.32651 9.63197 7.99824 9.6643 7.68153 9.6013C7.36483 9.53831 7.07391 9.38281 6.84558 9.15448C6.61725 8.92615 6.46175 8.63523 6.39876 8.31853C6.33576 8.00182 6.36809 7.67354 6.49166 7.37521C6.61524 7.07688 6.8245 6.82189 7.09299 6.64249C7.36148 6.46309 7.67714 6.36734 8.00005 6.36734C8.43306 6.36734 8.84834 6.53935 9.15452 6.84554C9.46071 7.15172 9.63272 7.567 9.63272 8.00001Z" fill="#000"/>
<path d="M1.74537 5.60868C2.23427 4.34565 3.09268 3.25941 4.20851 2.49182C5.32433 1.72423 6.6457 1.31097 8.00004 1.30601C9.44642 1.30205 10.8546 1.77019 12.0107 2.63934C12.0297 2.65333 12.0454 2.67121 12.0569 2.6918C12.0684 2.71238 12.0754 2.73518 12.0774 2.75868C12.079 2.78195 12.0757 2.80531 12.0675 2.82716C12.0593 2.84902 12.0465 2.86886 12.03 2.88534L11.0627 3.85068C11.0171 3.89636 10.9861 3.95451 10.9736 4.01779C10.961 4.08107 10.9675 4.14665 10.9922 4.20627C11.0168 4.26588 11.0586 4.31685 11.1122 4.35275C11.1658 4.38866 11.2289 4.40788 11.2934 4.40801H14.204C14.2907 4.40801 14.3738 4.37359 14.435 4.31233C14.4963 4.25107 14.5307 4.16798 14.5307 4.08134V1.17068C14.5306 1.10616 14.5113 1.04313 14.4754 0.989526C14.4395 0.935924 14.3886 0.894153 14.329 0.869481C14.2693 0.844809 14.2038 0.838341 14.1405 0.850893C14.0772 0.863444 14.019 0.894453 13.9734 0.940009L13.192 1.72134C13.1636 1.74971 13.1257 1.76661 13.0857 1.76882C13.0456 1.77103 13.0061 1.7584 12.9747 1.73334C11.5623 0.605802 9.80728 -0.00570734 8.00004 9.20103e-06C6.38173 0.00610992 4.80286 0.499989 3.46954 1.41717C2.13623 2.33435 1.11042 3.63222 0.526036 5.14134C0.495394 5.2214 0.480822 5.30672 0.483151 5.39241C0.485481 5.47811 0.504666 5.5625 0.539612 5.64078C0.574557 5.71906 0.624579 5.78969 0.686821 5.84864C0.749063 5.90759 0.822307 5.9537 0.902369 5.98434C1.06406 6.04623 1.24372 6.04134 1.40181 5.97077C1.48009 5.93582 1.55072 5.8858 1.60967 5.82356C1.66862 5.76131 1.71473 5.68807 1.74537 5.60801V5.60868Z" fill="#000"/>
<path d="M15.0974 10.0153C14.9357 9.95369 14.7563 9.95866 14.5983 10.0291C14.4403 10.0996 14.3168 10.2299 14.2547 10.3913C13.7658 11.6544 12.9074 12.7406 11.7916 13.5082C10.6757 14.2758 9.35436 14.6891 8.00003 14.694C6.55364 14.698 5.14548 14.2298 3.98936 13.3607C3.97038 13.3467 3.95462 13.3288 3.94312 13.3082C3.93162 13.2876 3.92465 13.2648 3.92269 13.2413C3.92104 13.2181 3.92441 13.1947 3.93257 13.1729C3.94074 13.151 3.95351 13.1312 3.97003 13.1147L4.93536 12.1487C4.98092 12.103 5.01192 12.0448 5.02448 11.9816C5.03703 11.9183 5.03056 11.8527 5.00589 11.7931C4.98122 11.7335 4.93945 11.6825 4.88584 11.6466C4.83224 11.6107 4.76921 11.5915 4.70469 11.5913H1.79603C1.70939 11.5913 1.6263 11.6258 1.56504 11.687C1.50378 11.7483 1.46936 11.8314 1.46936 11.918V14.8287C1.46949 14.8932 1.48871 14.9562 1.52462 15.0098C1.56052 15.0634 1.61149 15.1052 1.6711 15.1299C1.73071 15.1545 1.7963 15.161 1.85958 15.1485C1.92286 15.1359 1.98101 15.1049 2.02669 15.0593L2.80803 14.278C2.83644 14.2496 2.87431 14.2327 2.9144 14.2305C2.95449 14.2283 2.99399 14.2409 3.02536 14.266C4.43766 15.3938 6.1927 16.0055 8.00003 16C9.61833 15.9939 11.1972 15.5 12.5305 14.5828C13.8638 13.6657 14.8896 12.3678 15.474 10.8587C15.5358 10.6969 15.5309 10.5172 15.4603 10.359C15.3896 10.2009 15.2591 10.0773 15.0974 10.0153Z" fill="#000"/>
</g>
<defs>
<clipPath id="clip0">
<rect width="16" height="16" fill="white"/>
</clipPath>
</defs>
</svg>
