<svg width="16" height="16" viewBox="0 0 16 16" fill="none" xmlns="http://www.w3.org/2000/svg">
<path d="M13.2264 4.38983C13.2529 4.36322 13.2845 4.34211 13.3192 4.32771C13.3539 4.31331 13.3911 4.30589 13.4287 4.30589C13.4663 4.30589 13.5035 4.31331 13.5382 4.32771C13.5729 4.34211 13.6044 4.36322 13.631 4.38983L14.0493 4.80812C14.2648 5.0163 14.5535 5.13149 14.8531 5.12889C15.1528 5.12628 15.4394 5.00609 15.6513 4.7942C15.8632 4.5823 15.9834 4.29566 15.986 3.996C15.9886 3.69635 15.8734 3.40766 15.6653 3.19212L12.8081 0.334974C12.5926 0.126793 12.3039 0.0115995 12.0042 0.0142034C11.7046 0.0168073 11.4179 0.137 11.206 0.348895C10.9941 0.56079 10.874 0.847433 10.8713 1.14709C10.8687 1.44674 10.9839 1.73543 11.1921 1.95097L11.6104 2.36926C11.637 2.3958 11.6581 2.42733 11.6725 2.46204C11.6869 2.49675 11.6943 2.53396 11.6943 2.57155C11.6943 2.60913 11.6869 2.64634 11.6725 2.68105C11.6581 2.71576 11.637 2.74729 11.6104 2.77383L10.2024 4.18183C10.1759 4.20844 10.1443 4.22955 10.1096 4.24395C10.0749 4.25836 10.0377 4.26577 10.0001 4.26577C9.96254 4.26577 9.92532 4.25836 9.89061 4.24395C9.8559 4.22955 9.82437 4.20844 9.79783 4.18183L6.80812 1.19212C6.59257 0.983936 6.30388 0.868742 6.00423 0.871346C5.70458 0.87395 5.41793 0.994143 5.20604 1.20604C4.99414 1.41793 4.87395 1.70458 4.87135 2.00423C4.86874 2.30388 4.98394 2.59257 5.19212 2.80812L5.84697 3.46297C5.87372 3.48944 5.89495 3.52094 5.90944 3.55566C5.92393 3.59038 5.93139 3.62764 5.93139 3.66526C5.93139 3.70288 5.92393 3.74013 5.90944 3.77486C5.89495 3.80958 5.87372 3.84108 5.84697 3.86755L2.24812 7.4664C1.65229 8.06292 1.29715 8.85807 1.25055 9.69989C1.20396 10.5417 1.46919 11.3712 1.99555 12.0298C2.03916 12.0849 2.06105 12.1541 2.05704 12.2242C2.05304 12.2944 2.02343 12.3606 1.97383 12.4104L0.334974 14.0493C0.126793 14.2648 0.0115995 14.5535 0.0142034 14.8531C0.0168073 15.1528 0.137 15.4394 0.348895 15.6513C0.56079 15.8632 0.847433 15.9834 1.14709 15.986C1.44674 15.9886 1.73543 15.8734 1.95097 15.6653L3.58983 14.0264C3.63962 13.9767 3.70597 13.9472 3.77619 13.9434C3.8464 13.9396 3.91555 13.9618 3.9704 14.0058C4.6293 14.5319 5.45894 14.7967 6.30078 14.7497C7.14261 14.7027 7.9376 14.3471 8.53383 13.751L12.1327 10.1533C12.1592 10.1267 12.1908 10.1055 12.2255 10.0911C12.2602 10.0767 12.2974 10.0693 12.335 10.0693C12.3726 10.0693 12.4098 10.0767 12.4445 10.0911C12.4792 10.1055 12.5107 10.1267 12.5373 10.1533L13.1921 10.8081C13.4077 11.0163 13.6964 11.1315 13.996 11.1289C14.2957 11.1263 14.5823 11.0061 14.7942 10.7942C15.0061 10.5823 15.1263 10.2957 15.1289 9.996C15.1315 9.69635 15.0163 9.40766 14.8081 9.19212L11.8184 6.2024C11.7918 6.17586 11.7707 6.14433 11.7563 6.10962C11.7419 6.07491 11.7345 6.0377 11.7345 6.00012C11.7345 5.96254 11.7419 5.92532 11.7563 5.89061C11.7707 5.8559 11.7918 5.82437 11.8184 5.79783L13.2264 4.38983ZM6.91783 12.135C6.70027 12.343 6.41085 12.4591 6.10983 12.4591C5.80881 12.4591 5.51939 12.343 5.30183 12.135L3.86526 10.6984C3.65101 10.4841 3.53065 10.1934 3.53065 9.8904C3.53065 9.58736 3.65101 9.29672 3.86526 9.0824L7.46297 5.48583C7.51673 5.43237 7.58945 5.40236 7.66526 5.40236C7.74107 5.40236 7.81379 5.43237 7.86755 5.48583L10.5144 8.13269C10.541 8.15923 10.5621 8.19076 10.5765 8.22547C10.5909 8.26018 10.5983 8.29739 10.5983 8.33497C10.5983 8.37256 10.5909 8.40977 10.5765 8.44448C10.5621 8.47919 10.541 8.51072 10.5144 8.53726L6.91783 12.135Z" fill="#000"/>
</svg>
