<svg width="16" height="16" viewBox="0 0 16 16" fill="none" xmlns="http://www.w3.org/2000/svg">
<g clip-path="url(#clip0)">
<path d="M0 8.00001C0 8.57465 0.228273 9.12575 0.634602 9.53207C1.04093 9.9384 1.59203 10.1667 2.16667 10.1667C2.7413 10.1667 3.2924 9.9384 3.69873 9.53207C4.10506 9.12575 4.33333 8.57465 4.33333 8.00001C4.33333 7.42537 4.10506 6.87427 3.69873 6.46795C3.2924 6.06162 2.7413 5.83334 2.16667 5.83334C1.59203 5.83334 1.04093 6.06162 0.634602 6.46795C0.228273 6.87427 0 7.42537 0 8.00001H0Z" fill="#000"/>
<path d="M5.83337 8.00001C5.83337 8.57465 6.06165 9.12575 6.46798 9.53207C6.87431 9.9384 7.42541 10.1667 8.00004 10.1667C8.57468 10.1667 9.12578 9.9384 9.53211 9.53207C9.93843 9.12575 10.1667 8.57465 10.1667 8.00001C10.1667 7.42537 9.93843 6.87427 9.53211 6.46795C9.12578 6.06162 8.57468 5.83334 8.00004 5.83334C7.42541 5.83334 6.87431 6.06162 6.46798 6.46795C6.06165 6.87427 5.83337 7.42537 5.83337 8.00001Z" fill="#000"/>
<path d="M11.6666 8.00001C11.6666 8.57465 11.8949 9.12575 12.3012 9.53207C12.7076 9.9384 13.2587 10.1667 13.8333 10.1667C14.4079 10.1667 14.959 9.9384 15.3654 9.53207C15.7717 9.12575 16 8.57465 16 8.00001C16 7.42537 15.7717 6.87427 15.3654 6.46795C14.959 6.06162 14.4079 5.83334 13.8333 5.83334C13.2587 5.83334 12.7076 6.06162 12.3012 6.46795C11.8949 6.87427 11.6666 7.42537 11.6666 8.00001Z" fill="#000"/>
</g>
<defs>
<clipPath id="clip0">
<rect width="16" height="16" fill="white"/>
</clipPath>
</defs>
</svg>
