<svg width="16" height="16" viewBox="0 0 16 16" fill="none" xmlns="http://www.w3.org/2000/svg">
<g clip-path="url(#clip0)">
<path d="M8 0C6.41775 0 4.87104 0.469192 3.55544 1.34824C2.23985 2.22729 1.21447 3.47672 0.608967 4.93853C0.00346629 6.40034 -0.15496 8.00887 0.153721 9.56072C0.462403 11.1126 1.22433 12.538 2.34315 13.6569C3.46197 14.7757 4.88743 15.5376 6.43928 15.8463C7.99113 16.155 9.59966 15.9965 11.0615 15.391C12.5233 14.7855 13.7727 13.7602 14.6518 12.4446C15.5308 11.129 16 9.58225 16 8C15.9977 5.87897 15.1541 3.84547 13.6543 2.34568C12.1545 0.845885 10.121 0.00229405 8 0V0ZM8 1.66667C9.20343 1.66374 10.3827 2.00439 11.3992 2.64859C12.4157 3.29278 13.2272 4.21375 13.7383 5.30325C14.2494 6.39275 14.4389 7.60551 14.2845 8.799C14.1301 9.99248 13.6382 11.1171 12.8667 12.0407C12.8201 12.0966 12.7565 12.1357 12.6856 12.1521C12.6147 12.1684 12.5404 12.1612 12.474 12.1313C11.8873 11.8647 11.1773 11.6047 10.3673 11.3067L9.87134 11.124C9.81194 11.0808 9.7621 11.0259 9.72493 10.9625C9.68776 10.8992 9.66407 10.8289 9.65534 10.756C9.60687 10.5858 9.59294 10.4077 9.61435 10.2321C9.63576 10.0564 9.69208 9.88687 9.78 9.73333C10.492 8.94933 10.9333 8.10667 10.9333 6.33333C10.9687 5.93096 10.9185 5.52565 10.786 5.14406C10.6536 4.76248 10.4418 4.41324 10.1648 4.11931C9.88772 3.82537 9.5516 3.5934 9.1785 3.43864C8.8054 3.28387 8.40377 3.20981 8 3.22133C7.59624 3.20981 7.19461 3.28387 6.82151 3.43864C6.44841 3.5934 6.11229 3.82537 5.83523 4.11931C5.55817 4.41324 5.34646 4.76248 5.21399 5.14406C5.08153 5.52565 5.03132 5.93096 5.06667 6.33333C5.06667 8.10867 5.508 8.95133 6.22 9.73333C6.30839 9.88655 6.36525 10.0559 6.38723 10.2314C6.40921 10.4069 6.39588 10.5851 6.348 10.7553C6.33927 10.8282 6.31558 10.8986 6.27841 10.9619C6.24124 11.0252 6.1914 11.0802 6.132 11.1233L5.636 11.306C4.826 11.604 4.116 11.866 3.52934 12.1307C3.46296 12.1605 3.38865 12.1678 3.31775 12.1514C3.24685 12.135 3.18325 12.0959 3.13667 12.04C2.36552 11.1166 1.87388 9.99239 1.71947 8.79932C1.56507 7.60624 1.75432 6.39388 2.26499 5.30462C2.77567 4.21537 3.58656 3.29445 4.60244 2.65004C5.61831 2.00563 6.79698 1.66448 8 1.66667Z" fill="#000"/>
</g>
<defs>
<clipPath id="clip0">
<rect width="16" height="16" fill="white"/>
</clipPath>
</defs>
</svg>
