<svg width="24" height="24" viewBox="0 0 24 24" fill="none" xmlns="http://www.w3.org/2000/svg">
<g clip-path="url(#clip0)">
<path d="M24 9.00001C24 8.60218 23.842 8.22065 23.5607 7.93935C23.2794 7.65804 22.8978 7.50001 22.5 7.50001H6.5C6.10218 7.50001 5.72064 7.65804 5.43934 7.93935C5.15804 8.22065 5 8.60218 5 9.00001V19C5 19.3978 4.84196 19.7794 4.56066 20.0607C4.27936 20.342 3.89782 20.5 3.5 20.5C3.10218 20.5 2.72064 20.342 2.43934 20.0607C2.15804 19.7794 2 19.3978 2 19V4.00001C2 3.8674 2.05268 3.74022 2.14645 3.64645C2.24021 3.55269 2.36739 3.50001 2.5 3.50001H6.586L8.5 5.41401C8.68521 5.60036 8.90556 5.74811 9.14828 5.8487C9.391 5.94929 9.65126 6.00072 9.914 6.00001H20.5C20.7652 6.00001 21.0196 5.89465 21.2071 5.70711C21.3946 5.51958 21.5 5.26522 21.5 5.00001C21.5 4.73479 21.3946 4.48044 21.2071 4.2929C21.0196 4.10536 20.7652 4.00001 20.5 4.00001H9.914L8 2.08601C7.81479 1.89965 7.59444 1.7519 7.35172 1.65131C7.109 1.55072 6.84874 1.4993 6.586 1.50001H1.5C1.10218 1.50001 0.720644 1.65804 0.43934 1.93935C0.158035 2.22065 0 2.60218 0 3.00001L0 19C0 19.9283 0.368749 20.8185 1.02513 21.4749C1.6815 22.1313 2.57174 22.5 3.5 22.5H20C21.0609 22.5 22.0783 22.0786 22.8284 21.3284C23.5786 20.5783 24 19.5609 24 18.5V9.00001ZM18.5 16C18.5 16.1326 18.4473 16.2598 18.3536 16.3536C18.2598 16.4473 18.1326 16.5 18 16.5H16.5C16.3674 16.5 16.2402 16.5527 16.1464 16.6465C16.0527 16.7402 16 16.8674 16 17V18.5C16 18.6326 15.9473 18.7598 15.8536 18.8536C15.7598 18.9473 15.6326 19 15.5 19H13.5C13.3674 19 13.2402 18.9473 13.1464 18.8536C13.0527 18.7598 13 18.6326 13 18.5V17C13 16.8674 12.9473 16.7402 12.8536 16.6465C12.7598 16.5527 12.6326 16.5 12.5 16.5H11C10.8674 16.5 10.7402 16.4473 10.6464 16.3536C10.5527 16.2598 10.5 16.1326 10.5 16V14C10.5 13.8674 10.5527 13.7402 10.6464 13.6465C10.7402 13.5527 10.8674 13.5 11 13.5H12.5C12.6326 13.5 12.7598 13.4473 12.8536 13.3536C12.9473 13.2598 13 13.1326 13 13V11.5C13 11.3674 13.0527 11.2402 13.1464 11.1465C13.2402 11.0527 13.3674 11 13.5 11H15.5C15.6326 11 15.7598 11.0527 15.8536 11.1465C15.9473 11.2402 16 11.3674 16 11.5V13C16 13.1326 16.0527 13.2598 16.1464 13.3536C16.2402 13.4473 16.3674 13.5 16.5 13.5H18C18.1326 13.5 18.2598 13.5527 18.3536 13.6465C18.4473 13.7402 18.5 13.8674 18.5 14V16Z" fill="#000"/>
</g>
<defs>
<clipPath id="clip0">
<rect width="24" height="24" fill="white"/>
</clipPath>
</defs>
</svg>
