<svg width="16" height="16" viewBox="0 0 16 16" fill="none" xmlns="http://www.w3.org/2000/svg">
<g clip-path="url(#clip0)">
<path d="M0 2.66532C0 3.10735 0.175595 3.53127 0.488155 3.84384C0.800716 4.1564 1.22464 4.33199 1.66667 4.33199C2.10869 4.33199 2.53262 4.1564 2.84518 3.84384C3.15774 3.53127 3.33333 3.10735 3.33333 2.66532C3.33333 2.2233 3.15774 1.79937 2.84518 1.48681C2.53262 1.17425 2.10869 0.998657 1.66667 0.998657C1.22464 0.998657 0.800716 1.17425 0.488155 1.48681C0.175595 1.79937 0 2.2233 0 2.66532H0Z" fill="#000"/>
<path d="M5.66667 3.33333H15.3333C15.5101 3.33333 15.6797 3.2631 15.8047 3.13807C15.9298 3.01305 16 2.84348 16 2.66667C16 2.48986 15.9298 2.32029 15.8047 2.19526C15.6797 2.07024 15.5101 2 15.3333 2H5.66667C5.48986 2 5.32029 2.07024 5.19526 2.19526C5.07024 2.32029 5 2.48986 5 2.66667C5 2.84348 5.07024 3.01305 5.19526 3.13807C5.32029 3.2631 5.48986 3.33333 5.66667 3.33333Z" fill="#000"/>
<path d="M0 7.99867C0 8.44069 0.175595 8.86462 0.488155 9.17718C0.800716 9.48974 1.22464 9.66533 1.66667 9.66533C2.10869 9.66533 2.53262 9.48974 2.84518 9.17718C3.15774 8.86462 3.33333 8.44069 3.33333 7.99867C3.33333 7.55664 3.15774 7.13272 2.84518 6.82016C2.53262 6.5076 2.10869 6.332 1.66667 6.332C1.22464 6.332 0.800716 6.5076 0.488155 6.82016C0.175595 7.13272 0 7.55664 0 7.99867H0Z" fill="#000"/>
<path d="M15.3333 7.33331H5.66667C5.48986 7.33331 5.32029 7.40355 5.19526 7.52858C5.07024 7.6536 5 7.82317 5 7.99998C5 8.17679 5.07024 8.34636 5.19526 8.47138C5.32029 8.59641 5.48986 8.66665 5.66667 8.66665H15.3333C15.5101 8.66665 15.6797 8.59641 15.8047 8.47138C15.9298 8.34636 16 8.17679 16 7.99998C16 7.82317 15.9298 7.6536 15.8047 7.52858C15.6797 7.40355 15.5101 7.33331 15.3333 7.33331Z" fill="#000"/>
<path d="M0 13.332C0 13.774 0.175595 14.1979 0.488155 14.5105C0.800716 14.8231 1.22464 14.9986 1.66667 14.9986C2.10869 14.9986 2.53262 14.8231 2.84518 14.5105C3.15774 14.1979 3.33333 13.774 3.33333 13.332C3.33333 12.89 3.15774 12.466 2.84518 12.1535C2.53262 11.8409 2.10869 11.6653 1.66667 11.6653C1.22464 11.6653 0.800716 11.8409 0.488155 12.1535C0.175595 12.466 0 12.89 0 13.332H0Z" fill="#000"/>
<path d="M15.3333 12.6667H5.66667C5.48986 12.6667 5.32029 12.7369 5.19526 12.8619C5.07024 12.9869 5 13.1565 5 13.3333C5 13.5101 5.07024 13.6797 5.19526 13.8047C5.32029 13.9298 5.48986 14 5.66667 14H15.3333C15.5101 14 15.6797 13.9298 15.8047 13.8047C15.9298 13.6797 16 13.5101 16 13.3333C16 13.1565 15.9298 12.9869 15.8047 12.8619C15.6797 12.7369 15.5101 12.6667 15.3333 12.6667Z" fill="#000"/>
</g>
<defs>
<clipPath id="clip0">
<rect width="16" height="16" fill="white"/>
</clipPath>
</defs>
</svg>
