<svg width="16" height="16" viewBox="0 0 16 16" fill="none" xmlns="http://www.w3.org/2000/svg">
<path d="M5.16667 3.00002H15.1667C15.3435 3.00002 15.513 2.92978 15.6381 2.80476C15.7631 2.67973 15.8333 2.51016 15.8333 2.33335C15.8333 2.15654 15.7631 1.98697 15.6381 1.86195C15.513 1.73692 15.3435 1.66669 15.1667 1.66669H5.16667C4.98986 1.66669 4.82029 1.73692 4.69526 1.86195C4.57024 1.98697 4.5 2.15654 4.5 2.33335C4.5 2.51016 4.57024 2.67973 4.69526 2.80476C4.82029 2.92978 4.98986 3.00002 5.16667 3.00002Z" fill="#000"/>
<path d="M15.1667 7.33334H5.16667C4.98986 7.33334 4.82029 7.40358 4.69526 7.52861C4.57024 7.65363 4.5 7.8232 4.5 8.00001C4.5 8.17682 4.57024 8.34639 4.69526 8.47141C4.82029 8.59644 4.98986 8.66668 5.16667 8.66668H15.1667C15.3435 8.66668 15.513 8.59644 15.6381 8.47141C15.7631 8.34639 15.8333 8.17682 15.8333 8.00001C15.8333 7.8232 15.7631 7.65363 15.6381 7.52861C15.513 7.40358 15.3435 7.33334 15.1667 7.33334Z" fill="#000"/>
<path d="M15.1667 13H5.16667C4.98986 13 4.82029 13.0702 4.69526 13.1953C4.57024 13.3203 4.5 13.4899 4.5 13.6667C4.5 13.8435 4.57024 14.013 4.69526 14.1381C4.82029 14.2631 4.98986 14.3333 5.16667 14.3333H15.1667C15.3435 14.3333 15.513 14.2631 15.6381 14.1381C15.7631 14.013 15.8333 13.8435 15.8333 13.6667C15.8333 13.4899 15.7631 13.3203 15.6381 13.1953C15.513 13.0702 15.3435 13 15.1667 13Z" fill="#000"/>
<path d="M1.47468 11.4987C1.18089 11.4986 0.895294 11.5955 0.662261 11.7744C0.429228 11.9533 0.261807 12.2042 0.18601 12.488C0.151886 12.6162 0.170081 12.7527 0.236594 12.8675C0.303107 12.9822 0.412489 13.0659 0.540677 13.1C0.668865 13.1341 0.805358 13.1159 0.920131 13.0494C1.0349 12.9829 1.11855 12.8735 1.15268 12.7453C1.16885 12.6853 1.2015 12.631 1.24693 12.5885C1.29237 12.546 1.34878 12.5171 1.40978 12.505C1.47079 12.4929 1.53396 12.4982 1.59216 12.5201C1.65035 12.5421 1.70124 12.5798 1.73908 12.6292C1.77692 12.6786 1.8002 12.7375 1.80628 12.7994C1.81236 12.8613 1.80101 12.9237 1.7735 12.9794C1.74599 13.0352 1.70343 13.0822 1.65062 13.115C1.59781 13.1479 1.53687 13.1653 1.47468 13.1653C1.34207 13.1653 1.21489 13.218 1.12112 13.3118C1.02736 13.4056 0.974677 13.5327 0.974677 13.6653C0.974677 13.798 1.02736 13.9251 1.12112 14.0189C1.21489 14.1127 1.34207 14.1653 1.47468 14.1653C1.53671 14.1654 1.5975 14.1828 1.65019 14.2155C1.70289 14.2483 1.7454 14.2951 1.77295 14.3506C1.8005 14.4062 1.812 14.4684 1.80614 14.5301C1.80029 14.5919 1.77731 14.6508 1.7398 14.7002C1.7023 14.7496 1.65175 14.7876 1.59384 14.8098C1.53593 14.8321 1.47296 14.8377 1.41202 14.8261C1.35108 14.8146 1.29458 14.7862 1.24888 14.7442C1.20318 14.7023 1.17009 14.6484 1.15334 14.5887C1.13741 14.5237 1.1086 14.4626 1.06861 14.4089C1.02863 14.3553 0.978283 14.3102 0.92056 14.2764C0.862837 14.2425 0.798911 14.2206 0.732568 14.212C0.666225 14.2033 0.598816 14.208 0.534333 14.2259C0.46985 14.2437 0.409606 14.2743 0.357168 14.3159C0.304731 14.3574 0.261168 14.4091 0.22906 14.4678C0.196952 14.5265 0.176951 14.591 0.170244 14.6576C0.163536 14.7242 0.170257 14.7914 0.19001 14.8553C0.241684 15.0413 0.333111 15.2138 0.457974 15.361C0.582838 15.5081 0.738162 15.6264 0.913216 15.7077C1.08827 15.789 1.27888 15.8313 1.47188 15.8317C1.66488 15.8321 1.85566 15.7906 2.03105 15.7101C2.20644 15.6295 2.36226 15.5119 2.48774 15.3652C2.61322 15.2186 2.70536 15.0464 2.75782 14.8607C2.81027 14.675 2.82177 14.4801 2.79153 14.2895C2.76129 14.0988 2.69003 13.9171 2.58268 13.7567C2.56442 13.7292 2.55468 13.697 2.55468 13.664C2.55468 13.631 2.56442 13.5988 2.58268 13.5713C2.71677 13.3706 2.79385 13.1373 2.80571 12.8962C2.81757 12.6551 2.76376 12.4153 2.65002 12.2024C2.53628 11.9895 2.36687 11.8115 2.15988 11.6873C1.95288 11.5631 1.71606 11.4975 1.47468 11.4973V11.4987Z" fill="#000"/>
<path d="M2.83329 7.16533C2.83329 6.81171 2.69282 6.47257 2.44277 6.22252C2.19272 5.97248 1.85358 5.832 1.49996 5.832C1.14634 5.832 0.807199 5.97248 0.55715 6.22252C0.307102 6.47257 0.166626 6.81171 0.166626 7.16533C0.166626 7.29794 0.219304 7.42512 0.313073 7.51889C0.406841 7.61266 0.534018 7.66533 0.666626 7.66533C0.799234 7.66533 0.926411 7.61266 1.02018 7.51889C1.11395 7.42512 1.16663 7.29794 1.16663 7.16533C1.16663 7.07693 1.20174 6.99214 1.26426 6.92963C1.32677 6.86712 1.41155 6.832 1.49996 6.832C1.58836 6.832 1.67315 6.86712 1.73566 6.92963C1.79817 6.99214 1.83329 7.07693 1.83329 7.16533C1.83323 7.32171 1.77985 7.47339 1.68196 7.59533L0.275959 9.35267C0.217016 9.42622 0.180065 9.51494 0.169368 9.60859C0.158671 9.70224 0.174665 9.79701 0.215503 9.88196C0.256342 9.96692 0.320363 10.0386 0.400182 10.0887C0.480001 10.1389 0.572367 10.1654 0.666626 10.1653H2.33329C2.4659 10.1653 2.59308 10.1127 2.68685 10.0189C2.78061 9.92512 2.83329 9.79794 2.83329 9.66533C2.83329 9.53273 2.78061 9.40555 2.68685 9.31178C2.59308 9.21801 2.4659 9.16533 2.33329 9.16533H2.05396C2.02249 9.16555 1.9916 9.15682 1.9649 9.14016C1.9382 9.12349 1.91679 9.09958 1.90316 9.07121C1.88954 9.04284 1.88426 9.01118 1.88794 8.97992C1.89162 8.94866 1.90411 8.9191 1.92396 8.89467L2.46663 8.22C2.70439 7.91991 2.83362 7.5482 2.83329 7.16533Z" fill="#000"/>
<path d="M2.66667 3.49868H2.5C2.45603 3.49868 2.41384 3.4813 2.38262 3.45033C2.3514 3.41937 2.33369 3.37732 2.33333 3.33334V1.08201C2.33298 0.839004 2.23629 0.606051 2.06446 0.434219C1.89263 0.262387 1.65967 0.165697 1.41667 0.165344H1C0.867392 0.165344 0.740215 0.218023 0.646447 0.311791C0.552678 0.405559 0.5 0.532736 0.5 0.665344C0.5 0.797952 0.552678 0.925129 0.646447 1.0189C0.740215 1.11267 0.867392 1.16534 1 1.16534H1.16667C1.18867 1.16534 1.21045 1.1697 1.23076 1.17816C1.25107 1.18662 1.2695 1.19901 1.28499 1.21463C1.30049 1.23025 1.31273 1.24878 1.32103 1.26915C1.32933 1.28953 1.33351 1.31135 1.33333 1.33334V3.33334C1.33333 3.37755 1.31577 3.41994 1.28452 3.4512C1.25326 3.48245 1.21087 3.50001 1.16667 3.50001H1C0.867392 3.50001 0.740215 3.55269 0.646447 3.64646C0.552678 3.74023 0.5 3.8674 0.5 4.00001C0.5 4.13262 0.552678 4.2598 0.646447 4.35356C0.740215 4.44733 0.867392 4.50001 1 4.50001H2.66667C2.79927 4.50001 2.92645 4.44733 3.02022 4.35356C3.11399 4.2598 3.16667 4.13262 3.16667 4.00001C3.16667 3.8674 3.11399 3.74023 3.02022 3.64646C2.92645 3.55269 2.79927 3.50001 2.66667 3.50001V3.49868Z" fill="#000"/>
</svg>
