<svg width="16" height="16" viewBox="0 0 16 16" fill="none" xmlns="http://www.w3.org/2000/svg">
<path d="M14.8571 6.85715H10.5714C10.4957 6.85715 10.423 6.82705 10.3694 6.77346C10.3158 6.71988 10.2857 6.64721 10.2857 6.57143V4C10.2857 3.774 10.2186 3.55309 10.093 3.3652C9.96745 3.1773 9.78898 3.03085 9.58018 2.94437C9.37138 2.85789 9.14162 2.83526 8.91996 2.87934C8.6983 2.92342 8.49469 3.03222 8.33486 3.192L4.33486 7.192C4.1206 7.40632 4.00024 7.69696 4.00024 8C4.00024 8.30305 4.1206 8.59369 4.33486 8.808L8.33486 12.808C8.49469 12.9678 8.6983 13.0766 8.91996 13.1207C9.14162 13.1647 9.37138 13.1421 9.58018 13.0556C9.78898 12.9692 9.96745 12.8227 10.093 12.6348C10.2186 12.4469 10.2857 12.226 10.2857 12V9.42858C10.2857 9.3528 10.3158 9.28013 10.3694 9.22655C10.423 9.17296 10.4957 9.14286 10.5714 9.14286H14.8571C15.1602 9.14286 15.4509 9.02245 15.6653 8.80813C15.8796 8.5938 16 8.30311 16 8C16 7.6969 15.8796 7.40621 15.6653 7.19188C15.4509 6.97756 15.1602 6.85715 14.8571 6.85715Z" fill="#000"/>
<path d="M1.14286 13.1429C0.839753 13.1429 0.549062 13.0225 0.334735 12.8081C0.120408 12.5938 0 12.3031 0 12V4C0 3.6969 0.120408 3.40621 0.334735 3.19188C0.549062 2.97755 0.839753 2.85715 1.14286 2.85715C1.44596 2.85715 1.73665 2.97755 1.95098 3.19188C2.16531 3.40621 2.28571 3.6969 2.28571 4V12C2.28571 12.3031 2.16531 12.5938 1.95098 12.8081C1.73665 13.0225 1.44596 13.1429 1.14286 13.1429Z" fill="#000"/>
</svg>
