<svg width="16" height="16" viewBox="0 0 16 16" fill="none" xmlns="http://www.w3.org/2000/svg">
<g clip-path="url(#clip0)">
<path d="M11.6651 7.192L7.66514 3.192C7.50531 3.03222 7.3017 2.92342 7.08004 2.87934C6.85838 2.83526 6.62862 2.85789 6.41982 2.94437C6.21102 3.03085 6.03255 3.1773 5.90697 3.3652C5.78139 3.55309 5.71433 3.774 5.71429 4V6.57143C5.71429 6.64721 5.68418 6.71988 5.6306 6.77346C5.57702 6.82705 5.50435 6.85715 5.42857 6.85715H1.14286C0.839753 6.85715 0.549062 6.97756 0.334735 7.19188C0.120408 7.40621 0 7.6969 0 8C0 8.30311 0.120408 8.5938 0.334735 8.80813C0.549062 9.02245 0.839753 9.14286 1.14286 9.14286H5.42857C5.50435 9.14286 5.57702 9.17296 5.6306 9.22655C5.68418 9.28013 5.71429 9.3528 5.71429 9.42858V12C5.71433 12.226 5.78139 12.4469 5.90697 12.6348C6.03255 12.8227 6.21102 12.9692 6.41982 13.0556C6.62862 13.1421 6.85838 13.1647 7.08004 13.1207C7.3017 13.0766 7.50531 12.9678 7.66514 12.808L11.6651 8.808C11.8794 8.59369 11.9998 8.30305 11.9998 8C11.9998 7.69696 11.8794 7.40632 11.6651 7.192Z" fill="#000"/>
<path d="M14.8572 13.1429C14.554 13.1429 14.2634 13.0225 14.049 12.8081C13.8347 12.5938 13.7143 12.3031 13.7143 12V4C13.7143 3.6969 13.8347 3.40621 14.049 3.19188C14.2634 2.97755 14.554 2.85715 14.8572 2.85715C15.1603 2.85715 15.4509 2.97755 15.6653 3.19188C15.8796 3.40621 16 3.6969 16 4V12C16 12.3031 15.8796 12.5938 15.6653 12.8081C15.4509 13.0225 15.1603 13.1429 14.8572 13.1429Z" fill="#000"/>
</g>
<defs>
<clipPath id="clip0">
<rect width="16" height="16" fill="white"/>
</clipPath>
</defs>
</svg>
