<svg width="16" height="16" viewBox="0 0 16 16" fill="none" xmlns="http://www.w3.org/2000/svg">
<path d="M14 0H2C1.46957 0 0.960859 0.210714 0.585786 0.585786C0.210714 0.960859 0 1.46957 0 2L0 14C0 14.5304 0.210714 15.0391 0.585786 15.4142C0.960859 15.7893 1.46957 16 2 16H14C14.5304 16 15.0391 15.7893 15.4142 15.4142C15.7893 15.0391 16 14.5304 16 14V2C16 1.46957 15.7893 0.960859 15.4142 0.585786C15.0391 0.210714 14.5304 0 14 0V0ZM14.6667 14C14.6667 14.1768 14.5964 14.3464 14.4714 14.4714C14.3464 14.5964 14.1768 14.6667 14 14.6667H2C1.82319 14.6667 1.65362 14.5964 1.5286 14.4714C1.40357 14.3464 1.33333 14.1768 1.33333 14V2C1.33333 1.82319 1.40357 1.65362 1.5286 1.5286C1.65362 1.40357 1.82319 1.33333 2 1.33333H14C14.1768 1.33333 14.3464 1.40357 14.4714 1.5286C14.5964 1.65362 14.6667 1.82319 14.6667 2V14Z" fill="#000"/>
<path d="M7.49936 2.99999C7.32249 2.86756 7.10029 2.81072 6.88155 2.84197C6.66281 2.87322 6.46541 2.99 6.3327 3.16666L4.91003 5.06666L4.5887 4.74599C4.43025 4.60258 4.22276 4.52553 4.00911 4.53076C3.79546 4.53599 3.59199 4.6231 3.44075 4.77409C3.2895 4.92508 3.20204 5.1284 3.19645 5.34204C3.19086 5.55568 3.26756 5.7633 3.4107 5.92199L4.4107 6.92199C4.49576 7.00522 4.59751 7.06946 4.70922 7.11046C4.82094 7.15146 4.94009 7.1683 5.05879 7.15986C5.1775 7.15141 5.29306 7.11788 5.39785 7.06148C5.50264 7.00508 5.59427 6.92709 5.6667 6.83266L7.6667 4.16599C7.79903 3.98914 7.85573 3.76699 7.82435 3.54836C7.79298 3.32972 7.67609 3.13249 7.49936 2.99999Z" fill="#000"/>
<path d="M7.49937 8.99999C7.3225 8.86756 7.1003 8.81072 6.88156 8.84197C6.66282 8.87322 6.46542 8.99 6.3327 9.16666L4.91004 11.0667L4.5887 10.746C4.51181 10.6664 4.41984 10.603 4.31815 10.5593C4.21647 10.5157 4.10712 10.4927 3.99647 10.4918C3.88582 10.4909 3.77609 10.512 3.67369 10.5539C3.57129 10.5958 3.47826 10.6577 3.40004 10.736C3.32182 10.8143 3.25997 10.9073 3.21809 11.0098C3.17622 11.1122 3.15517 11.2219 3.15616 11.3326C3.15715 11.4432 3.18017 11.5526 3.22388 11.6542C3.26758 11.7559 3.33109 11.8478 3.4107 11.9247L4.4107 12.9247C4.49609 13.0074 4.59803 13.0712 4.70982 13.1118C4.8216 13.1524 4.94071 13.1689 5.05933 13.1602C5.17794 13.1516 5.29338 13.1179 5.39806 13.0614C5.50273 13.005 5.59429 12.927 5.6667 12.8327L7.6667 10.166C7.79903 9.98914 7.85574 9.76699 7.82436 9.54836C7.79298 9.32972 7.67609 9.13249 7.49937 8.99999Z" fill="#000"/>
<path d="M12.3333 5.16599H9.33333C9.11232 5.16599 8.90036 5.25378 8.74408 5.41006C8.5878 5.56634 8.5 5.7783 8.5 5.99932C8.5 6.22033 8.5878 6.43229 8.74408 6.58857C8.90036 6.74485 9.11232 6.83265 9.33333 6.83265H12.3333C12.5543 6.83265 12.7663 6.74485 12.9226 6.58857C13.0789 6.43229 13.1667 6.22033 13.1667 5.99932C13.1667 5.7783 13.0789 5.56634 12.9226 5.41006C12.7663 5.25378 12.5543 5.16599 12.3333 5.16599Z" fill="#000"/>
<path d="M12.3333 10.4993H9.33333C9.11232 10.4993 8.90036 10.5871 8.74408 10.7434C8.5878 10.8997 8.5 11.1116 8.5 11.3327C8.5 11.5537 8.5878 11.7656 8.74408 11.9219C8.90036 12.0782 9.11232 12.166 9.33333 12.166H12.3333C12.5543 12.166 12.7663 12.0782 12.9226 11.9219C13.0789 11.7656 13.1667 11.5537 13.1667 11.3327C13.1667 11.1116 13.0789 10.8997 12.9226 10.7434C12.7663 10.5871 12.5543 10.4993 12.3333 10.4993Z" fill="#000"/>
</svg>
