<svg width="16" height="14" viewBox="0 0 16 14" fill="none" xmlns="http://www.w3.org/2000/svg">
<path d="M15.6454 0.989336C15.5293 0.783432 15.3606 0.612078 15.1566 0.492825C14.9525 0.373572 14.7204 0.310707 14.484 0.310669H1.51604C1.27981 0.310784 1.04785 0.373656 0.843906 0.492851C0.639957 0.612047 0.471336 0.783287 0.355299 0.989049C0.239261 1.19481 0.179972 1.42771 0.183498 1.66391C0.187025 1.90011 0.25324 2.13113 0.375369 2.33334L6.85937 13.0467C6.97814 13.2429 7.14553 13.4052 7.34535 13.5178C7.54517 13.6304 7.77066 13.6896 8.00004 13.6896C8.22941 13.6896 8.45491 13.6304 8.65473 13.5178C8.85455 13.4052 9.02193 13.2429 9.1407 13.0467L15.6247 2.33334C15.7469 2.13122 15.8132 1.90027 15.8168 1.66413C15.8204 1.42799 15.7613 1.19512 15.6454 0.989336Z" fill="#000"/>
</svg>
