<svg width="16" height="16" viewBox="0 0 16 16" fill="none" xmlns="http://www.w3.org/2000/svg">
<g clip-path="url(#clip0)">
<path d="M11.9776 7.42879C12.5743 6.80742 12.975 6.02417 13.1297 5.17666C13.2843 4.32915 13.1861 3.45486 12.8473 2.66277C12.5085 1.87068 11.9441 1.19582 11.2244 0.722316C10.5047 0.248809 9.66151 -0.00240515 8.8 -1.35996e-05H4.8C4.05765 0.000833345 3.34595 0.296104 2.82104 0.821023C2.29612 1.34594 2.00085 2.05764 2 2.79999V13.36C2.01035 13.7172 2.09101 14.0689 2.23735 14.395C2.3837 14.721 2.59287 15.0151 2.8529 15.2602C3.11294 15.5054 3.41874 15.6969 3.75284 15.8239C4.08693 15.9508 4.44277 16.0106 4.8 16H8.8C10.1251 16.0494 11.4159 15.5723 12.3903 14.6728C13.3647 13.7734 13.9434 12.5248 14 11.2C13.9887 10.4555 13.7992 9.72461 13.4474 9.06847C13.0955 8.41232 12.5915 7.85006 11.9776 7.42879ZM4.4 2.79999C4.4 2.6939 4.44214 2.59216 4.51716 2.51714C4.59217 2.44213 4.69391 2.39999 4.8 2.39999H8.8C9.33043 2.39999 9.83914 2.6107 10.2142 2.98577C10.5893 3.36085 10.8 3.86955 10.8 4.39999C10.8 4.93042 10.5893 5.43913 10.2142 5.8142C9.83914 6.18927 9.33043 6.39999 8.8 6.39999H4.8C4.69391 6.39999 4.59217 6.35784 4.51716 6.28283C4.44214 6.20781 4.4 6.10607 4.4 5.99999V2.79999ZM8.8 13.6H4.8C4.56 13.6 4.4 13.456 4.4 13.36V9.19999C4.4 9.0939 4.44214 8.99216 4.51716 8.91714C4.59217 8.84213 4.69391 8.79999 4.8 8.79999H8.8C9.48848 8.75173 10.1683 8.9765 10.6923 9.42566C11.2163 9.87481 11.5424 10.5122 11.6 11.2C11.5424 11.8877 11.2163 12.5252 10.6923 12.9743C10.1683 13.4235 9.48848 13.6482 8.8 13.6Z" fill="#000"/>
</g>
<defs>
<clipPath id="clip0">
<rect width="16" height="16" fill="white"/>
</clipPath>
</defs>
</svg>
