<svg width="16" height="16" viewBox="0 0 16 16" fill="none" xmlns="http://www.w3.org/2000/svg">
<g clip-path="url(#clip0)">
<path d="M13.6 15.6H2.39995C2.08169 15.6 1.77647 15.4736 1.55142 15.2485C1.32638 15.0235 1.19995 14.7183 1.19995 14.4C1.19995 14.0818 1.32638 13.7765 1.55142 13.5515C1.77647 13.3264 2.08169 13.2 2.39995 13.2H13.6C13.9182 13.2 14.2234 13.3264 14.4485 13.5515C14.6735 13.7765 14.8 14.0818 14.8 14.4C14.8 14.7183 14.6735 15.0235 14.4485 15.2485C14.2234 15.4736 13.9182 15.6 13.6 15.6Z" fill="#000"/>
<path d="M7.99993 11.2C6.62132 11.1983 5.29966 10.6499 4.32484 9.67509C3.35002 8.70026 2.80162 7.37861 2.79993 6V1.2C2.79993 0.88174 2.92635 0.576515 3.1514 0.351472C3.37644 0.126428 3.68167 0 3.99993 0C4.31819 0 4.62341 0.126428 4.84845 0.351472C5.0735 0.576515 5.19993 0.88174 5.19993 1.2V6C5.19993 6.74261 5.49493 7.4548 6.02003 7.9799C6.54513 8.505 7.25732 8.8 7.99993 8.8C8.74253 8.8 9.45472 8.505 9.97983 7.9799C10.5049 7.4548 10.7999 6.74261 10.7999 6V1.2C10.7999 0.88174 10.9264 0.576515 11.1514 0.351472C11.3764 0.126428 11.6817 0 11.9999 0C12.3182 0 12.6234 0.126428 12.8485 0.351472C13.0735 0.576515 13.1999 0.88174 13.1999 1.2V6C13.1982 7.37861 12.6498 8.70026 11.675 9.67509C10.7002 10.6499 9.37853 11.1983 7.99993 11.2Z" fill="#000"/>
</g>
<defs>
<clipPath id="clip0">
<rect width="16" height="16" fill="white"/>
</clipPath>
</defs>
</svg>
