<svg width="16" height="16" viewBox="0 0 16 16" fill="none" xmlns="http://www.w3.org/2000/svg">
<path d="M2.66667 10.9933H4.66667C4.82417 10.991 4.97575 10.9329 5.09454 10.8295C5.21333 10.726 5.29165 10.5838 5.31561 10.4282C5.33958 10.2725 5.30764 10.1133 5.22546 9.97894C5.14328 9.84455 5.01617 9.74361 4.86667 9.694C4.84438 9.68701 4.82382 9.67537 4.80635 9.65986C4.78889 9.64434 4.77491 9.62531 4.76533 9.604C4.75623 9.58295 4.75154 9.56026 4.75154 9.53733C4.75154 9.5144 4.75623 9.49171 4.76533 9.47066L5.50533 7.76266C5.51834 7.73293 5.53968 7.7076 5.56677 7.68974C5.59386 7.67187 5.62555 7.66224 5.658 7.662H10.342C10.3745 7.66224 10.4061 7.67187 10.4332 7.68974C10.4603 7.7076 10.4817 7.73293 10.4947 7.76266L11.2347 9.47066C11.2439 9.49209 11.2485 9.51519 11.2482 9.53851C11.248 9.56182 11.2428 9.58482 11.2332 9.60604C11.2235 9.62725 11.2095 9.64621 11.1921 9.6617C11.1747 9.6772 11.1542 9.68888 11.132 9.696C10.9838 9.74666 10.8582 9.8479 10.7771 9.98194C10.6961 10.116 10.6649 10.2743 10.6889 10.4291C10.7129 10.5838 10.7906 10.7252 10.9085 10.8284C11.0263 10.9316 11.1767 10.99 11.3333 10.9933H13.3333C13.5101 10.9933 13.6797 10.9231 13.8047 10.7981C13.9298 10.673 14 10.5035 14 10.3267C14 10.1499 13.9298 9.98028 13.8047 9.85526C13.6797 9.73023 13.5101 9.66 13.3333 9.66H12.8807C12.8482 9.66006 12.8165 9.65063 12.7894 9.63286C12.7622 9.61509 12.7409 9.58976 12.728 9.56L8.918 0.76733C8.84058 0.588125 8.71241 0.435498 8.54928 0.328272C8.38616 0.221046 8.19521 0.16391 8 0.16391C7.80479 0.16391 7.61384 0.221046 7.45072 0.328272C7.28759 0.435498 7.15942 0.588125 7.082 0.76733L3.272 9.56C3.2591 9.58976 3.23777 9.61509 3.21064 9.63286C3.18351 9.65063 3.15177 9.66006 3.11933 9.66H2.66667C2.48986 9.66 2.32029 9.73023 2.19526 9.85526C2.07024 9.98028 2 10.1499 2 10.3267C2 10.5035 2.07024 10.673 2.19526 10.7981C2.32029 10.9231 2.48986 10.9933 2.66667 10.9933ZM7.84733 2.356C7.86033 2.32632 7.88169 2.30108 7.9088 2.28336C7.93592 2.26563 7.96761 2.25619 8 2.25619C8.03239 2.25619 8.06408 2.26563 8.0912 2.28336C8.11831 2.30108 8.13967 2.32632 8.15267 2.356L9.77267 6.094C9.78347 6.11946 9.78784 6.14719 9.7854 6.17474C9.78296 6.2023 9.77378 6.22883 9.75867 6.252C9.74344 6.275 9.72273 6.29387 9.69842 6.3069C9.6741 6.31993 9.64692 6.32672 9.61933 6.32666H6.38067C6.35308 6.32672 6.3259 6.31993 6.30158 6.3069C6.27727 6.29387 6.25656 6.275 6.24133 6.252C6.22622 6.22883 6.21704 6.2023 6.2146 6.17474C6.21216 6.14719 6.21653 6.11946 6.22733 6.094L7.84733 2.356Z" fill="#000"/>
<path d="M15.3047 11.832H0.695333C0.514735 11.8282 0.340037 11.8964 0.209648 12.0214C0.0792582 12.1464 0.00384949 12.3181 0 12.4987L0 15.1653C0.00384949 15.3459 0.0792582 15.5176 0.209648 15.6426C0.340037 15.7676 0.514735 15.8357 0.695333 15.832H15.3047C15.4853 15.8357 15.66 15.7676 15.7904 15.6426C15.9207 15.5176 15.9962 15.3459 16 15.1653V12.4987C15.9962 12.3181 15.9207 12.1464 15.7904 12.0214C15.66 11.8964 15.4853 11.8282 15.3047 11.832ZM14.6 13.3653L13.6 14.6987C13.569 14.7401 13.5287 14.7737 13.4824 14.7968C13.4361 14.8199 13.3851 14.832 13.3333 14.832C13.2816 14.832 13.2305 14.8199 13.1843 14.7968C13.138 14.7737 13.0977 14.7401 13.0667 14.6987L12.0667 13.3653C12.0295 13.3158 12.0069 13.2569 12.0013 13.1953C11.9958 13.1336 12.0075 13.0716 12.0352 13.0163C12.0629 12.9609 12.1054 12.9143 12.1581 12.8818C12.2107 12.8492 12.2714 12.832 12.3333 12.832H14.3333C14.3952 12.832 14.4559 12.8492 14.5086 12.8818C14.5612 12.9143 14.6038 12.9609 14.6315 13.0163C14.6592 13.0716 14.6709 13.1336 14.6653 13.1953C14.6598 13.2569 14.6371 13.3158 14.6 13.3653Z" fill="#000"/>
</svg>
