<svg width="16" height="16" viewBox="0 0 16 16" fill="none" xmlns="http://www.w3.org/2000/svg">
<g clip-path="url(#clip0)">
<path d="M15.4286 2.28571C15.4286 1.67951 15.1877 1.09812 14.7591 0.66947C14.3304 0.240816 13.749 0 13.1428 0L2.85713 0C2.25092 0 1.66954 0.240816 1.24088 0.66947C0.812227 1.09812 0.571411 1.67951 0.571411 2.28571V4C0.571411 4.3031 0.691819 4.59379 0.906146 4.80812C1.12047 5.02245 1.41116 5.14286 1.71427 5.14286C2.01737 5.14286 2.30806 5.02245 2.52239 4.80812C2.73672 4.59379 2.85713 4.3031 2.85713 4V2.57143C2.85713 2.49565 2.88723 2.42298 2.94081 2.3694C2.99439 2.31582 3.06706 2.28571 3.14284 2.28571H6.57141C6.64719 2.28571 6.71986 2.31582 6.77344 2.3694C6.82702 2.42298 6.85713 2.49565 6.85713 2.57143V13.4286C6.85713 13.5043 6.82702 13.577 6.77344 13.6306C6.71986 13.6842 6.64719 13.7143 6.57141 13.7143H5.14284C4.83974 13.7143 4.54904 13.8347 4.33472 14.049C4.12039 14.2633 3.99998 14.554 3.99998 14.8571C3.99998 15.1602 4.12039 15.4509 4.33472 15.6653C4.54904 15.8796 4.83974 16 5.14284 16H10.8571C11.1602 16 11.4509 15.8796 11.6652 15.6653C11.8796 15.4509 12 15.1602 12 14.8571C12 14.554 11.8796 14.2633 11.6652 14.049C11.4509 13.8347 11.1602 13.7143 10.8571 13.7143H9.42855C9.35278 13.7143 9.2801 13.6842 9.22652 13.6306C9.17294 13.577 9.14284 13.5043 9.14284 13.4286V2.57143C9.14284 2.49565 9.17294 2.42298 9.22652 2.3694C9.2801 2.31582 9.35278 2.28571 9.42855 2.28571H12.8571C12.9329 2.28571 13.0056 2.31582 13.0592 2.3694C13.1127 2.42298 13.1428 2.49565 13.1428 2.57143V4C13.1428 4.3031 13.2632 4.59379 13.4776 4.80812C13.6919 5.02245 13.9826 5.14286 14.2857 5.14286C14.5888 5.14286 14.8795 5.02245 15.0938 4.80812C15.3081 4.59379 15.4286 4.3031 15.4286 4V2.28571Z" fill="#000"/>
</g>
<defs>
<clipPath id="clip0">
<rect width="16" height="16" fill="white"/>
</clipPath>
</defs>
</svg>
